<?xml version="1.0" encoding="utf-8"?>
<!-- Generator: Adobe Illustrator 27.0.0, SVG Export Plug-In . SVG Version: 6.00 Build 0)  -->
<svg version="1.1" id="图层_1" xmlns:ev="http://www.w3.org/2001/xml-events"
	 xmlns="http://www.w3.org/2000/svg" xmlns:xlink="http://www.w3.org/1999/xlink" x="0px" y="0px" viewBox="0 0 815.3 163"
	 style="enable-background:new 0 0 815.3 163;" xml:space="preserve">
<style type="text/css">
	.st0{fill:#FFFFFF;}
	.st1{font-family:'Arial-BoldMT';}
	.st2{font-size:17.0079px;}
	.st3{font-family:'ArialMT';}
	.st4{font-size:8.5039px;}
	.st5{font-size:7.0866px;}
	.st6{fill:#EBEDF0;}
	.st7{fill:#60B865;}
	.st8{fill:#5CB260;}
	.st9{fill:#ACE7AE;}
	.st10{fill:#A8E5AA;}
	.st11{fill:#A2E2A4;}
	.st12{fill:#A1E2A4;}
	.st13{fill:#65BC69;}
	.st14{fill:#9FE1A1;}
	.st15{fill:#A8E5AB;}
	.st16{fill:#ABE7AD;}
	.st17{fill:#549F57;}
	.st18{fill:#A5E4A8;}
	.st19{fill:#61B966;}
	.st20{fill:#AAE6AC;}
	.st21{fill:#5BB260;}
	.st22{fill:#61B865;}
	.st23{fill:#63BB68;}
	.st24{fill:#62BA67;}
	.st25{fill:#5DB461;}
	.st26{fill:#A0E2A3;}
</style>
<rect y="0" class="st0" width="815.3" height="163"/>
<text transform="matrix(1 0 0 1 4.5064 22.347)" class="st1 st2">TO MAKE EACH DAY COUNT.</text>
<text transform="matrix(1 0 0 1 4.5064 39.8177)" class="st3 st4">2024: 44 hours</text>
<text transform="matrix(1 0 0 1 4.5064 51.8744)" class="st3 st5">Jan</text>
<path class="st6" d="M7.3,55.8H13c1.6,0,2.8,1.3,2.8,2.8v5.7c0,1.6-1.3,2.8-2.8,2.8H7.3c-1.6,0-2.8-1.3-2.8-2.8v-5.7
	C4.5,57.1,5.8,55.8,7.3,55.8z"/>
<path class="st6" d="M7.3,71.1H13c1.6,0,2.8,1.3,2.8,2.8v5.7c0,1.6-1.3,2.8-2.8,2.8H7.3c-1.6,0-2.8-1.3-2.8-2.8V74
	C4.5,72.4,5.8,71.1,7.3,71.1z"/>
<path class="st6" d="M7.3,86.5H13c1.6,0,2.8,1.3,2.8,2.8V95c0,1.6-1.3,2.8-2.8,2.8H7.3c-1.6,0-2.8-1.3-2.8-2.8v-5.7
	C4.5,87.7,5.8,86.5,7.3,86.5z"/>
<path class="st6" d="M7.3,101.8H13c1.6,0,2.8,1.3,2.8,2.8v5.7c0,1.6-1.3,2.8-2.8,2.8H7.3c-1.6,0-2.8-1.3-2.8-2.8v-5.7
	C4.5,103,5.8,101.8,7.3,101.8z"/>
<path class="st6" d="M7.3,117.1H13c1.6,0,2.8,1.3,2.8,2.8v5.7c0,1.6-1.3,2.8-2.8,2.8H7.3c-1.6,0-2.8-1.3-2.8-2.8v-5.7
	C4.5,118.3,5.8,117.1,7.3,117.1z"/>
<path class="st6" d="M7.3,132.4H13c1.6,0,2.8,1.3,2.8,2.8v5.7c0,1.6-1.3,2.8-2.8,2.8H7.3c-1.6,0-2.8-1.3-2.8-2.8v-5.7
	C4.5,133.6,5.8,132.4,7.3,132.4z"/>
<path class="st6" d="M7.3,147.7H13c1.6,0,2.8,1.3,2.8,2.8v5.7c0,1.6-1.3,2.8-2.8,2.8H7.3c-1.6,0-2.8-1.3-2.8-2.8v-5.7
	C4.5,149,5.8,147.7,7.3,147.7z"/>
<path class="st6" d="M22.6,55.8h5.7c1.6,0,2.8,1.3,2.8,2.8v5.7c0,1.6-1.3,2.8-2.8,2.8h-5.7c-1.6,0-2.8-1.3-2.8-2.8v-5.7
	C19.8,57.1,21.1,55.8,22.6,55.8z"/>
<path class="st6" d="M22.6,71.1h5.7c1.6,0,2.8,1.3,2.8,2.8v5.7c0,1.6-1.3,2.8-2.8,2.8h-5.7c-1.6,0-2.8-1.3-2.8-2.8V74
	C19.8,72.4,21.1,71.1,22.6,71.1z"/>
<path class="st6" d="M22.6,86.5h5.7c1.6,0,2.8,1.3,2.8,2.8V95c0,1.6-1.3,2.8-2.8,2.8h-5.7c-1.6,0-2.8-1.3-2.8-2.8v-5.7
	C19.8,87.7,21.1,86.5,22.6,86.5z"/>
<path class="st6" d="M22.6,101.8h5.7c1.6,0,2.8,1.3,2.8,2.8v5.7c0,1.6-1.3,2.8-2.8,2.8h-5.7c-1.6,0-2.8-1.3-2.8-2.8v-5.7
	C19.8,103,21.1,101.8,22.6,101.8z"/>
<path class="st6" d="M22.6,117.1h5.7c1.6,0,2.8,1.3,2.8,2.8v5.7c0,1.6-1.3,2.8-2.8,2.8h-5.7c-1.6,0-2.8-1.3-2.8-2.8v-5.7
	C19.8,118.3,21.1,117.1,22.6,117.1z"/>
<path class="st6" d="M22.6,132.4h5.7c1.6,0,2.8,1.3,2.8,2.8v5.7c0,1.6-1.3,2.8-2.8,2.8h-5.7c-1.6,0-2.8-1.3-2.8-2.8v-5.7
	C19.8,133.6,21.1,132.4,22.6,132.4z"/>
<path class="st6" d="M22.6,147.7h5.7c1.6,0,2.8,1.3,2.8,2.8v5.7c0,1.6-1.3,2.8-2.8,2.8h-5.7c-1.6,0-2.8-1.3-2.8-2.8v-5.7
	C19.8,149,21.1,147.7,22.6,147.7z"/>
<path class="st6" d="M38,55.8h5.7c1.6,0,2.8,1.3,2.8,2.8v5.7c0,1.6-1.3,2.8-2.8,2.8H38c-1.6,0-2.8-1.3-2.8-2.8v-5.7
	C35.1,57.1,36.4,55.8,38,55.8z"/>
<path class="st6" d="M38,71.1h5.7c1.6,0,2.8,1.3,2.8,2.8v5.7c0,1.6-1.3,2.8-2.8,2.8H38c-1.6,0-2.8-1.3-2.8-2.8V74
	C35.1,72.4,36.4,71.1,38,71.1z"/>
<path class="st6" d="M38,86.5h5.7c1.6,0,2.8,1.3,2.8,2.8V95c0,1.6-1.3,2.8-2.8,2.8H38c-1.6,0-2.8-1.3-2.8-2.8v-5.7
	C35.1,87.7,36.4,86.5,38,86.5z"/>
<path class="st6" d="M38,101.8h5.7c1.6,0,2.8,1.3,2.8,2.8v5.7c0,1.6-1.3,2.8-2.8,2.8H38c-1.6,0-2.8-1.3-2.8-2.8v-5.7
	C35.1,103,36.4,101.8,38,101.8z"/>
<path class="st6" d="M38,117.1h5.7c1.6,0,2.8,1.3,2.8,2.8v5.7c0,1.6-1.3,2.8-2.8,2.8H38c-1.6,0-2.8-1.3-2.8-2.8v-5.7
	C35.1,118.3,36.4,117.1,38,117.1z"/>
<path class="st6" d="M38,132.4h5.7c1.6,0,2.8,1.3,2.8,2.8v5.7c0,1.6-1.3,2.8-2.8,2.8H38c-1.6,0-2.8-1.3-2.8-2.8v-5.7
	C35.1,133.6,36.4,132.4,38,132.4z"/>
<path class="st6" d="M38,147.7h5.7c1.6,0,2.8,1.3,2.8,2.8v5.7c0,1.6-1.3,2.8-2.8,2.8H38c-1.6,0-2.8-1.3-2.8-2.8v-5.7
	C35.1,149,36.4,147.7,38,147.7z"/>
<path class="st6" d="M53.3,55.8h5.7c1.6,0,2.8,1.3,2.8,2.8v5.7c0,1.6-1.3,2.8-2.8,2.8h-5.7c-1.6,0-2.8-1.3-2.8-2.8v-5.7
	C50.4,57.1,51.7,55.8,53.3,55.8z"/>
<path class="st6" d="M53.3,71.1h5.7c1.6,0,2.8,1.3,2.8,2.8v5.7c0,1.6-1.3,2.8-2.8,2.8h-5.7c-1.6,0-2.8-1.3-2.8-2.8V74
	C50.4,72.4,51.7,71.1,53.3,71.1z"/>
<path class="st7" d="M53.3,86.5h5.7c1.6,0,2.8,1.3,2.8,2.8V95c0,1.6-1.3,2.8-2.8,2.8h-5.7c-1.6,0-2.8-1.3-2.8-2.8v-5.7
	C50.4,87.7,51.7,86.5,53.3,86.5z"/>
<path class="st6" d="M53.3,101.8h5.7c1.6,0,2.8,1.3,2.8,2.8v5.7c0,1.6-1.3,2.8-2.8,2.8h-5.7c-1.6,0-2.8-1.3-2.8-2.8v-5.7
	C50.4,103,51.7,101.8,53.3,101.8z"/>
<path class="st8" d="M53.3,117.1h5.7c1.6,0,2.8,1.3,2.8,2.8v5.7c0,1.6-1.3,2.8-2.8,2.8h-5.7c-1.6,0-2.8-1.3-2.8-2.8v-5.7
	C50.4,118.3,51.7,117.1,53.3,117.1z"/>
<path class="st6" d="M53.3,132.4h5.7c1.6,0,2.8,1.3,2.8,2.8v5.7c0,1.6-1.3,2.8-2.8,2.8h-5.7c-1.6,0-2.8-1.3-2.8-2.8v-5.7
	C50.4,133.6,51.7,132.4,53.3,132.4z"/>
<path class="st6" d="M53.3,147.7h5.7c1.6,0,2.8,1.3,2.8,2.8v5.7c0,1.6-1.3,2.8-2.8,2.8h-5.7c-1.6,0-2.8-1.3-2.8-2.8v-5.7
	C50.4,149,51.7,147.7,53.3,147.7z"/>
<path class="st6" d="M68.6,55.8h5.7c1.6,0,2.8,1.3,2.8,2.8v5.7c0,1.6-1.3,2.8-2.8,2.8h-5.7c-1.6,0-2.8-1.3-2.8-2.8v-5.7
	C65.7,57.1,67,55.8,68.6,55.8z"/>
<path class="st9" d="M68.6,71.1h5.7c1.6,0,2.8,1.3,2.8,2.8v5.7c0,1.6-1.3,2.8-2.8,2.8h-5.7c-1.6,0-2.8-1.3-2.8-2.8V74
	C65.7,72.4,67,71.1,68.6,71.1z"/>
<path class="st6" d="M68.6,86.5h5.7c1.6,0,2.8,1.3,2.8,2.8V95c0,1.6-1.3,2.8-2.8,2.8h-5.7c-1.6,0-2.8-1.3-2.8-2.8v-5.7
	C65.7,87.7,67,86.5,68.6,86.5z"/>
<path class="st6" d="M68.6,101.8h5.7c1.6,0,2.8,1.3,2.8,2.8v5.7c0,1.6-1.3,2.8-2.8,2.8h-5.7c-1.6,0-2.8-1.3-2.8-2.8v-5.7
	C65.7,103,67,101.8,68.6,101.8z"/>
<path class="st6" d="M68.6,117.1h5.7c1.6,0,2.8,1.3,2.8,2.8v5.7c0,1.6-1.3,2.8-2.8,2.8h-5.7c-1.6,0-2.8-1.3-2.8-2.8v-5.7
	C65.7,118.3,67,117.1,68.6,117.1z"/>
<path class="st6" d="M68.6,132.4h5.7c1.6,0,2.8,1.3,2.8,2.8v5.7c0,1.6-1.3,2.8-2.8,2.8h-5.7c-1.6,0-2.8-1.3-2.8-2.8v-5.7
	C65.7,133.6,67,132.4,68.6,132.4z"/>
<path class="st6" d="M68.6,147.7h5.7c1.6,0,2.8,1.3,2.8,2.8v5.7c0,1.6-1.3,2.8-2.8,2.8h-5.7c-1.6,0-2.8-1.3-2.8-2.8v-5.7
	C65.7,149,67,147.7,68.6,147.7z"/>
<text transform="matrix(1 0 0 1 81.0415 51.8744)" class="st3 st5">Feb</text>
<path class="st6" d="M83.9,55.8h5.7c1.6,0,2.8,1.3,2.8,2.8v5.7c0,1.6-1.3,2.8-2.8,2.8h-5.7c-1.6,0-2.8-1.3-2.8-2.8v-5.7
	C81,57.1,82.3,55.8,83.9,55.8z"/>
<path class="st6" d="M83.9,71.1h5.7c1.6,0,2.8,1.3,2.8,2.8v5.7c0,1.6-1.3,2.8-2.8,2.8h-5.7c-1.6,0-2.8-1.3-2.8-2.8V74
	C81,72.4,82.3,71.1,83.9,71.1z"/>
<path class="st6" d="M83.9,86.5h5.7c1.6,0,2.8,1.3,2.8,2.8V95c0,1.6-1.3,2.8-2.8,2.8h-5.7c-1.6,0-2.8-1.3-2.8-2.8v-5.7
	C81,87.7,82.3,86.5,83.9,86.5z"/>
<path class="st6" d="M83.9,101.8h5.7c1.6,0,2.8,1.3,2.8,2.8v5.7c0,1.6-1.3,2.8-2.8,2.8h-5.7c-1.6,0-2.8-1.3-2.8-2.8v-5.7
	C81,103,82.3,101.8,83.9,101.8z"/>
<path class="st6" d="M83.9,117.1h5.7c1.6,0,2.8,1.3,2.8,2.8v5.7c0,1.6-1.3,2.8-2.8,2.8h-5.7c-1.6,0-2.8-1.3-2.8-2.8v-5.7
	C81,118.3,82.3,117.1,83.9,117.1z"/>
<path class="st6" d="M83.9,132.4h5.7c1.6,0,2.8,1.3,2.8,2.8v5.7c0,1.6-1.3,2.8-2.8,2.8h-5.7c-1.6,0-2.8-1.3-2.8-2.8v-5.7
	C81,133.6,82.3,132.4,83.9,132.4z"/>
<path class="st6" d="M83.9,147.7h5.7c1.6,0,2.8,1.3,2.8,2.8v5.7c0,1.6-1.3,2.8-2.8,2.8h-5.7c-1.6,0-2.8-1.3-2.8-2.8v-5.7
	C81,149,82.3,147.7,83.9,147.7z"/>
<path class="st6" d="M99.2,55.8h5.7c1.6,0,2.8,1.3,2.8,2.8v5.7c0,1.6-1.3,2.8-2.8,2.8h-5.7c-1.6,0-2.8-1.3-2.8-2.8v-5.7
	C96.3,57.1,97.6,55.8,99.2,55.8z"/>
<path class="st6" d="M99.2,71.1h5.7c1.6,0,2.8,1.3,2.8,2.8v5.7c0,1.6-1.3,2.8-2.8,2.8h-5.7c-1.6,0-2.8-1.3-2.8-2.8V74
	C96.3,72.4,97.6,71.1,99.2,71.1z"/>
<path class="st6" d="M99.2,86.5h5.7c1.6,0,2.8,1.3,2.8,2.8V95c0,1.6-1.3,2.8-2.8,2.8h-5.7c-1.6,0-2.8-1.3-2.8-2.8v-5.7
	C96.3,87.7,97.6,86.5,99.2,86.5z"/>
<path class="st6" d="M99.2,101.8h5.7c1.6,0,2.8,1.3,2.8,2.8v5.7c0,1.6-1.3,2.8-2.8,2.8h-5.7c-1.6,0-2.8-1.3-2.8-2.8v-5.7
	C96.3,103,97.6,101.8,99.2,101.8z"/>
<path class="st6" d="M99.2,117.1h5.7c1.6,0,2.8,1.3,2.8,2.8v5.7c0,1.6-1.3,2.8-2.8,2.8h-5.7c-1.6,0-2.8-1.3-2.8-2.8v-5.7
	C96.3,118.3,97.6,117.1,99.2,117.1z"/>
<path class="st6" d="M99.2,132.4h5.7c1.6,0,2.8,1.3,2.8,2.8v5.7c0,1.6-1.3,2.8-2.8,2.8h-5.7c-1.6,0-2.8-1.3-2.8-2.8v-5.7
	C96.3,133.6,97.6,132.4,99.2,132.4z"/>
<path class="st6" d="M99.2,147.7h5.7c1.6,0,2.8,1.3,2.8,2.8v5.7c0,1.6-1.3,2.8-2.8,2.8h-5.7c-1.6,0-2.8-1.3-2.8-2.8v-5.7
	C96.3,149,97.6,147.7,99.2,147.7z"/>
<path class="st6" d="M114.5,55.8h5.7c1.6,0,2.8,1.3,2.8,2.8v5.7c0,1.6-1.3,2.8-2.8,2.8h-5.7c-1.6,0-2.8-1.3-2.8-2.8v-5.7
	C111.7,57.1,112.9,55.8,114.5,55.8z"/>
<path class="st6" d="M114.5,71.1h5.7c1.6,0,2.8,1.3,2.8,2.8v5.7c0,1.6-1.3,2.8-2.8,2.8h-5.7c-1.6,0-2.8-1.3-2.8-2.8V74
	C111.7,72.4,112.9,71.1,114.5,71.1z"/>
<path class="st6" d="M114.5,86.5h5.7c1.6,0,2.8,1.3,2.8,2.8V95c0,1.6-1.3,2.8-2.8,2.8h-5.7c-1.6,0-2.8-1.3-2.8-2.8v-5.7
	C111.7,87.7,112.9,86.5,114.5,86.5z"/>
<path class="st6" d="M114.5,101.8h5.7c1.6,0,2.8,1.3,2.8,2.8v5.7c0,1.6-1.3,2.8-2.8,2.8h-5.7c-1.6,0-2.8-1.3-2.8-2.8v-5.7
	C111.7,103,112.9,101.8,114.5,101.8z"/>
<path class="st6" d="M114.5,117.1h5.7c1.6,0,2.8,1.3,2.8,2.8v5.7c0,1.6-1.3,2.8-2.8,2.8h-5.7c-1.6,0-2.8-1.3-2.8-2.8v-5.7
	C111.7,118.3,112.9,117.1,114.5,117.1z"/>
<path class="st6" d="M114.5,132.4h5.7c1.6,0,2.8,1.3,2.8,2.8v5.7c0,1.6-1.3,2.8-2.8,2.8h-5.7c-1.6,0-2.8-1.3-2.8-2.8v-5.7
	C111.7,133.6,112.9,132.4,114.5,132.4z"/>
<path class="st6" d="M114.5,147.7h5.7c1.6,0,2.8,1.3,2.8,2.8v5.7c0,1.6-1.3,2.8-2.8,2.8h-5.7c-1.6,0-2.8-1.3-2.8-2.8v-5.7
	C111.7,149,112.9,147.7,114.5,147.7z"/>
<path class="st6" d="M129.8,55.8h5.7c1.6,0,2.8,1.3,2.8,2.8v5.7c0,1.6-1.3,2.8-2.8,2.8h-5.7c-1.6,0-2.8-1.3-2.8-2.8v-5.7
	C127,57.1,128.2,55.8,129.8,55.8z"/>
<path class="st6" d="M129.8,71.1h5.7c1.6,0,2.8,1.3,2.8,2.8v5.7c0,1.6-1.3,2.8-2.8,2.8h-5.7c-1.6,0-2.8-1.3-2.8-2.8V74
	C127,72.4,128.2,71.1,129.8,71.1z"/>
<path class="st6" d="M129.8,86.5h5.7c1.6,0,2.8,1.3,2.8,2.8V95c0,1.6-1.3,2.8-2.8,2.8h-5.7c-1.6,0-2.8-1.3-2.8-2.8v-5.7
	C127,87.7,128.2,86.5,129.8,86.5z"/>
<path class="st6" d="M129.8,101.8h5.7c1.6,0,2.8,1.3,2.8,2.8v5.7c0,1.6-1.3,2.8-2.8,2.8h-5.7c-1.6,0-2.8-1.3-2.8-2.8v-5.7
	C127,103,128.2,101.8,129.8,101.8z"/>
<path class="st6" d="M129.8,117.1h5.7c1.6,0,2.8,1.3,2.8,2.8v5.7c0,1.6-1.3,2.8-2.8,2.8h-5.7c-1.6,0-2.8-1.3-2.8-2.8v-5.7
	C127,118.3,128.2,117.1,129.8,117.1z"/>
<path class="st6" d="M129.8,132.4h5.7c1.6,0,2.8,1.3,2.8,2.8v5.7c0,1.6-1.3,2.8-2.8,2.8h-5.7c-1.6,0-2.8-1.3-2.8-2.8v-5.7
	C127,133.6,128.2,132.4,129.8,132.4z"/>
<path class="st6" d="M129.8,147.7h5.7c1.6,0,2.8,1.3,2.8,2.8v5.7c0,1.6-1.3,2.8-2.8,2.8h-5.7c-1.6,0-2.8-1.3-2.8-2.8v-5.7
	C127,149,128.2,147.7,129.8,147.7z"/>
<text transform="matrix(1 0 0 1 142.27 51.8744)" class="st3 st5">Mar</text>
<path class="st6" d="M145.1,55.8h5.7c1.6,0,2.8,1.3,2.8,2.8v5.7c0,1.6-1.3,2.8-2.8,2.8h-5.7c-1.6,0-2.8-1.3-2.8-2.8v-5.7
	C142.3,57.1,143.5,55.8,145.1,55.8z"/>
<path class="st10" d="M145.1,71.1h5.7c1.6,0,2.8,1.3,2.8,2.8v5.7c0,1.6-1.3,2.8-2.8,2.8h-5.7c-1.6,0-2.8-1.3-2.8-2.8V74
	C142.3,72.4,143.5,71.1,145.1,71.1z"/>
<path class="st10" d="M145.1,86.5h5.7c1.6,0,2.8,1.3,2.8,2.8V95c0,1.6-1.3,2.8-2.8,2.8h-5.7c-1.6,0-2.8-1.3-2.8-2.8v-5.7
	C142.3,87.7,143.5,86.5,145.1,86.5z"/>
<path class="st7" d="M145.1,101.8h5.7c1.6,0,2.8,1.3,2.8,2.8v5.7c0,1.6-1.3,2.8-2.8,2.8h-5.7c-1.6,0-2.8-1.3-2.8-2.8v-5.7
	C142.3,103,143.5,101.8,145.1,101.8z"/>
<path class="st11" d="M145.1,117.1h5.7c1.6,0,2.8,1.3,2.8,2.8v5.7c0,1.6-1.3,2.8-2.8,2.8h-5.7c-1.6,0-2.8-1.3-2.8-2.8v-5.7
	C142.3,118.3,143.5,117.1,145.1,117.1z"/>
<path class="st6" d="M145.1,132.4h5.7c1.6,0,2.8,1.3,2.8,2.8v5.7c0,1.6-1.3,2.8-2.8,2.8h-5.7c-1.6,0-2.8-1.3-2.8-2.8v-5.7
	C142.3,133.6,143.5,132.4,145.1,132.4z"/>
<path class="st6" d="M145.1,147.7h5.7c1.6,0,2.8,1.3,2.8,2.8v5.7c0,1.6-1.3,2.8-2.8,2.8h-5.7c-1.6,0-2.8-1.3-2.8-2.8v-5.7
	C142.3,149,143.5,147.7,145.1,147.7z"/>
<path class="st12" d="M160.4,55.8h5.7c1.6,0,2.8,1.3,2.8,2.8v5.7c0,1.6-1.3,2.8-2.8,2.8h-5.7c-1.6,0-2.8-1.3-2.8-2.8v-5.7
	C157.6,57.1,158.8,55.8,160.4,55.8z"/>
<path class="st9" d="M160.4,71.1h5.7c1.6,0,2.8,1.3,2.8,2.8v5.7c0,1.6-1.3,2.8-2.8,2.8h-5.7c-1.6,0-2.8-1.3-2.8-2.8V74
	C157.6,72.4,158.8,71.1,160.4,71.1z"/>
<path class="st13" d="M160.4,86.5h5.7c1.6,0,2.8,1.3,2.8,2.8V95c0,1.6-1.3,2.8-2.8,2.8h-5.7c-1.6,0-2.8-1.3-2.8-2.8v-5.7
	C157.6,87.7,158.8,86.5,160.4,86.5z"/>
<path class="st14" d="M160.4,101.8h5.7c1.6,0,2.8,1.3,2.8,2.8v5.7c0,1.6-1.3,2.8-2.8,2.8h-5.7c-1.6,0-2.8-1.3-2.8-2.8v-5.7
	C157.6,103,158.8,101.8,160.4,101.8z"/>
<path class="st6" d="M160.4,117.1h5.7c1.6,0,2.8,1.3,2.8,2.8v5.7c0,1.6-1.3,2.8-2.8,2.8h-5.7c-1.6,0-2.8-1.3-2.8-2.8v-5.7
	C157.6,118.3,158.8,117.1,160.4,117.1z"/>
<path class="st6" d="M160.4,132.4h5.7c1.6,0,2.8,1.3,2.8,2.8v5.7c0,1.6-1.3,2.8-2.8,2.8h-5.7c-1.6,0-2.8-1.3-2.8-2.8v-5.7
	C157.6,133.6,158.8,132.4,160.4,132.4z"/>
<path class="st9" d="M160.4,147.7h5.7c1.6,0,2.8,1.3,2.8,2.8v5.7c0,1.6-1.3,2.8-2.8,2.8h-5.7c-1.6,0-2.8-1.3-2.8-2.8v-5.7
	C157.6,149,158.8,147.7,160.4,147.7z"/>
<path class="st6" d="M175.7,55.8h5.7c1.6,0,2.8,1.3,2.8,2.8v5.7c0,1.6-1.3,2.8-2.8,2.8h-5.7c-1.6,0-2.8-1.3-2.8-2.8v-5.7
	C172.9,57.1,174.2,55.8,175.7,55.8z"/>
<path class="st6" d="M175.7,71.1h5.7c1.6,0,2.8,1.3,2.8,2.8v5.7c0,1.6-1.3,2.8-2.8,2.8h-5.7c-1.6,0-2.8-1.3-2.8-2.8V74
	C172.9,72.4,174.2,71.1,175.7,71.1z"/>
<path class="st6" d="M175.7,86.5h5.7c1.6,0,2.8,1.3,2.8,2.8V95c0,1.6-1.3,2.8-2.8,2.8h-5.7c-1.6,0-2.8-1.3-2.8-2.8v-5.7
	C172.9,87.7,174.2,86.5,175.7,86.5z"/>
<path class="st15" d="M175.7,101.8h5.7c1.6,0,2.8,1.3,2.8,2.8v5.7c0,1.6-1.3,2.8-2.8,2.8h-5.7c-1.6,0-2.8-1.3-2.8-2.8v-5.7
	C172.9,103,174.2,101.8,175.7,101.8z"/>
<path class="st6" d="M175.7,117.1h5.7c1.6,0,2.8,1.3,2.8,2.8v5.7c0,1.6-1.3,2.8-2.8,2.8h-5.7c-1.6,0-2.8-1.3-2.8-2.8v-5.7
	C172.9,118.3,174.2,117.1,175.7,117.1z"/>
<path class="st6" d="M175.7,132.4h5.7c1.6,0,2.8,1.3,2.8,2.8v5.7c0,1.6-1.3,2.8-2.8,2.8h-5.7c-1.6,0-2.8-1.3-2.8-2.8v-5.7
	C172.9,133.6,174.2,132.4,175.7,132.4z"/>
<path class="st6" d="M175.7,147.7h5.7c1.6,0,2.8,1.3,2.8,2.8v5.7c0,1.6-1.3,2.8-2.8,2.8h-5.7c-1.6,0-2.8-1.3-2.8-2.8v-5.7
	C172.9,149,174.2,147.7,175.7,147.7z"/>
<path class="st6" d="M191,55.8h5.7c1.6,0,2.8,1.3,2.8,2.8v5.7c0,1.6-1.3,2.8-2.8,2.8H191c-1.6,0-2.8-1.3-2.8-2.8v-5.7
	C188.2,57.1,189.5,55.8,191,55.8z"/>
<path class="st6" d="M191,71.1h5.7c1.6,0,2.8,1.3,2.8,2.8v5.7c0,1.6-1.3,2.8-2.8,2.8H191c-1.6,0-2.8-1.3-2.8-2.8V74
	C188.2,72.4,189.5,71.1,191,71.1z"/>
<path class="st16" d="M191,86.5h5.7c1.6,0,2.8,1.3,2.8,2.8V95c0,1.6-1.3,2.8-2.8,2.8H191c-1.6,0-2.8-1.3-2.8-2.8v-5.7
	C188.2,87.7,189.5,86.5,191,86.5z"/>
<path class="st6" d="M191,101.8h5.7c1.6,0,2.8,1.3,2.8,2.8v5.7c0,1.6-1.3,2.8-2.8,2.8H191c-1.6,0-2.8-1.3-2.8-2.8v-5.7
	C188.2,103,189.5,101.8,191,101.8z"/>
<path class="st6" d="M191,117.1h5.7c1.6,0,2.8,1.3,2.8,2.8v5.7c0,1.6-1.3,2.8-2.8,2.8H191c-1.6,0-2.8-1.3-2.8-2.8v-5.7
	C188.2,118.3,189.5,117.1,191,117.1z"/>
<path class="st6" d="M191,132.4h5.7c1.6,0,2.8,1.3,2.8,2.8v5.7c0,1.6-1.3,2.8-2.8,2.8H191c-1.6,0-2.8-1.3-2.8-2.8v-5.7
	C188.2,133.6,189.5,132.4,191,132.4z"/>
<path class="st6" d="M191,147.7h5.7c1.6,0,2.8,1.3,2.8,2.8v5.7c0,1.6-1.3,2.8-2.8,2.8H191c-1.6,0-2.8-1.3-2.8-2.8v-5.7
	C188.2,149,189.5,147.7,191,147.7z"/>
<text transform="matrix(1 0 0 1 203.4976 51.8744)" class="st3 st5">Apr</text>
<path class="st6" d="M206.3,55.8h5.7c1.6,0,2.8,1.3,2.8,2.8v5.7c0,1.6-1.3,2.8-2.8,2.8h-5.7c-1.6,0-2.8-1.3-2.8-2.8v-5.7
	C203.5,57.1,204.8,55.8,206.3,55.8z"/>
<path class="st6" d="M206.3,71.1h5.7c1.6,0,2.8,1.3,2.8,2.8v5.7c0,1.6-1.3,2.8-2.8,2.8h-5.7c-1.6,0-2.8-1.3-2.8-2.8V74
	C203.5,72.4,204.8,71.1,206.3,71.1z"/>
<path class="st6" d="M206.3,86.5h5.7c1.6,0,2.8,1.3,2.8,2.8V95c0,1.6-1.3,2.8-2.8,2.8h-5.7c-1.6,0-2.8-1.3-2.8-2.8v-5.7
	C203.5,87.7,204.8,86.5,206.3,86.5z"/>
<path class="st6" d="M206.3,101.8h5.7c1.6,0,2.8,1.3,2.8,2.8v5.7c0,1.6-1.3,2.8-2.8,2.8h-5.7c-1.6,0-2.8-1.3-2.8-2.8v-5.7
	C203.5,103,204.8,101.8,206.3,101.8z"/>
<path class="st6" d="M206.3,117.1h5.7c1.6,0,2.8,1.3,2.8,2.8v5.7c0,1.6-1.3,2.8-2.8,2.8h-5.7c-1.6,0-2.8-1.3-2.8-2.8v-5.7
	C203.5,118.3,204.8,117.1,206.3,117.1z"/>
<path class="st6" d="M206.3,132.4h5.7c1.6,0,2.8,1.3,2.8,2.8v5.7c0,1.6-1.3,2.8-2.8,2.8h-5.7c-1.6,0-2.8-1.3-2.8-2.8v-5.7
	C203.5,133.6,204.8,132.4,206.3,132.4z"/>
<path class="st6" d="M206.3,147.7h5.7c1.6,0,2.8,1.3,2.8,2.8v5.7c0,1.6-1.3,2.8-2.8,2.8h-5.7c-1.6,0-2.8-1.3-2.8-2.8v-5.7
	C203.5,149,204.8,147.7,206.3,147.7z"/>
<path class="st6" d="M221.6,55.8h5.7c1.6,0,2.8,1.3,2.8,2.8v5.7c0,1.6-1.3,2.8-2.8,2.8h-5.7c-1.6,0-2.8-1.3-2.8-2.8v-5.7
	C218.8,57.1,220.1,55.8,221.6,55.8z"/>
<path class="st6" d="M221.6,71.1h5.7c1.6,0,2.8,1.3,2.8,2.8v5.7c0,1.6-1.3,2.8-2.8,2.8h-5.7c-1.6,0-2.8-1.3-2.8-2.8V74
	C218.8,72.4,220.1,71.1,221.6,71.1z"/>
<path class="st6" d="M221.6,86.5h5.7c1.6,0,2.8,1.3,2.8,2.8V95c0,1.6-1.3,2.8-2.8,2.8h-5.7c-1.6,0-2.8-1.3-2.8-2.8v-5.7
	C218.8,87.7,220.1,86.5,221.6,86.5z"/>
<path class="st16" d="M221.6,101.8h5.7c1.6,0,2.8,1.3,2.8,2.8v5.7c0,1.6-1.3,2.8-2.8,2.8h-5.7c-1.6,0-2.8-1.3-2.8-2.8v-5.7
	C218.8,103,220.1,101.8,221.6,101.8z"/>
<path class="st6" d="M221.6,117.1h5.7c1.6,0,2.8,1.3,2.8,2.8v5.7c0,1.6-1.3,2.8-2.8,2.8h-5.7c-1.6,0-2.8-1.3-2.8-2.8v-5.7
	C218.8,118.3,220.1,117.1,221.6,117.1z"/>
<path class="st6" d="M221.6,132.4h5.7c1.6,0,2.8,1.3,2.8,2.8v5.7c0,1.6-1.3,2.8-2.8,2.8h-5.7c-1.6,0-2.8-1.3-2.8-2.8v-5.7
	C218.8,133.6,220.1,132.4,221.6,132.4z"/>
<path class="st6" d="M221.6,147.7h5.7c1.6,0,2.8,1.3,2.8,2.8v5.7c0,1.6-1.3,2.8-2.8,2.8h-5.7c-1.6,0-2.8-1.3-2.8-2.8v-5.7
	C218.8,149,220.1,147.7,221.6,147.7z"/>
<path class="st6" d="M236.9,55.8h5.7c1.6,0,2.8,1.3,2.8,2.8v5.7c0,1.6-1.3,2.8-2.8,2.8h-5.7c-1.6,0-2.8-1.3-2.8-2.8v-5.7
	C234.1,57.1,235.4,55.8,236.9,55.8z"/>
<path class="st6" d="M236.9,71.1h5.7c1.6,0,2.8,1.3,2.8,2.8v5.7c0,1.6-1.3,2.8-2.8,2.8h-5.7c-1.6,0-2.8-1.3-2.8-2.8V74
	C234.1,72.4,235.4,71.1,236.9,71.1z"/>
<path class="st6" d="M236.9,86.5h5.7c1.6,0,2.8,1.3,2.8,2.8V95c0,1.6-1.3,2.8-2.8,2.8h-5.7c-1.6,0-2.8-1.3-2.8-2.8v-5.7
	C234.1,87.7,235.4,86.5,236.9,86.5z"/>
<path class="st6" d="M236.9,101.8h5.7c1.6,0,2.8,1.3,2.8,2.8v5.7c0,1.6-1.3,2.8-2.8,2.8h-5.7c-1.6,0-2.8-1.3-2.8-2.8v-5.7
	C234.1,103,235.4,101.8,236.9,101.8z"/>
<path class="st6" d="M236.9,117.1h5.7c1.6,0,2.8,1.3,2.8,2.8v5.7c0,1.6-1.3,2.8-2.8,2.8h-5.7c-1.6,0-2.8-1.3-2.8-2.8v-5.7
	C234.1,118.3,235.4,117.1,236.9,117.1z"/>
<path class="st6" d="M236.9,132.4h5.7c1.6,0,2.8,1.3,2.8,2.8v5.7c0,1.6-1.3,2.8-2.8,2.8h-5.7c-1.6,0-2.8-1.3-2.8-2.8v-5.7
	C234.1,133.6,235.4,132.4,236.9,132.4z"/>
<path class="st6" d="M236.9,147.7h5.7c1.6,0,2.8,1.3,2.8,2.8v5.7c0,1.6-1.3,2.8-2.8,2.8h-5.7c-1.6,0-2.8-1.3-2.8-2.8v-5.7
	C234.1,149,235.4,147.7,236.9,147.7z"/>
<path class="st6" d="M252.3,55.8h5.7c1.6,0,2.8,1.3,2.8,2.8v5.7c0,1.6-1.3,2.8-2.8,2.8h-5.7c-1.6,0-2.8-1.3-2.8-2.8v-5.7
	C249.4,57.1,250.7,55.8,252.3,55.8z"/>
<path class="st6" d="M252.3,71.1h5.7c1.6,0,2.8,1.3,2.8,2.8v5.7c0,1.6-1.3,2.8-2.8,2.8h-5.7c-1.6,0-2.8-1.3-2.8-2.8V74
	C249.4,72.4,250.7,71.1,252.3,71.1z"/>
<path class="st6" d="M252.3,86.5h5.7c1.6,0,2.8,1.3,2.8,2.8V95c0,1.6-1.3,2.8-2.8,2.8h-5.7c-1.6,0-2.8-1.3-2.8-2.8v-5.7
	C249.4,87.7,250.7,86.5,252.3,86.5z"/>
<path class="st6" d="M252.3,101.8h5.7c1.6,0,2.8,1.3,2.8,2.8v5.7c0,1.6-1.3,2.8-2.8,2.8h-5.7c-1.6,0-2.8-1.3-2.8-2.8v-5.7
	C249.4,103,250.7,101.8,252.3,101.8z"/>
<path class="st6" d="M252.3,117.1h5.7c1.6,0,2.8,1.3,2.8,2.8v5.7c0,1.6-1.3,2.8-2.8,2.8h-5.7c-1.6,0-2.8-1.3-2.8-2.8v-5.7
	C249.4,118.3,250.7,117.1,252.3,117.1z"/>
<path class="st6" d="M252.3,132.4h5.7c1.6,0,2.8,1.3,2.8,2.8v5.7c0,1.6-1.3,2.8-2.8,2.8h-5.7c-1.6,0-2.8-1.3-2.8-2.8v-5.7
	C249.4,133.6,250.7,132.4,252.3,132.4z"/>
<path class="st6" d="M252.3,147.7h5.7c1.6,0,2.8,1.3,2.8,2.8v5.7c0,1.6-1.3,2.8-2.8,2.8h-5.7c-1.6,0-2.8-1.3-2.8-2.8v-5.7
	C249.4,149,250.7,147.7,252.3,147.7z"/>
<path class="st6" d="M267.6,55.8h5.7c1.6,0,2.8,1.3,2.8,2.8v5.7c0,1.6-1.3,2.8-2.8,2.8h-5.7c-1.6,0-2.8-1.3-2.8-2.8v-5.7
	C264.7,57.1,266,55.8,267.6,55.8z"/>
<path class="st6" d="M267.6,71.1h5.7c1.6,0,2.8,1.3,2.8,2.8v5.7c0,1.6-1.3,2.8-2.8,2.8h-5.7c-1.6,0-2.8-1.3-2.8-2.8V74
	C264.7,72.4,266,71.1,267.6,71.1z"/>
<path class="st6" d="M267.6,86.5h5.7c1.6,0,2.8,1.3,2.8,2.8V95c0,1.6-1.3,2.8-2.8,2.8h-5.7c-1.6,0-2.8-1.3-2.8-2.8v-5.7
	C264.7,87.7,266,86.5,267.6,86.5z"/>
<path class="st6" d="M267.6,101.8h5.7c1.6,0,2.8,1.3,2.8,2.8v5.7c0,1.6-1.3,2.8-2.8,2.8h-5.7c-1.6,0-2.8-1.3-2.8-2.8v-5.7
	C264.7,103,266,101.8,267.6,101.8z"/>
<path class="st6" d="M267.6,117.1h5.7c1.6,0,2.8,1.3,2.8,2.8v5.7c0,1.6-1.3,2.8-2.8,2.8h-5.7c-1.6,0-2.8-1.3-2.8-2.8v-5.7
	C264.7,118.3,266,117.1,267.6,117.1z"/>
<path class="st6" d="M267.6,132.4h5.7c1.6,0,2.8,1.3,2.8,2.8v5.7c0,1.6-1.3,2.8-2.8,2.8h-5.7c-1.6,0-2.8-1.3-2.8-2.8v-5.7
	C264.7,133.6,266,132.4,267.6,132.4z"/>
<path class="st6" d="M267.6,147.7h5.7c1.6,0,2.8,1.3,2.8,2.8v5.7c0,1.6-1.3,2.8-2.8,2.8h-5.7c-1.6,0-2.8-1.3-2.8-2.8v-5.7
	C264.7,149,266,147.7,267.6,147.7z"/>
<text transform="matrix(1 0 0 1 280.0337 51.8744)" class="st3 st5">May</text>
<path class="st6" d="M282.9,55.8h5.7c1.6,0,2.8,1.3,2.8,2.8v5.7c0,1.6-1.3,2.8-2.8,2.8h-5.7c-1.6,0-2.8-1.3-2.8-2.8v-5.7
	C280,57.1,281.3,55.8,282.9,55.8z"/>
<path class="st6" d="M282.9,71.1h5.7c1.6,0,2.8,1.3,2.8,2.8v5.7c0,1.6-1.3,2.8-2.8,2.8h-5.7c-1.6,0-2.8-1.3-2.8-2.8V74
	C280,72.4,281.3,71.1,282.9,71.1z"/>
<path class="st6" d="M282.9,86.5h5.7c1.6,0,2.8,1.3,2.8,2.8V95c0,1.6-1.3,2.8-2.8,2.8h-5.7c-1.6,0-2.8-1.3-2.8-2.8v-5.7
	C280,87.7,281.3,86.5,282.9,86.5z"/>
<path class="st6" d="M282.9,101.8h5.7c1.6,0,2.8,1.3,2.8,2.8v5.7c0,1.6-1.3,2.8-2.8,2.8h-5.7c-1.6,0-2.8-1.3-2.8-2.8v-5.7
	C280,103,281.3,101.8,282.9,101.8z"/>
<path class="st6" d="M282.9,117.1h5.7c1.6,0,2.8,1.3,2.8,2.8v5.7c0,1.6-1.3,2.8-2.8,2.8h-5.7c-1.6,0-2.8-1.3-2.8-2.8v-5.7
	C280,118.3,281.3,117.1,282.9,117.1z"/>
<path class="st6" d="M282.9,132.4h5.7c1.6,0,2.8,1.3,2.8,2.8v5.7c0,1.6-1.3,2.8-2.8,2.8h-5.7c-1.6,0-2.8-1.3-2.8-2.8v-5.7
	C280,133.6,281.3,132.4,282.9,132.4z"/>
<path class="st6" d="M282.9,147.7h5.7c1.6,0,2.8,1.3,2.8,2.8v5.7c0,1.6-1.3,2.8-2.8,2.8h-5.7c-1.6,0-2.8-1.3-2.8-2.8v-5.7
	C280,149,281.3,147.7,282.9,147.7z"/>
<path class="st6" d="M298.2,55.8h5.7c1.6,0,2.8,1.3,2.8,2.8v5.7c0,1.6-1.3,2.8-2.8,2.8h-5.7c-1.6,0-2.8-1.3-2.8-2.8v-5.7
	C295.3,57.1,296.6,55.8,298.2,55.8z"/>
<path class="st6" d="M298.2,71.1h5.7c1.6,0,2.8,1.3,2.8,2.8v5.7c0,1.6-1.3,2.8-2.8,2.8h-5.7c-1.6,0-2.8-1.3-2.8-2.8V74
	C295.3,72.4,296.6,71.1,298.2,71.1z"/>
<path class="st6" d="M298.2,86.5h5.7c1.6,0,2.8,1.3,2.8,2.8V95c0,1.6-1.3,2.8-2.8,2.8h-5.7c-1.6,0-2.8-1.3-2.8-2.8v-5.7
	C295.3,87.7,296.6,86.5,298.2,86.5z"/>
<path class="st16" d="M298.2,101.8h5.7c1.6,0,2.8,1.3,2.8,2.8v5.7c0,1.6-1.3,2.8-2.8,2.8h-5.7c-1.6,0-2.8-1.3-2.8-2.8v-5.7
	C295.3,103,296.6,101.8,298.2,101.8z"/>
<path class="st6" d="M298.2,117.1h5.7c1.6,0,2.8,1.3,2.8,2.8v5.7c0,1.6-1.3,2.8-2.8,2.8h-5.7c-1.6,0-2.8-1.3-2.8-2.8v-5.7
	C295.3,118.3,296.6,117.1,298.2,117.1z"/>
<path class="st6" d="M298.2,132.4h5.7c1.6,0,2.8,1.3,2.8,2.8v5.7c0,1.6-1.3,2.8-2.8,2.8h-5.7c-1.6,0-2.8-1.3-2.8-2.8v-5.7
	C295.3,133.6,296.6,132.4,298.2,132.4z"/>
<path class="st6" d="M298.2,147.7h5.7c1.6,0,2.8,1.3,2.8,2.8v5.7c0,1.6-1.3,2.8-2.8,2.8h-5.7c-1.6,0-2.8-1.3-2.8-2.8v-5.7
	C295.3,149,296.6,147.7,298.2,147.7z"/>
<path class="st6" d="M313.5,55.8h5.7c1.6,0,2.8,1.3,2.8,2.8v5.7c0,1.6-1.3,2.8-2.8,2.8h-5.7c-1.6,0-2.8-1.3-2.8-2.8v-5.7
	C310.6,57.1,311.9,55.8,313.5,55.8z"/>
<path class="st6" d="M313.5,71.1h5.7c1.6,0,2.8,1.3,2.8,2.8v5.7c0,1.6-1.3,2.8-2.8,2.8h-5.7c-1.6,0-2.8-1.3-2.8-2.8V74
	C310.6,72.4,311.9,71.1,313.5,71.1z"/>
<path class="st6" d="M313.5,86.5h5.7c1.6,0,2.8,1.3,2.8,2.8V95c0,1.6-1.3,2.8-2.8,2.8h-5.7c-1.6,0-2.8-1.3-2.8-2.8v-5.7
	C310.6,87.7,311.9,86.5,313.5,86.5z"/>
<path class="st17" d="M313.5,101.8h5.7c1.6,0,2.8,1.3,2.8,2.8v5.7c0,1.6-1.3,2.8-2.8,2.8h-5.7c-1.6,0-2.8-1.3-2.8-2.8v-5.7
	C310.6,103,311.9,101.8,313.5,101.8z"/>
<path class="st15" d="M313.5,117.1h5.7c1.6,0,2.8,1.3,2.8,2.8v5.7c0,1.6-1.3,2.8-2.8,2.8h-5.7c-1.6,0-2.8-1.3-2.8-2.8v-5.7
	C310.6,118.3,311.9,117.1,313.5,117.1z"/>
<path class="st6" d="M313.5,132.4h5.7c1.6,0,2.8,1.3,2.8,2.8v5.7c0,1.6-1.3,2.8-2.8,2.8h-5.7c-1.6,0-2.8-1.3-2.8-2.8v-5.7
	C310.6,133.6,311.9,132.4,313.5,132.4z"/>
<path class="st6" d="M313.5,147.7h5.7c1.6,0,2.8,1.3,2.8,2.8v5.7c0,1.6-1.3,2.8-2.8,2.8h-5.7c-1.6,0-2.8-1.3-2.8-2.8v-5.7
	C310.6,149,311.9,147.7,313.5,147.7z"/>
<path class="st6" d="M328.8,55.8h5.7c1.6,0,2.8,1.3,2.8,2.8v5.7c0,1.6-1.3,2.8-2.8,2.8h-5.7c-1.6,0-2.8-1.3-2.8-2.8v-5.7
	C326,57.1,327.2,55.8,328.8,55.8z"/>
<path class="st6" d="M328.8,71.1h5.7c1.6,0,2.8,1.3,2.8,2.8v5.7c0,1.6-1.3,2.8-2.8,2.8h-5.7c-1.6,0-2.8-1.3-2.8-2.8V74
	C326,72.4,327.2,71.1,328.8,71.1z"/>
<path class="st6" d="M328.8,86.5h5.7c1.6,0,2.8,1.3,2.8,2.8V95c0,1.6-1.3,2.8-2.8,2.8h-5.7c-1.6,0-2.8-1.3-2.8-2.8v-5.7
	C326,87.7,327.2,86.5,328.8,86.5z"/>
<path class="st6" d="M328.8,101.8h5.7c1.6,0,2.8,1.3,2.8,2.8v5.7c0,1.6-1.3,2.8-2.8,2.8h-5.7c-1.6,0-2.8-1.3-2.8-2.8v-5.7
	C326,103,327.2,101.8,328.8,101.8z"/>
<path class="st6" d="M328.8,117.1h5.7c1.6,0,2.8,1.3,2.8,2.8v5.7c0,1.6-1.3,2.8-2.8,2.8h-5.7c-1.6,0-2.8-1.3-2.8-2.8v-5.7
	C326,118.3,327.2,117.1,328.8,117.1z"/>
<path class="st6" d="M328.8,132.4h5.7c1.6,0,2.8,1.3,2.8,2.8v5.7c0,1.6-1.3,2.8-2.8,2.8h-5.7c-1.6,0-2.8-1.3-2.8-2.8v-5.7
	C326,133.6,327.2,132.4,328.8,132.4z"/>
<path class="st6" d="M328.8,147.7h5.7c1.6,0,2.8,1.3,2.8,2.8v5.7c0,1.6-1.3,2.8-2.8,2.8h-5.7c-1.6,0-2.8-1.3-2.8-2.8v-5.7
	C326,149,327.2,147.7,328.8,147.7z"/>
<text transform="matrix(1 0 0 1 341.2622 51.8744)" class="st3 st5">Jun</text>
<path class="st18" d="M344.1,55.8h5.7c1.6,0,2.8,1.3,2.8,2.8v5.7c0,1.6-1.3,2.8-2.8,2.8h-5.7c-1.6,0-2.8-1.3-2.8-2.8v-5.7
	C341.3,57.1,342.5,55.8,344.1,55.8z"/>
<path class="st16" d="M344.1,71.1h5.7c1.6,0,2.8,1.3,2.8,2.8v5.7c0,1.6-1.3,2.8-2.8,2.8h-5.7c-1.6,0-2.8-1.3-2.8-2.8V74
	C341.3,72.4,342.5,71.1,344.1,71.1z"/>
<path class="st9" d="M344.1,86.5h5.7c1.6,0,2.8,1.3,2.8,2.8V95c0,1.6-1.3,2.8-2.8,2.8h-5.7c-1.6,0-2.8-1.3-2.8-2.8v-5.7
	C341.3,87.7,342.5,86.5,344.1,86.5z"/>
<path class="st6" d="M344.1,101.8h5.7c1.6,0,2.8,1.3,2.8,2.8v5.7c0,1.6-1.3,2.8-2.8,2.8h-5.7c-1.6,0-2.8-1.3-2.8-2.8v-5.7
	C341.3,103,342.5,101.8,344.1,101.8z"/>
<path class="st6" d="M344.1,117.1h5.7c1.6,0,2.8,1.3,2.8,2.8v5.7c0,1.6-1.3,2.8-2.8,2.8h-5.7c-1.6,0-2.8-1.3-2.8-2.8v-5.7
	C341.3,118.3,342.5,117.1,344.1,117.1z"/>
<path class="st6" d="M344.1,132.4h5.7c1.6,0,2.8,1.3,2.8,2.8v5.7c0,1.6-1.3,2.8-2.8,2.8h-5.7c-1.6,0-2.8-1.3-2.8-2.8v-5.7
	C341.3,133.6,342.5,132.4,344.1,132.4z"/>
<path class="st6" d="M344.1,147.7h5.7c1.6,0,2.8,1.3,2.8,2.8v5.7c0,1.6-1.3,2.8-2.8,2.8h-5.7c-1.6,0-2.8-1.3-2.8-2.8v-5.7
	C341.3,149,342.5,147.7,344.1,147.7z"/>
<path class="st6" d="M359.4,55.8h5.7c1.6,0,2.8,1.3,2.8,2.8v5.7c0,1.6-1.3,2.8-2.8,2.8h-5.7c-1.6,0-2.8-1.3-2.8-2.8v-5.7
	C356.6,57.1,357.8,55.8,359.4,55.8z"/>
<path class="st6" d="M359.4,71.1h5.7c1.6,0,2.8,1.3,2.8,2.8v5.7c0,1.6-1.3,2.8-2.8,2.8h-5.7c-1.6,0-2.8-1.3-2.8-2.8V74
	C356.6,72.4,357.8,71.1,359.4,71.1z"/>
<path class="st6" d="M359.4,86.5h5.7c1.6,0,2.8,1.3,2.8,2.8V95c0,1.6-1.3,2.8-2.8,2.8h-5.7c-1.6,0-2.8-1.3-2.8-2.8v-5.7
	C356.6,87.7,357.8,86.5,359.4,86.5z"/>
<path class="st6" d="M359.4,101.8h5.7c1.6,0,2.8,1.3,2.8,2.8v5.7c0,1.6-1.3,2.8-2.8,2.8h-5.7c-1.6,0-2.8-1.3-2.8-2.8v-5.7
	C356.6,103,357.8,101.8,359.4,101.8z"/>
<path class="st9" d="M359.4,117.1h5.7c1.6,0,2.8,1.3,2.8,2.8v5.7c0,1.6-1.3,2.8-2.8,2.8h-5.7c-1.6,0-2.8-1.3-2.8-2.8v-5.7
	C356.6,118.3,357.8,117.1,359.4,117.1z"/>
<path class="st19" d="M359.4,132.4h5.7c1.6,0,2.8,1.3,2.8,2.8v5.7c0,1.6-1.3,2.8-2.8,2.8h-5.7c-1.6,0-2.8-1.3-2.8-2.8v-5.7
	C356.6,133.6,357.8,132.4,359.4,132.4z"/>
<path class="st16" d="M359.4,147.7h5.7c1.6,0,2.8,1.3,2.8,2.8v5.7c0,1.6-1.3,2.8-2.8,2.8h-5.7c-1.6,0-2.8-1.3-2.8-2.8v-5.7
	C356.6,149,357.8,147.7,359.4,147.7z"/>
<path class="st9" d="M374.7,55.8h5.7c1.6,0,2.8,1.3,2.8,2.8v5.7c0,1.6-1.3,2.8-2.8,2.8h-5.7c-1.6,0-2.8-1.3-2.8-2.8v-5.7
	C371.9,57.1,373.1,55.8,374.7,55.8z"/>
<path class="st6" d="M374.7,71.1h5.7c1.6,0,2.8,1.3,2.8,2.8v5.7c0,1.6-1.3,2.8-2.8,2.8h-5.7c-1.6,0-2.8-1.3-2.8-2.8V74
	C371.9,72.4,373.1,71.1,374.7,71.1z"/>
<path class="st9" d="M374.7,86.5h5.7c1.6,0,2.8,1.3,2.8,2.8V95c0,1.6-1.3,2.8-2.8,2.8h-5.7c-1.6,0-2.8-1.3-2.8-2.8v-5.7
	C371.9,87.7,373.1,86.5,374.7,86.5z"/>
<path class="st6" d="M374.7,101.8h5.7c1.6,0,2.8,1.3,2.8,2.8v5.7c0,1.6-1.3,2.8-2.8,2.8h-5.7c-1.6,0-2.8-1.3-2.8-2.8v-5.7
	C371.9,103,373.1,101.8,374.7,101.8z"/>
<path class="st6" d="M374.7,117.1h5.7c1.6,0,2.8,1.3,2.8,2.8v5.7c0,1.6-1.3,2.8-2.8,2.8h-5.7c-1.6,0-2.8-1.3-2.8-2.8v-5.7
	C371.9,118.3,373.1,117.1,374.7,117.1z"/>
<path class="st6" d="M374.7,132.4h5.7c1.6,0,2.8,1.3,2.8,2.8v5.7c0,1.6-1.3,2.8-2.8,2.8h-5.7c-1.6,0-2.8-1.3-2.8-2.8v-5.7
	C371.9,133.6,373.1,132.4,374.7,132.4z"/>
<path class="st20" d="M374.7,147.7h5.7c1.6,0,2.8,1.3,2.8,2.8v5.7c0,1.6-1.3,2.8-2.8,2.8h-5.7c-1.6,0-2.8-1.3-2.8-2.8v-5.7
	C371.9,149,373.1,147.7,374.7,147.7z"/>
<path class="st16" d="M390,55.8h5.7c1.6,0,2.8,1.3,2.8,2.8v5.7c0,1.6-1.3,2.8-2.8,2.8H390c-1.6,0-2.8-1.3-2.8-2.8v-5.7
	C387.2,57.1,388.5,55.8,390,55.8z"/>
<path class="st6" d="M390,71.1h5.7c1.6,0,2.8,1.3,2.8,2.8v5.7c0,1.6-1.3,2.8-2.8,2.8H390c-1.6,0-2.8-1.3-2.8-2.8V74
	C387.2,72.4,388.5,71.1,390,71.1z"/>
<path class="st11" d="M390,86.5h5.7c1.6,0,2.8,1.3,2.8,2.8V95c0,1.6-1.3,2.8-2.8,2.8H390c-1.6,0-2.8-1.3-2.8-2.8v-5.7
	C387.2,87.7,388.5,86.5,390,86.5z"/>
<path class="st6" d="M390,101.8h5.7c1.6,0,2.8,1.3,2.8,2.8v5.7c0,1.6-1.3,2.8-2.8,2.8H390c-1.6,0-2.8-1.3-2.8-2.8v-5.7
	C387.2,103,388.5,101.8,390,101.8z"/>
<path class="st6" d="M390,117.1h5.7c1.6,0,2.8,1.3,2.8,2.8v5.7c0,1.6-1.3,2.8-2.8,2.8H390c-1.6,0-2.8-1.3-2.8-2.8v-5.7
	C387.2,118.3,388.5,117.1,390,117.1z"/>
<path class="st6" d="M390,132.4h5.7c1.6,0,2.8,1.3,2.8,2.8v5.7c0,1.6-1.3,2.8-2.8,2.8H390c-1.6,0-2.8-1.3-2.8-2.8v-5.7
	C387.2,133.6,388.5,132.4,390,132.4z"/>
<path class="st6" d="M390,147.7h5.7c1.6,0,2.8,1.3,2.8,2.8v5.7c0,1.6-1.3,2.8-2.8,2.8H390c-1.6,0-2.8-1.3-2.8-2.8v-5.7
	C387.2,149,388.5,147.7,390,147.7z"/>
<text transform="matrix(1 0 0 1 402.4897 51.8744)" class="st3 st5">Jul</text>
<path class="st9" d="M405.3,55.8h5.7c1.6,0,2.8,1.3,2.8,2.8v5.7c0,1.6-1.3,2.8-2.8,2.8h-5.7c-1.6,0-2.8-1.3-2.8-2.8v-5.7
	C402.5,57.1,403.8,55.8,405.3,55.8z"/>
<path class="st6" d="M405.3,71.1h5.7c1.6,0,2.8,1.3,2.8,2.8v5.7c0,1.6-1.3,2.8-2.8,2.8h-5.7c-1.6,0-2.8-1.3-2.8-2.8V74
	C402.5,72.4,403.8,71.1,405.3,71.1z"/>
<path class="st6" d="M405.3,86.5h5.7c1.6,0,2.8,1.3,2.8,2.8V95c0,1.6-1.3,2.8-2.8,2.8h-5.7c-1.6,0-2.8-1.3-2.8-2.8v-5.7
	C402.5,87.7,403.8,86.5,405.3,86.5z"/>
<path class="st6" d="M405.3,101.8h5.7c1.6,0,2.8,1.3,2.8,2.8v5.7c0,1.6-1.3,2.8-2.8,2.8h-5.7c-1.6,0-2.8-1.3-2.8-2.8v-5.7
	C402.5,103,403.8,101.8,405.3,101.8z"/>
<path class="st19" d="M405.3,117.1h5.7c1.6,0,2.8,1.3,2.8,2.8v5.7c0,1.6-1.3,2.8-2.8,2.8h-5.7c-1.6,0-2.8-1.3-2.8-2.8v-5.7
	C402.5,118.3,403.8,117.1,405.3,117.1z"/>
<path class="st6" d="M405.3,132.4h5.7c1.6,0,2.8,1.3,2.8,2.8v5.7c0,1.6-1.3,2.8-2.8,2.8h-5.7c-1.6,0-2.8-1.3-2.8-2.8v-5.7
	C402.5,133.6,403.8,132.4,405.3,132.4z"/>
<path class="st6" d="M405.3,147.7h5.7c1.6,0,2.8,1.3,2.8,2.8v5.7c0,1.6-1.3,2.8-2.8,2.8h-5.7c-1.6,0-2.8-1.3-2.8-2.8v-5.7
	C402.5,149,403.8,147.7,405.3,147.7z"/>
<path class="st21" d="M420.6,55.8h5.7c1.6,0,2.8,1.3,2.8,2.8v5.7c0,1.6-1.3,2.8-2.8,2.8h-5.7c-1.6,0-2.8-1.3-2.8-2.8v-5.7
	C417.8,57.1,419.1,55.8,420.6,55.8z"/>
<path class="st22" d="M420.6,71.1h5.7c1.6,0,2.8,1.3,2.8,2.8v5.7c0,1.6-1.3,2.8-2.8,2.8h-5.7c-1.6,0-2.8-1.3-2.8-2.8V74
	C417.8,72.4,419.1,71.1,420.6,71.1z"/>
<path class="st10" d="M420.6,86.5h5.7c1.6,0,2.8,1.3,2.8,2.8V95c0,1.6-1.3,2.8-2.8,2.8h-5.7c-1.6,0-2.8-1.3-2.8-2.8v-5.7
	C417.8,87.7,419.1,86.5,420.6,86.5z"/>
<path class="st23" d="M420.6,101.8h5.7c1.6,0,2.8,1.3,2.8,2.8v5.7c0,1.6-1.3,2.8-2.8,2.8h-5.7c-1.6,0-2.8-1.3-2.8-2.8v-5.7
	C417.8,103,419.1,101.8,420.6,101.8z"/>
<path class="st24" d="M420.6,117.1h5.7c1.6,0,2.8,1.3,2.8,2.8v5.7c0,1.6-1.3,2.8-2.8,2.8h-5.7c-1.6,0-2.8-1.3-2.8-2.8v-5.7
	C417.8,118.3,419.1,117.1,420.6,117.1z"/>
<path class="st6" d="M420.6,132.4h5.7c1.6,0,2.8,1.3,2.8,2.8v5.7c0,1.6-1.3,2.8-2.8,2.8h-5.7c-1.6,0-2.8-1.3-2.8-2.8v-5.7
	C417.8,133.6,419.1,132.4,420.6,132.4z"/>
<path class="st16" d="M420.6,147.7h5.7c1.6,0,2.8,1.3,2.8,2.8v5.7c0,1.6-1.3,2.8-2.8,2.8h-5.7c-1.6,0-2.8-1.3-2.8-2.8v-5.7
	C417.8,149,419.1,147.7,420.6,147.7z"/>
<path class="st25" d="M435.9,55.8h5.7c1.6,0,2.8,1.3,2.8,2.8v5.7c0,1.6-1.3,2.8-2.8,2.8h-5.7c-1.6,0-2.8-1.3-2.8-2.8v-5.7
	C433.1,57.1,434.4,55.8,435.9,55.8z"/>
<path class="st17" d="M435.9,71.1h5.7c1.6,0,2.8,1.3,2.8,2.8v5.7c0,1.6-1.3,2.8-2.8,2.8h-5.7c-1.6,0-2.8-1.3-2.8-2.8V74
	C433.1,72.4,434.4,71.1,435.9,71.1z"/>
<path class="st17" d="M435.9,86.5h5.7c1.6,0,2.8,1.3,2.8,2.8V95c0,1.6-1.3,2.8-2.8,2.8h-5.7c-1.6,0-2.8-1.3-2.8-2.8v-5.7
	C433.1,87.7,434.4,86.5,435.9,86.5z"/>
<path class="st17" d="M435.9,101.8h5.7c1.6,0,2.8,1.3,2.8,2.8v5.7c0,1.6-1.3,2.8-2.8,2.8h-5.7c-1.6,0-2.8-1.3-2.8-2.8v-5.7
	C433.1,103,434.4,101.8,435.9,101.8z"/>
<path class="st26" d="M435.9,117.1h5.7c1.6,0,2.8,1.3,2.8,2.8v5.7c0,1.6-1.3,2.8-2.8,2.8h-5.7c-1.6,0-2.8-1.3-2.8-2.8v-5.7
	C433.1,118.3,434.4,117.1,435.9,117.1z"/>
<path class="st6" d="M435.9,132.4h5.7c1.6,0,2.8,1.3,2.8,2.8v5.7c0,1.6-1.3,2.8-2.8,2.8h-5.7c-1.6,0-2.8-1.3-2.8-2.8v-5.7
	C433.1,133.6,434.4,132.4,435.9,132.4z"/>
<path class="st14" d="M435.9,147.7h5.7c1.6,0,2.8,1.3,2.8,2.8v5.7c0,1.6-1.3,2.8-2.8,2.8h-5.7c-1.6,0-2.8-1.3-2.8-2.8v-5.7
	C433.1,149,434.4,147.7,435.9,147.7z"/>
<path class="st17" d="M451.2,55.8h5.7c1.6,0,2.8,1.3,2.8,2.8v5.7c0,1.6-1.3,2.8-2.8,2.8h-5.7c-1.6,0-2.8-1.3-2.8-2.8v-5.7
	C448.4,57.1,449.7,55.8,451.2,55.8z"/>
<path class="st17" d="M451.2,71.1h5.7c1.6,0,2.8,1.3,2.8,2.8v5.7c0,1.6-1.3,2.8-2.8,2.8h-5.7c-1.6,0-2.8-1.3-2.8-2.8V74
	C448.4,72.4,449.7,71.1,451.2,71.1z"/>
<path class="st6" d="M451.2,86.5h5.7c1.6,0,2.8,1.3,2.8,2.8V95c0,1.6-1.3,2.8-2.8,2.8h-5.7c-1.6,0-2.8-1.3-2.8-2.8v-5.7
	C448.4,87.7,449.7,86.5,451.2,86.5z"/>
<path class="st17" d="M451.2,101.8h5.7c1.6,0,2.8,1.3,2.8,2.8v5.7c0,1.6-1.3,2.8-2.8,2.8h-5.7c-1.6,0-2.8-1.3-2.8-2.8v-5.7
	C448.4,103,449.7,101.8,451.2,101.8z"/>
<path class="st16" d="M451.2,117.1h5.7c1.6,0,2.8,1.3,2.8,2.8v5.7c0,1.6-1.3,2.8-2.8,2.8h-5.7c-1.6,0-2.8-1.3-2.8-2.8v-5.7
	C448.4,118.3,449.7,117.1,451.2,117.1z"/>
<path class="st23" d="M451.2,132.4h5.7c1.6,0,2.8,1.3,2.8,2.8v5.7c0,1.6-1.3,2.8-2.8,2.8h-5.7c-1.6,0-2.8-1.3-2.8-2.8v-5.7
	C448.4,133.6,449.7,132.4,451.2,132.4z"/>
<path class="st17" d="M451.2,147.7h5.7c1.6,0,2.8,1.3,2.8,2.8v5.7c0,1.6-1.3,2.8-2.8,2.8h-5.7c-1.6,0-2.8-1.3-2.8-2.8v-5.7
	C448.4,149,449.7,147.7,451.2,147.7z"/>
<path class="st6" d="M466.6,55.8h5.7c1.6,0,2.8,1.3,2.8,2.8v5.7c0,1.6-1.3,2.8-2.8,2.8h-5.7c-1.6,0-2.8-1.3-2.8-2.8v-5.7
	C463.7,57.1,465,55.8,466.6,55.8z"/>
<path class="st16" d="M466.6,71.1h5.7c1.6,0,2.8,1.3,2.8,2.8v5.7c0,1.6-1.3,2.8-2.8,2.8h-5.7c-1.6,0-2.8-1.3-2.8-2.8V74
	C463.7,72.4,465,71.1,466.6,71.1z"/>
<path class="st6" d="M466.6,86.5h5.7c1.6,0,2.8,1.3,2.8,2.8V95c0,1.6-1.3,2.8-2.8,2.8h-5.7c-1.6,0-2.8-1.3-2.8-2.8v-5.7
	C463.7,87.7,465,86.5,466.6,86.5z"/>
<path class="st6" d="M466.6,101.8h5.7c1.6,0,2.8,1.3,2.8,2.8v5.7c0,1.6-1.3,2.8-2.8,2.8h-5.7c-1.6,0-2.8-1.3-2.8-2.8v-5.7
	C463.7,103,465,101.8,466.6,101.8z"/>
<path class="st6" d="M466.6,117.1h5.7c1.6,0,2.8,1.3,2.8,2.8v5.7c0,1.6-1.3,2.8-2.8,2.8h-5.7c-1.6,0-2.8-1.3-2.8-2.8v-5.7
	C463.7,118.3,465,117.1,466.6,117.1z"/>
<path class="st6" d="M466.6,132.4h5.7c1.6,0,2.8,1.3,2.8,2.8v5.7c0,1.6-1.3,2.8-2.8,2.8h-5.7c-1.6,0-2.8-1.3-2.8-2.8v-5.7
	C463.7,133.6,465,132.4,466.6,132.4z"/>
<path class="st6" d="M466.6,147.7h5.7c1.6,0,2.8,1.3,2.8,2.8v5.7c0,1.6-1.3,2.8-2.8,2.8h-5.7c-1.6,0-2.8-1.3-2.8-2.8v-5.7
	C463.7,149,465,147.7,466.6,147.7z"/>
<text transform="matrix(1 0 0 1 479.0259 51.8744)" class="st3 st5">Aug</text>
<path class="st6" d="M481.9,55.8h5.7c1.6,0,2.8,1.3,2.8,2.8v5.7c0,1.6-1.3,2.8-2.8,2.8h-5.7c-1.6,0-2.8-1.3-2.8-2.8v-5.7
	C479,57.1,480.3,55.8,481.9,55.8z"/>
<path class="st6" d="M481.9,71.1h5.7c1.6,0,2.8,1.3,2.8,2.8v5.7c0,1.6-1.3,2.8-2.8,2.8h-5.7c-1.6,0-2.8-1.3-2.8-2.8V74
	C479,72.4,480.3,71.1,481.9,71.1z"/>
<path class="st6" d="M481.9,86.5h5.7c1.6,0,2.8,1.3,2.8,2.8V95c0,1.6-1.3,2.8-2.8,2.8h-5.7c-1.6,0-2.8-1.3-2.8-2.8v-5.7
	C479,87.7,480.3,86.5,481.9,86.5z"/>
<path class="st6" d="M481.9,101.8h5.7c1.6,0,2.8,1.3,2.8,2.8v5.7c0,1.6-1.3,2.8-2.8,2.8h-5.7c-1.6,0-2.8-1.3-2.8-2.8v-5.7
	C479,103,480.3,101.8,481.9,101.8z"/>
<path class="st6" d="M481.9,117.1h5.7c1.6,0,2.8,1.3,2.8,2.8v5.7c0,1.6-1.3,2.8-2.8,2.8h-5.7c-1.6,0-2.8-1.3-2.8-2.8v-5.7
	C479,118.3,480.3,117.1,481.9,117.1z"/>
<path class="st6" d="M481.9,132.4h5.7c1.6,0,2.8,1.3,2.8,2.8v5.7c0,1.6-1.3,2.8-2.8,2.8h-5.7c-1.6,0-2.8-1.3-2.8-2.8v-5.7
	C479,133.6,480.3,132.4,481.9,132.4z"/>
<path class="st6" d="M481.9,147.7h5.7c1.6,0,2.8,1.3,2.8,2.8v5.7c0,1.6-1.3,2.8-2.8,2.8h-5.7c-1.6,0-2.8-1.3-2.8-2.8v-5.7
	C479,149,480.3,147.7,481.9,147.7z"/>
<path class="st6" d="M497.2,55.8h5.7c1.6,0,2.8,1.3,2.8,2.8v5.7c0,1.6-1.3,2.8-2.8,2.8h-5.7c-1.6,0-2.8-1.3-2.8-2.8v-5.7
	C494.3,57.1,495.6,55.8,497.2,55.8z"/>
<path class="st6" d="M497.2,71.1h5.7c1.6,0,2.8,1.3,2.8,2.8v5.7c0,1.6-1.3,2.8-2.8,2.8h-5.7c-1.6,0-2.8-1.3-2.8-2.8V74
	C494.3,72.4,495.6,71.1,497.2,71.1z"/>
<path class="st6" d="M497.2,86.5h5.7c1.6,0,2.8,1.3,2.8,2.8V95c0,1.6-1.3,2.8-2.8,2.8h-5.7c-1.6,0-2.8-1.3-2.8-2.8v-5.7
	C494.3,87.7,495.6,86.5,497.2,86.5z"/>
<path class="st6" d="M497.2,101.8h5.7c1.6,0,2.8,1.3,2.8,2.8v5.7c0,1.6-1.3,2.8-2.8,2.8h-5.7c-1.6,0-2.8-1.3-2.8-2.8v-5.7
	C494.3,103,495.6,101.8,497.2,101.8z"/>
<path class="st6" d="M497.2,117.1h5.7c1.6,0,2.8,1.3,2.8,2.8v5.7c0,1.6-1.3,2.8-2.8,2.8h-5.7c-1.6,0-2.8-1.3-2.8-2.8v-5.7
	C494.3,118.3,495.6,117.1,497.2,117.1z"/>
<path class="st6" d="M497.2,132.4h5.7c1.6,0,2.8,1.3,2.8,2.8v5.7c0,1.6-1.3,2.8-2.8,2.8h-5.7c-1.6,0-2.8-1.3-2.8-2.8v-5.7
	C494.3,133.6,495.6,132.4,497.2,132.4z"/>
<path class="st6" d="M497.2,147.7h5.7c1.6,0,2.8,1.3,2.8,2.8v5.7c0,1.6-1.3,2.8-2.8,2.8h-5.7c-1.6,0-2.8-1.3-2.8-2.8v-5.7
	C494.3,149,495.6,147.7,497.2,147.7z"/>
<path class="st6" d="M512.5,55.8h5.7c1.6,0,2.8,1.3,2.8,2.8v5.7c0,1.6-1.3,2.8-2.8,2.8h-5.7c-1.6,0-2.8-1.3-2.8-2.8v-5.7
	C509.6,57.1,510.9,55.8,512.5,55.8z"/>
<path class="st6" d="M512.5,71.1h5.7c1.6,0,2.8,1.3,2.8,2.8v5.7c0,1.6-1.3,2.8-2.8,2.8h-5.7c-1.6,0-2.8-1.3-2.8-2.8V74
	C509.6,72.4,510.9,71.1,512.5,71.1z"/>
<path class="st6" d="M512.5,86.5h5.7c1.6,0,2.8,1.3,2.8,2.8V95c0,1.6-1.3,2.8-2.8,2.8h-5.7c-1.6,0-2.8-1.3-2.8-2.8v-5.7
	C509.6,87.7,510.9,86.5,512.5,86.5z"/>
<path class="st6" d="M512.5,101.8h5.7c1.6,0,2.8,1.3,2.8,2.8v5.7c0,1.6-1.3,2.8-2.8,2.8h-5.7c-1.6,0-2.8-1.3-2.8-2.8v-5.7
	C509.6,103,510.9,101.8,512.5,101.8z"/>
<path class="st6" d="M512.5,117.1h5.7c1.6,0,2.8,1.3,2.8,2.8v5.7c0,1.6-1.3,2.8-2.8,2.8h-5.7c-1.6,0-2.8-1.3-2.8-2.8v-5.7
	C509.6,118.3,510.9,117.1,512.5,117.1z"/>
<path class="st6" d="M512.5,132.4h5.7c1.6,0,2.8,1.3,2.8,2.8v5.7c0,1.6-1.3,2.8-2.8,2.8h-5.7c-1.6,0-2.8-1.3-2.8-2.8v-5.7
	C509.6,133.6,510.9,132.4,512.5,132.4z"/>
<path class="st6" d="M512.5,147.7h5.7c1.6,0,2.8,1.3,2.8,2.8v5.7c0,1.6-1.3,2.8-2.8,2.8h-5.7c-1.6,0-2.8-1.3-2.8-2.8v-5.7
	C509.6,149,510.9,147.7,512.5,147.7z"/>
<path class="st6" d="M527.8,55.8h5.7c1.6,0,2.8,1.3,2.8,2.8v5.7c0,1.6-1.3,2.8-2.8,2.8h-5.7c-1.6,0-2.8-1.3-2.8-2.8v-5.7
	C524.9,57.1,526.2,55.8,527.8,55.8z"/>
<path class="st6" d="M527.8,71.1h5.7c1.6,0,2.8,1.3,2.8,2.8v5.7c0,1.6-1.3,2.8-2.8,2.8h-5.7c-1.6,0-2.8-1.3-2.8-2.8V74
	C524.9,72.4,526.2,71.1,527.8,71.1z"/>
<path class="st6" d="M527.8,86.5h5.7c1.6,0,2.8,1.3,2.8,2.8V95c0,1.6-1.3,2.8-2.8,2.8h-5.7c-1.6,0-2.8-1.3-2.8-2.8v-5.7
	C524.9,87.7,526.2,86.5,527.8,86.5z"/>
<path class="st6" d="M527.8,101.8h5.7c1.6,0,2.8,1.3,2.8,2.8v5.7c0,1.6-1.3,2.8-2.8,2.8h-5.7c-1.6,0-2.8-1.3-2.8-2.8v-5.7
	C524.9,103,526.2,101.8,527.8,101.8z"/>
<path class="st6" d="M527.8,117.1h5.7c1.6,0,2.8,1.3,2.8,2.8v5.7c0,1.6-1.3,2.8-2.8,2.8h-5.7c-1.6,0-2.8-1.3-2.8-2.8v-5.7
	C524.9,118.3,526.2,117.1,527.8,117.1z"/>
<path class="st6" d="M527.8,132.4h5.7c1.6,0,2.8,1.3,2.8,2.8v5.7c0,1.6-1.3,2.8-2.8,2.8h-5.7c-1.6,0-2.8-1.3-2.8-2.8v-5.7
	C524.9,133.6,526.2,132.4,527.8,132.4z"/>
<path class="st6" d="M527.8,147.7h5.7c1.6,0,2.8,1.3,2.8,2.8v5.7c0,1.6-1.3,2.8-2.8,2.8h-5.7c-1.6,0-2.8-1.3-2.8-2.8v-5.7
	C524.9,149,526.2,147.7,527.8,147.7z"/>
<text transform="matrix(1 0 0 1 540.2534 51.8744)" class="st3 st5">Sep</text>
<path class="st6" d="M543.1,55.8h5.7c1.6,0,2.8,1.3,2.8,2.8v5.7c0,1.6-1.3,2.8-2.8,2.8h-5.7c-1.6,0-2.8-1.3-2.8-2.8v-5.7
	C540.3,57.1,541.5,55.8,543.1,55.8z"/>
<path class="st6" d="M543.1,71.1h5.7c1.6,0,2.8,1.3,2.8,2.8v5.7c0,1.6-1.3,2.8-2.8,2.8h-5.7c-1.6,0-2.8-1.3-2.8-2.8V74
	C540.3,72.4,541.5,71.1,543.1,71.1z"/>
<path class="st6" d="M543.1,86.5h5.7c1.6,0,2.8,1.3,2.8,2.8V95c0,1.6-1.3,2.8-2.8,2.8h-5.7c-1.6,0-2.8-1.3-2.8-2.8v-5.7
	C540.3,87.7,541.5,86.5,543.1,86.5z"/>
<path class="st6" d="M543.1,101.8h5.7c1.6,0,2.8,1.3,2.8,2.8v5.7c0,1.6-1.3,2.8-2.8,2.8h-5.7c-1.6,0-2.8-1.3-2.8-2.8v-5.7
	C540.3,103,541.5,101.8,543.1,101.8z"/>
<path class="st6" d="M543.1,117.1h5.7c1.6,0,2.8,1.3,2.8,2.8v5.7c0,1.6-1.3,2.8-2.8,2.8h-5.7c-1.6,0-2.8-1.3-2.8-2.8v-5.7
	C540.3,118.3,541.5,117.1,543.1,117.1z"/>
<path class="st6" d="M543.1,132.4h5.7c1.6,0,2.8,1.3,2.8,2.8v5.7c0,1.6-1.3,2.8-2.8,2.8h-5.7c-1.6,0-2.8-1.3-2.8-2.8v-5.7
	C540.3,133.6,541.5,132.4,543.1,132.4z"/>
<path class="st6" d="M543.1,147.7h5.7c1.6,0,2.8,1.3,2.8,2.8v5.7c0,1.6-1.3,2.8-2.8,2.8h-5.7c-1.6,0-2.8-1.3-2.8-2.8v-5.7
	C540.3,149,541.5,147.7,543.1,147.7z"/>
<path class="st6" d="M558.4,55.8h5.7c1.6,0,2.8,1.3,2.8,2.8v5.7c0,1.6-1.3,2.8-2.8,2.8h-5.7c-1.6,0-2.8-1.3-2.8-2.8v-5.7
	C555.6,57.1,556.8,55.8,558.4,55.8z"/>
<path class="st6" d="M558.4,71.1h5.7c1.6,0,2.8,1.3,2.8,2.8v5.7c0,1.6-1.3,2.8-2.8,2.8h-5.7c-1.6,0-2.8-1.3-2.8-2.8V74
	C555.6,72.4,556.8,71.1,558.4,71.1z"/>
<path class="st6" d="M558.4,86.5h5.7c1.6,0,2.8,1.3,2.8,2.8V95c0,1.6-1.3,2.8-2.8,2.8h-5.7c-1.6,0-2.8-1.3-2.8-2.8v-5.7
	C555.6,87.7,556.8,86.5,558.4,86.5z"/>
<path class="st6" d="M558.4,101.8h5.7c1.6,0,2.8,1.3,2.8,2.8v5.7c0,1.6-1.3,2.8-2.8,2.8h-5.7c-1.6,0-2.8-1.3-2.8-2.8v-5.7
	C555.6,103,556.8,101.8,558.4,101.8z"/>
<path class="st6" d="M558.4,117.1h5.7c1.6,0,2.8,1.3,2.8,2.8v5.7c0,1.6-1.3,2.8-2.8,2.8h-5.7c-1.6,0-2.8-1.3-2.8-2.8v-5.7
	C555.6,118.3,556.8,117.1,558.4,117.1z"/>
<path class="st6" d="M558.4,132.4h5.7c1.6,0,2.8,1.3,2.8,2.8v5.7c0,1.6-1.3,2.8-2.8,2.8h-5.7c-1.6,0-2.8-1.3-2.8-2.8v-5.7
	C555.6,133.6,556.8,132.4,558.4,132.4z"/>
<path class="st6" d="M558.4,147.7h5.7c1.6,0,2.8,1.3,2.8,2.8v5.7c0,1.6-1.3,2.8-2.8,2.8h-5.7c-1.6,0-2.8-1.3-2.8-2.8v-5.7
	C555.6,149,556.8,147.7,558.4,147.7z"/>
<path class="st6" d="M573.7,55.8h5.7c1.6,0,2.8,1.3,2.8,2.8v5.7c0,1.6-1.3,2.8-2.8,2.8h-5.7c-1.6,0-2.8-1.3-2.8-2.8v-5.7
	C570.9,57.1,572.1,55.8,573.7,55.8z"/>
<path class="st6" d="M573.7,71.1h5.7c1.6,0,2.8,1.3,2.8,2.8v5.7c0,1.6-1.3,2.8-2.8,2.8h-5.7c-1.6,0-2.8-1.3-2.8-2.8V74
	C570.9,72.4,572.1,71.1,573.7,71.1z"/>
<path class="st6" d="M573.7,86.5h5.7c1.6,0,2.8,1.3,2.8,2.8V95c0,1.6-1.3,2.8-2.8,2.8h-5.7c-1.6,0-2.8-1.3-2.8-2.8v-5.7
	C570.9,87.7,572.1,86.5,573.7,86.5z"/>
<path class="st6" d="M573.7,101.8h5.7c1.6,0,2.8,1.3,2.8,2.8v5.7c0,1.6-1.3,2.8-2.8,2.8h-5.7c-1.6,0-2.8-1.3-2.8-2.8v-5.7
	C570.9,103,572.1,101.8,573.7,101.8z"/>
<path class="st6" d="M573.7,117.1h5.7c1.6,0,2.8,1.3,2.8,2.8v5.7c0,1.6-1.3,2.8-2.8,2.8h-5.7c-1.6,0-2.8-1.3-2.8-2.8v-5.7
	C570.9,118.3,572.1,117.1,573.7,117.1z"/>
<path class="st6" d="M573.7,132.4h5.7c1.6,0,2.8,1.3,2.8,2.8v5.7c0,1.6-1.3,2.8-2.8,2.8h-5.7c-1.6,0-2.8-1.3-2.8-2.8v-5.7
	C570.9,133.6,572.1,132.4,573.7,132.4z"/>
<path class="st6" d="M573.7,147.7h5.7c1.6,0,2.8,1.3,2.8,2.8v5.7c0,1.6-1.3,2.8-2.8,2.8h-5.7c-1.6,0-2.8-1.3-2.8-2.8v-5.7
	C570.9,149,572.1,147.7,573.7,147.7z"/>
<path class="st6" d="M589,55.8h5.7c1.6,0,2.8,1.3,2.8,2.8v5.7c0,1.6-1.3,2.8-2.8,2.8H589c-1.6,0-2.8-1.3-2.8-2.8v-5.7
	C586.2,57.1,587.4,55.8,589,55.8z"/>
<path class="st6" d="M589,71.1h5.7c1.6,0,2.8,1.3,2.8,2.8v5.7c0,1.6-1.3,2.8-2.8,2.8H589c-1.6,0-2.8-1.3-2.8-2.8V74
	C586.2,72.4,587.4,71.1,589,71.1z"/>
<path class="st6" d="M589,86.5h5.7c1.6,0,2.8,1.3,2.8,2.8V95c0,1.6-1.3,2.8-2.8,2.8H589c-1.6,0-2.8-1.3-2.8-2.8v-5.7
	C586.2,87.7,587.4,86.5,589,86.5z"/>
<path class="st6" d="M589,101.8h5.7c1.6,0,2.8,1.3,2.8,2.8v5.7c0,1.6-1.3,2.8-2.8,2.8H589c-1.6,0-2.8-1.3-2.8-2.8v-5.7
	C586.2,103,587.4,101.8,589,101.8z"/>
<path class="st6" d="M589,117.1h5.7c1.6,0,2.8,1.3,2.8,2.8v5.7c0,1.6-1.3,2.8-2.8,2.8H589c-1.6,0-2.8-1.3-2.8-2.8v-5.7
	C586.2,118.3,587.4,117.1,589,117.1z"/>
<path class="st6" d="M589,132.4h5.7c1.6,0,2.8,1.3,2.8,2.8v5.7c0,1.6-1.3,2.8-2.8,2.8H589c-1.6,0-2.8-1.3-2.8-2.8v-5.7
	C586.2,133.6,587.4,132.4,589,132.4z"/>
<path class="st6" d="M589,147.7h5.7c1.6,0,2.8,1.3,2.8,2.8v5.7c0,1.6-1.3,2.8-2.8,2.8H589c-1.6,0-2.8-1.3-2.8-2.8v-5.7
	C586.2,149,587.4,147.7,589,147.7z"/>
<path class="st6" d="M604.3,55.8h5.7c1.6,0,2.8,1.3,2.8,2.8v5.7c0,1.6-1.3,2.8-2.8,2.8h-5.7c-1.6,0-2.8-1.3-2.8-2.8v-5.7
	C601.5,57.1,602.8,55.8,604.3,55.8z"/>
<path class="st6" d="M604.3,71.1h5.7c1.6,0,2.8,1.3,2.8,2.8v5.7c0,1.6-1.3,2.8-2.8,2.8h-5.7c-1.6,0-2.8-1.3-2.8-2.8V74
	C601.5,72.4,602.8,71.1,604.3,71.1z"/>
<path class="st6" d="M604.3,86.5h5.7c1.6,0,2.8,1.3,2.8,2.8V95c0,1.6-1.3,2.8-2.8,2.8h-5.7c-1.6,0-2.8-1.3-2.8-2.8v-5.7
	C601.5,87.7,602.8,86.5,604.3,86.5z"/>
<path class="st6" d="M604.3,101.8h5.7c1.6,0,2.8,1.3,2.8,2.8v5.7c0,1.6-1.3,2.8-2.8,2.8h-5.7c-1.6,0-2.8-1.3-2.8-2.8v-5.7
	C601.5,103,602.8,101.8,604.3,101.8z"/>
<path class="st6" d="M604.3,117.1h5.7c1.6,0,2.8,1.3,2.8,2.8v5.7c0,1.6-1.3,2.8-2.8,2.8h-5.7c-1.6,0-2.8-1.3-2.8-2.8v-5.7
	C601.5,118.3,602.8,117.1,604.3,117.1z"/>
<path class="st6" d="M604.3,132.4h5.7c1.6,0,2.8,1.3,2.8,2.8v5.7c0,1.6-1.3,2.8-2.8,2.8h-5.7c-1.6,0-2.8-1.3-2.8-2.8v-5.7
	C601.5,133.6,602.8,132.4,604.3,132.4z"/>
<path class="st6" d="M604.3,147.7h5.7c1.6,0,2.8,1.3,2.8,2.8v5.7c0,1.6-1.3,2.8-2.8,2.8h-5.7c-1.6,0-2.8-1.3-2.8-2.8v-5.7
	C601.5,149,602.8,147.7,604.3,147.7z"/>
<text transform="matrix(1 0 0 1 616.7896 51.8744)" class="st3 st5">Oct</text>
<path class="st6" d="M619.6,55.8h5.7c1.6,0,2.8,1.3,2.8,2.8v5.7c0,1.6-1.3,2.8-2.8,2.8h-5.7c-1.6,0-2.8-1.3-2.8-2.8v-5.7
	C616.8,57.1,618.1,55.8,619.6,55.8z"/>
<path class="st6" d="M619.6,71.1h5.7c1.6,0,2.8,1.3,2.8,2.8v5.7c0,1.6-1.3,2.8-2.8,2.8h-5.7c-1.6,0-2.8-1.3-2.8-2.8V74
	C616.8,72.4,618.1,71.1,619.6,71.1z"/>
<path class="st6" d="M619.6,86.5h5.7c1.6,0,2.8,1.3,2.8,2.8V95c0,1.6-1.3,2.8-2.8,2.8h-5.7c-1.6,0-2.8-1.3-2.8-2.8v-5.7
	C616.8,87.7,618.1,86.5,619.6,86.5z"/>
<path class="st6" d="M619.6,101.8h5.7c1.6,0,2.8,1.3,2.8,2.8v5.7c0,1.6-1.3,2.8-2.8,2.8h-5.7c-1.6,0-2.8-1.3-2.8-2.8v-5.7
	C616.8,103,618.1,101.8,619.6,101.8z"/>
<path class="st6" d="M619.6,117.1h5.7c1.6,0,2.8,1.3,2.8,2.8v5.7c0,1.6-1.3,2.8-2.8,2.8h-5.7c-1.6,0-2.8-1.3-2.8-2.8v-5.7
	C616.8,118.3,618.1,117.1,619.6,117.1z"/>
<path class="st6" d="M619.6,132.4h5.7c1.6,0,2.8,1.3,2.8,2.8v5.7c0,1.6-1.3,2.8-2.8,2.8h-5.7c-1.6,0-2.8-1.3-2.8-2.8v-5.7
	C616.8,133.6,618.1,132.4,619.6,132.4z"/>
<path class="st6" d="M619.6,147.7h5.7c1.6,0,2.8,1.3,2.8,2.8v5.7c0,1.6-1.3,2.8-2.8,2.8h-5.7c-1.6,0-2.8-1.3-2.8-2.8v-5.7
	C616.8,149,618.1,147.7,619.6,147.7z"/>
<path class="st6" d="M634.9,55.8h5.7c1.6,0,2.8,1.3,2.8,2.8v5.7c0,1.6-1.3,2.8-2.8,2.8h-5.7c-1.6,0-2.8-1.3-2.8-2.8v-5.7
	C632.1,57.1,633.4,55.8,634.9,55.8z"/>
<path class="st6" d="M634.9,71.1h5.7c1.6,0,2.8,1.3,2.8,2.8v5.7c0,1.6-1.3,2.8-2.8,2.8h-5.7c-1.6,0-2.8-1.3-2.8-2.8V74
	C632.1,72.4,633.4,71.1,634.9,71.1z"/>
<path class="st6" d="M634.9,86.5h5.7c1.6,0,2.8,1.3,2.8,2.8V95c0,1.6-1.3,2.8-2.8,2.8h-5.7c-1.6,0-2.8-1.3-2.8-2.8v-5.7
	C632.1,87.7,633.4,86.5,634.9,86.5z"/>
<path class="st6" d="M634.9,101.8h5.7c1.6,0,2.8,1.3,2.8,2.8v5.7c0,1.6-1.3,2.8-2.8,2.8h-5.7c-1.6,0-2.8-1.3-2.8-2.8v-5.7
	C632.1,103,633.4,101.8,634.9,101.8z"/>
<path class="st6" d="M634.9,117.1h5.7c1.6,0,2.8,1.3,2.8,2.8v5.7c0,1.6-1.3,2.8-2.8,2.8h-5.7c-1.6,0-2.8-1.3-2.8-2.8v-5.7
	C632.1,118.3,633.4,117.1,634.9,117.1z"/>
<path class="st6" d="M634.9,132.4h5.7c1.6,0,2.8,1.3,2.8,2.8v5.7c0,1.6-1.3,2.8-2.8,2.8h-5.7c-1.6,0-2.8-1.3-2.8-2.8v-5.7
	C632.1,133.6,633.4,132.4,634.9,132.4z"/>
<path class="st6" d="M634.9,147.7h5.7c1.6,0,2.8,1.3,2.8,2.8v5.7c0,1.6-1.3,2.8-2.8,2.8h-5.7c-1.6,0-2.8-1.3-2.8-2.8v-5.7
	C632.1,149,633.4,147.7,634.9,147.7z"/>
<path class="st6" d="M650.2,55.8h5.7c1.6,0,2.8,1.3,2.8,2.8v5.7c0,1.6-1.3,2.8-2.8,2.8h-5.7c-1.6,0-2.8-1.3-2.8-2.8v-5.7
	C647.4,57.1,648.7,55.8,650.2,55.8z"/>
<path class="st6" d="M650.2,71.1h5.7c1.6,0,2.8,1.3,2.8,2.8v5.7c0,1.6-1.3,2.8-2.8,2.8h-5.7c-1.6,0-2.8-1.3-2.8-2.8V74
	C647.4,72.4,648.7,71.1,650.2,71.1z"/>
<path class="st6" d="M650.2,86.5h5.7c1.6,0,2.8,1.3,2.8,2.8V95c0,1.6-1.3,2.8-2.8,2.8h-5.7c-1.6,0-2.8-1.3-2.8-2.8v-5.7
	C647.4,87.7,648.7,86.5,650.2,86.5z"/>
<path class="st6" d="M650.2,101.8h5.7c1.6,0,2.8,1.3,2.8,2.8v5.7c0,1.6-1.3,2.8-2.8,2.8h-5.7c-1.6,0-2.8-1.3-2.8-2.8v-5.7
	C647.4,103,648.7,101.8,650.2,101.8z"/>
<path class="st6" d="M650.2,117.1h5.7c1.6,0,2.8,1.3,2.8,2.8v5.7c0,1.6-1.3,2.8-2.8,2.8h-5.7c-1.6,0-2.8-1.3-2.8-2.8v-5.7
	C647.4,118.3,648.7,117.1,650.2,117.1z"/>
<path class="st6" d="M650.2,132.4h5.7c1.6,0,2.8,1.3,2.8,2.8v5.7c0,1.6-1.3,2.8-2.8,2.8h-5.7c-1.6,0-2.8-1.3-2.8-2.8v-5.7
	C647.4,133.6,648.7,132.4,650.2,132.4z"/>
<path class="st6" d="M650.2,147.7h5.7c1.6,0,2.8,1.3,2.8,2.8v5.7c0,1.6-1.3,2.8-2.8,2.8h-5.7c-1.6,0-2.8-1.3-2.8-2.8v-5.7
	C647.4,149,648.7,147.7,650.2,147.7z"/>
<path class="st6" d="M665.5,55.8h5.7c1.6,0,2.8,1.3,2.8,2.8v5.7c0,1.6-1.3,2.8-2.8,2.8h-5.7c-1.6,0-2.8-1.3-2.8-2.8v-5.7
	C662.7,57.1,664,55.8,665.5,55.8z"/>
<path class="st6" d="M665.5,71.1h5.7c1.6,0,2.8,1.3,2.8,2.8v5.7c0,1.6-1.3,2.8-2.8,2.8h-5.7c-1.6,0-2.8-1.3-2.8-2.8V74
	C662.7,72.4,664,71.1,665.5,71.1z"/>
<path class="st6" d="M665.5,86.5h5.7c1.6,0,2.8,1.3,2.8,2.8V95c0,1.6-1.3,2.8-2.8,2.8h-5.7c-1.6,0-2.8-1.3-2.8-2.8v-5.7
	C662.7,87.7,664,86.5,665.5,86.5z"/>
<path class="st6" d="M665.5,101.8h5.7c1.6,0,2.8,1.3,2.8,2.8v5.7c0,1.6-1.3,2.8-2.8,2.8h-5.7c-1.6,0-2.8-1.3-2.8-2.8v-5.7
	C662.7,103,664,101.8,665.5,101.8z"/>
<path class="st6" d="M665.5,117.1h5.7c1.6,0,2.8,1.3,2.8,2.8v5.7c0,1.6-1.3,2.8-2.8,2.8h-5.7c-1.6,0-2.8-1.3-2.8-2.8v-5.7
	C662.7,118.3,664,117.1,665.5,117.1z"/>
<path class="st6" d="M665.5,132.4h5.7c1.6,0,2.8,1.3,2.8,2.8v5.7c0,1.6-1.3,2.8-2.8,2.8h-5.7c-1.6,0-2.8-1.3-2.8-2.8v-5.7
	C662.7,133.6,664,132.4,665.5,132.4z"/>
<path class="st6" d="M665.5,147.7h5.7c1.6,0,2.8,1.3,2.8,2.8v5.7c0,1.6-1.3,2.8-2.8,2.8h-5.7c-1.6,0-2.8-1.3-2.8-2.8v-5.7
	C662.7,149,664,147.7,665.5,147.7z"/>
<text transform="matrix(1 0 0 1 678.0181 51.8744)" class="st3 st5">Nov</text>
<path class="st6" d="M680.9,55.8h5.7c1.6,0,2.8,1.3,2.8,2.8v5.7c0,1.6-1.3,2.8-2.8,2.8h-5.7c-1.6,0-2.8-1.3-2.8-2.8v-5.7
	C678,57.1,679.3,55.8,680.9,55.8z"/>
<path class="st6" d="M680.9,71.1h5.7c1.6,0,2.8,1.3,2.8,2.8v5.7c0,1.6-1.3,2.8-2.8,2.8h-5.7c-1.6,0-2.8-1.3-2.8-2.8V74
	C678,72.4,679.3,71.1,680.9,71.1z"/>
<path class="st6" d="M680.9,86.5h5.7c1.6,0,2.8,1.3,2.8,2.8V95c0,1.6-1.3,2.8-2.8,2.8h-5.7c-1.6,0-2.8-1.3-2.8-2.8v-5.7
	C678,87.7,679.3,86.5,680.9,86.5z"/>
<path class="st6" d="M680.9,101.8h5.7c1.6,0,2.8,1.3,2.8,2.8v5.7c0,1.6-1.3,2.8-2.8,2.8h-5.7c-1.6,0-2.8-1.3-2.8-2.8v-5.7
	C678,103,679.3,101.8,680.9,101.8z"/>
<path class="st6" d="M680.9,117.1h5.7c1.6,0,2.8,1.3,2.8,2.8v5.7c0,1.6-1.3,2.8-2.8,2.8h-5.7c-1.6,0-2.8-1.3-2.8-2.8v-5.7
	C678,118.3,679.3,117.1,680.9,117.1z"/>
<path class="st6" d="M680.9,132.4h5.7c1.6,0,2.8,1.3,2.8,2.8v5.7c0,1.6-1.3,2.8-2.8,2.8h-5.7c-1.6,0-2.8-1.3-2.8-2.8v-5.7
	C678,133.6,679.3,132.4,680.9,132.4z"/>
<path class="st6" d="M680.9,147.7h5.7c1.6,0,2.8,1.3,2.8,2.8v5.7c0,1.6-1.3,2.8-2.8,2.8h-5.7c-1.6,0-2.8-1.3-2.8-2.8v-5.7
	C678,149,679.3,147.7,680.9,147.7z"/>
<path class="st6" d="M696.2,55.8h5.7c1.6,0,2.8,1.3,2.8,2.8v5.7c0,1.6-1.3,2.8-2.8,2.8h-5.7c-1.6,0-2.8-1.3-2.8-2.8v-5.7
	C693.3,57.1,694.6,55.8,696.2,55.8z"/>
<path class="st6" d="M696.2,71.1h5.7c1.6,0,2.8,1.3,2.8,2.8v5.7c0,1.6-1.3,2.8-2.8,2.8h-5.7c-1.6,0-2.8-1.3-2.8-2.8V74
	C693.3,72.4,694.6,71.1,696.2,71.1z"/>
<path class="st6" d="M696.2,86.5h5.7c1.6,0,2.8,1.3,2.8,2.8V95c0,1.6-1.3,2.8-2.8,2.8h-5.7c-1.6,0-2.8-1.3-2.8-2.8v-5.7
	C693.3,87.7,694.6,86.5,696.2,86.5z"/>
<path class="st6" d="M696.2,101.8h5.7c1.6,0,2.8,1.3,2.8,2.8v5.7c0,1.6-1.3,2.8-2.8,2.8h-5.7c-1.6,0-2.8-1.3-2.8-2.8v-5.7
	C693.3,103,694.6,101.8,696.2,101.8z"/>
<path class="st6" d="M696.2,117.1h5.7c1.6,0,2.8,1.3,2.8,2.8v5.7c0,1.6-1.3,2.8-2.8,2.8h-5.7c-1.6,0-2.8-1.3-2.8-2.8v-5.7
	C693.3,118.3,694.6,117.1,696.2,117.1z"/>
<path class="st6" d="M696.2,132.4h5.7c1.6,0,2.8,1.3,2.8,2.8v5.7c0,1.6-1.3,2.8-2.8,2.8h-5.7c-1.6,0-2.8-1.3-2.8-2.8v-5.7
	C693.3,133.6,694.6,132.4,696.2,132.4z"/>
<path class="st6" d="M696.2,147.7h5.7c1.6,0,2.8,1.3,2.8,2.8v5.7c0,1.6-1.3,2.8-2.8,2.8h-5.7c-1.6,0-2.8-1.3-2.8-2.8v-5.7
	C693.3,149,694.6,147.7,696.2,147.7z"/>
<path class="st6" d="M711.5,55.8h5.7c1.6,0,2.8,1.3,2.8,2.8v5.7c0,1.6-1.3,2.8-2.8,2.8h-5.7c-1.6,0-2.8-1.3-2.8-2.8v-5.7
	C708.6,57.1,709.9,55.8,711.5,55.8z"/>
<path class="st6" d="M711.5,71.1h5.7c1.6,0,2.8,1.3,2.8,2.8v5.7c0,1.6-1.3,2.8-2.8,2.8h-5.7c-1.6,0-2.8-1.3-2.8-2.8V74
	C708.6,72.4,709.9,71.1,711.5,71.1z"/>
<path class="st6" d="M711.5,86.5h5.7c1.6,0,2.8,1.3,2.8,2.8V95c0,1.6-1.3,2.8-2.8,2.8h-5.7c-1.6,0-2.8-1.3-2.8-2.8v-5.7
	C708.6,87.7,709.9,86.5,711.5,86.5z"/>
<path class="st6" d="M711.5,101.8h5.7c1.6,0,2.8,1.3,2.8,2.8v5.7c0,1.6-1.3,2.8-2.8,2.8h-5.7c-1.6,0-2.8-1.3-2.8-2.8v-5.7
	C708.6,103,709.9,101.8,711.5,101.8z"/>
<path class="st6" d="M711.5,117.1h5.7c1.6,0,2.8,1.3,2.8,2.8v5.7c0,1.6-1.3,2.8-2.8,2.8h-5.7c-1.6,0-2.8-1.3-2.8-2.8v-5.7
	C708.6,118.3,709.9,117.1,711.5,117.1z"/>
<path class="st6" d="M711.5,132.4h5.7c1.6,0,2.8,1.3,2.8,2.8v5.7c0,1.6-1.3,2.8-2.8,2.8h-5.7c-1.6,0-2.8-1.3-2.8-2.8v-5.7
	C708.6,133.6,709.9,132.4,711.5,132.4z"/>
<path class="st6" d="M711.5,147.7h5.7c1.6,0,2.8,1.3,2.8,2.8v5.7c0,1.6-1.3,2.8-2.8,2.8h-5.7c-1.6,0-2.8-1.3-2.8-2.8v-5.7
	C708.6,149,709.9,147.7,711.5,147.7z"/>
<path class="st6" d="M726.8,55.8h5.7c1.6,0,2.8,1.3,2.8,2.8v5.7c0,1.6-1.3,2.8-2.8,2.8h-5.7c-1.6,0-2.8-1.3-2.8-2.8v-5.7
	C723.9,57.1,725.2,55.8,726.8,55.8z"/>
<path class="st6" d="M726.8,71.1h5.7c1.6,0,2.8,1.3,2.8,2.8v5.7c0,1.6-1.3,2.8-2.8,2.8h-5.7c-1.6,0-2.8-1.3-2.8-2.8V74
	C723.9,72.4,725.2,71.1,726.8,71.1z"/>
<path class="st6" d="M726.8,86.5h5.7c1.6,0,2.8,1.3,2.8,2.8V95c0,1.6-1.3,2.8-2.8,2.8h-5.7c-1.6,0-2.8-1.3-2.8-2.8v-5.7
	C723.9,87.7,725.2,86.5,726.8,86.5z"/>
<path class="st6" d="M726.8,101.8h5.7c1.6,0,2.8,1.3,2.8,2.8v5.7c0,1.6-1.3,2.8-2.8,2.8h-5.7c-1.6,0-2.8-1.3-2.8-2.8v-5.7
	C723.9,103,725.2,101.8,726.8,101.8z"/>
<path class="st6" d="M726.8,117.1h5.7c1.6,0,2.8,1.3,2.8,2.8v5.7c0,1.6-1.3,2.8-2.8,2.8h-5.7c-1.6,0-2.8-1.3-2.8-2.8v-5.7
	C723.9,118.3,725.2,117.1,726.8,117.1z"/>
<path class="st6" d="M726.8,132.4h5.7c1.6,0,2.8,1.3,2.8,2.8v5.7c0,1.6-1.3,2.8-2.8,2.8h-5.7c-1.6,0-2.8-1.3-2.8-2.8v-5.7
	C723.9,133.6,725.2,132.4,726.8,132.4z"/>
<path class="st6" d="M726.8,147.7h5.7c1.6,0,2.8,1.3,2.8,2.8v5.7c0,1.6-1.3,2.8-2.8,2.8h-5.7c-1.6,0-2.8-1.3-2.8-2.8v-5.7
	C723.9,149,725.2,147.7,726.8,147.7z"/>
<text transform="matrix(1 0 0 1 739.2456 51.8744)" class="st3 st5">Dec</text>
<path class="st6" d="M742.1,55.8h5.7c1.6,0,2.8,1.3,2.8,2.8v5.7c0,1.6-1.3,2.8-2.8,2.8h-5.7c-1.6,0-2.8-1.3-2.8-2.8v-5.7
	C739.2,57.1,740.5,55.8,742.1,55.8z"/>
<path class="st6" d="M742.1,71.1h5.7c1.6,0,2.8,1.3,2.8,2.8v5.7c0,1.6-1.3,2.8-2.8,2.8h-5.7c-1.6,0-2.8-1.3-2.8-2.8V74
	C739.2,72.4,740.5,71.1,742.1,71.1z"/>
<path class="st6" d="M742.1,86.5h5.7c1.6,0,2.8,1.3,2.8,2.8V95c0,1.6-1.3,2.8-2.8,2.8h-5.7c-1.6,0-2.8-1.3-2.8-2.8v-5.7
	C739.2,87.7,740.5,86.5,742.1,86.5z"/>
<path class="st6" d="M742.1,101.8h5.7c1.6,0,2.8,1.3,2.8,2.8v5.7c0,1.6-1.3,2.8-2.8,2.8h-5.7c-1.6,0-2.8-1.3-2.8-2.8v-5.7
	C739.2,103,740.5,101.8,742.1,101.8z"/>
<path class="st6" d="M742.1,117.1h5.7c1.6,0,2.8,1.3,2.8,2.8v5.7c0,1.6-1.3,2.8-2.8,2.8h-5.7c-1.6,0-2.8-1.3-2.8-2.8v-5.7
	C739.2,118.3,740.5,117.1,742.1,117.1z"/>
<path class="st6" d="M742.1,132.4h5.7c1.6,0,2.8,1.3,2.8,2.8v5.7c0,1.6-1.3,2.8-2.8,2.8h-5.7c-1.6,0-2.8-1.3-2.8-2.8v-5.7
	C739.2,133.6,740.5,132.4,742.1,132.4z"/>
<path class="st6" d="M742.1,147.7h5.7c1.6,0,2.8,1.3,2.8,2.8v5.7c0,1.6-1.3,2.8-2.8,2.8h-5.7c-1.6,0-2.8-1.3-2.8-2.8v-5.7
	C739.2,149,740.5,147.7,742.1,147.7z"/>
<path class="st6" d="M757.4,55.8h5.7c1.6,0,2.8,1.3,2.8,2.8v5.7c0,1.6-1.3,2.8-2.8,2.8h-5.7c-1.6,0-2.8-1.3-2.8-2.8v-5.7
	C754.6,57.1,755.8,55.8,757.4,55.8z"/>
<path class="st6" d="M757.4,71.1h5.7c1.6,0,2.8,1.3,2.8,2.8v5.7c0,1.6-1.3,2.8-2.8,2.8h-5.7c-1.6,0-2.8-1.3-2.8-2.8V74
	C754.6,72.4,755.8,71.1,757.4,71.1z"/>
<path class="st6" d="M757.4,86.5h5.7c1.6,0,2.8,1.3,2.8,2.8V95c0,1.6-1.3,2.8-2.8,2.8h-5.7c-1.6,0-2.8-1.3-2.8-2.8v-5.7
	C754.6,87.7,755.8,86.5,757.4,86.5z"/>
<path class="st6" d="M757.4,101.8h5.7c1.6,0,2.8,1.3,2.8,2.8v5.7c0,1.6-1.3,2.8-2.8,2.8h-5.7c-1.6,0-2.8-1.3-2.8-2.8v-5.7
	C754.6,103,755.8,101.8,757.4,101.8z"/>
<path class="st6" d="M757.4,117.1h5.7c1.6,0,2.8,1.3,2.8,2.8v5.7c0,1.6-1.3,2.8-2.8,2.8h-5.7c-1.6,0-2.8-1.3-2.8-2.8v-5.7
	C754.6,118.3,755.8,117.1,757.4,117.1z"/>
<path class="st6" d="M757.4,132.4h5.7c1.6,0,2.8,1.3,2.8,2.8v5.7c0,1.6-1.3,2.8-2.8,2.8h-5.7c-1.6,0-2.8-1.3-2.8-2.8v-5.7
	C754.6,133.6,755.8,132.4,757.4,132.4z"/>
<path class="st6" d="M757.4,147.7h5.7c1.6,0,2.8,1.3,2.8,2.8v5.7c0,1.6-1.3,2.8-2.8,2.8h-5.7c-1.6,0-2.8-1.3-2.8-2.8v-5.7
	C754.6,149,755.8,147.7,757.4,147.7z"/>
<path class="st6" d="M772.7,55.8h5.7c1.6,0,2.8,1.3,2.8,2.8v5.7c0,1.6-1.3,2.8-2.8,2.8h-5.7c-1.6,0-2.8-1.3-2.8-2.8v-5.7
	C769.9,57.1,771.1,55.8,772.7,55.8z"/>
<path class="st6" d="M772.7,71.1h5.7c1.6,0,2.8,1.3,2.8,2.8v5.7c0,1.6-1.3,2.8-2.8,2.8h-5.7c-1.6,0-2.8-1.3-2.8-2.8V74
	C769.9,72.4,771.1,71.1,772.7,71.1z"/>
<path class="st6" d="M772.7,86.5h5.7c1.6,0,2.8,1.3,2.8,2.8V95c0,1.6-1.3,2.8-2.8,2.8h-5.7c-1.6,0-2.8-1.3-2.8-2.8v-5.7
	C769.9,87.7,771.1,86.5,772.7,86.5z"/>
<path class="st6" d="M772.7,101.8h5.7c1.6,0,2.8,1.3,2.8,2.8v5.7c0,1.6-1.3,2.8-2.8,2.8h-5.7c-1.6,0-2.8-1.3-2.8-2.8v-5.7
	C769.9,103,771.1,101.8,772.7,101.8z"/>
<path class="st6" d="M772.7,117.1h5.7c1.6,0,2.8,1.3,2.8,2.8v5.7c0,1.6-1.3,2.8-2.8,2.8h-5.7c-1.6,0-2.8-1.3-2.8-2.8v-5.7
	C769.9,118.3,771.1,117.1,772.7,117.1z"/>
<path class="st6" d="M772.7,132.4h5.7c1.6,0,2.8,1.3,2.8,2.8v5.7c0,1.6-1.3,2.8-2.8,2.8h-5.7c-1.6,0-2.8-1.3-2.8-2.8v-5.7
	C769.9,133.6,771.1,132.4,772.7,132.4z"/>
<path class="st6" d="M772.7,147.7h5.7c1.6,0,2.8,1.3,2.8,2.8v5.7c0,1.6-1.3,2.8-2.8,2.8h-5.7c-1.6,0-2.8-1.3-2.8-2.8v-5.7
	C769.9,149,771.1,147.7,772.7,147.7z"/>
<path class="st6" d="M788,55.8h5.7c1.6,0,2.8,1.3,2.8,2.8v5.7c0,1.6-1.3,2.8-2.8,2.8H788c-1.6,0-2.8-1.3-2.8-2.8v-5.7
	C785.2,57.1,786.4,55.8,788,55.8z"/>
<path class="st6" d="M788,71.1h5.7c1.6,0,2.8,1.3,2.8,2.8v5.7c0,1.6-1.3,2.8-2.8,2.8H788c-1.6,0-2.8-1.3-2.8-2.8V74
	C785.2,72.4,786.4,71.1,788,71.1z"/>
<path class="st6" d="M788,86.5h5.7c1.6,0,2.8,1.3,2.8,2.8V95c0,1.6-1.3,2.8-2.8,2.8H788c-1.6,0-2.8-1.3-2.8-2.8v-5.7
	C785.2,87.7,786.4,86.5,788,86.5z"/>
<path class="st6" d="M788,101.8h5.7c1.6,0,2.8,1.3,2.8,2.8v5.7c0,1.6-1.3,2.8-2.8,2.8H788c-1.6,0-2.8-1.3-2.8-2.8v-5.7
	C785.2,103,786.4,101.8,788,101.8z"/>
<path class="st6" d="M788,117.1h5.7c1.6,0,2.8,1.3,2.8,2.8v5.7c0,1.6-1.3,2.8-2.8,2.8H788c-1.6,0-2.8-1.3-2.8-2.8v-5.7
	C785.2,118.3,786.4,117.1,788,117.1z"/>
<path class="st6" d="M788,132.4h5.7c1.6,0,2.8,1.3,2.8,2.8v5.7c0,1.6-1.3,2.8-2.8,2.8H788c-1.6,0-2.8-1.3-2.8-2.8v-5.7
	C785.2,133.6,786.4,132.4,788,132.4z"/>
<path class="st6" d="M788,147.7h5.7c1.6,0,2.8,1.3,2.8,2.8v5.7c0,1.6-1.3,2.8-2.8,2.8H788c-1.6,0-2.8-1.3-2.8-2.8v-5.7
	C785.2,149,786.4,147.7,788,147.7z"/>
<path class="st6" d="M803.3,55.8h5.7c1.6,0,2.8,1.3,2.8,2.8v5.7c0,1.6-1.3,2.8-2.8,2.8h-5.7c-1.6,0-2.8-1.3-2.8-2.8v-5.7
	C800.5,57.1,801.7,55.8,803.3,55.8z"/>
<path class="st6" d="M803.3,71.1h5.7c1.6,0,2.8,1.3,2.8,2.8v5.7c0,1.6-1.3,2.8-2.8,2.8h-5.7c-1.6,0-2.8-1.3-2.8-2.8V74
	C800.5,72.4,801.7,71.1,803.3,71.1z"/>
</svg>
