<?xml version="1.0" encoding="utf-8"?>
<!-- Generator: Adobe Illustrator 27.0.0, SVG Export Plug-In . SVG Version: 6.00 Build 0)  -->
<svg version="1.1" id="图层_1" xmlns:ev="http://www.w3.org/2001/xml-events"
	 xmlns="http://www.w3.org/2000/svg" xmlns:xlink="http://www.w3.org/1999/xlink" x="0px" y="0px" viewBox="0 0 817.2 163"
	 style="enable-background:new 0 0 817.2 163;" xml:space="preserve">
<style type="text/css">
	.st0{fill:#FFFFFF;}
	.st1{font-family:'AdobeSongStd-Light-GBpc-EUC-H';}
	.st2{font-size:17.0079px;}
	.st3{font-family:'ArialMT';}
	.st4{font-size:8.5039px;}
	.st5{font-size:7.0866px;}
	.st6{fill:#AAE6AC;}
	.st7{fill:#68C06D;}
	.st8{fill:#67BF6C;}
	.st9{fill:#ABE6AD;}
	.st10{fill:#ACE7AE;}
	.st11{fill:#A9E6AB;}
	.st12{fill:#549F57;}
	.st13{fill:#ABE7AD;}
	.st14{fill:#A9E6AC;}
	.st15{fill:#68C06C;}
	.st16{fill:#EBEDF0;}
</style>
<rect y="0" class="st0" width="817.2" height="163"/>
<text transform="matrix(1 0 0 1 4.6487 22.6762)" class="st1 st2">马林康的阅读记录</text>
<text transform="matrix(1 0 0 1 4.6489 38.8177)" class="st3 st4">2024: 243 hours</text>
<text transform="matrix(1 0 0 1 4.6489 51.8744)" class="st3 st5">Jan</text>
<path class="st6" d="M7.5,55.8h5.7c1.6,0,2.8,1.3,2.8,2.8v5.7c0,1.6-1.3,2.8-2.8,2.8H7.5c-1.6,0-2.8-1.3-2.8-2.8v-5.7
	C4.6,57.1,5.9,55.8,7.5,55.8z"/>
<path class="st7" d="M7.5,71.1h5.7c1.6,0,2.8,1.3,2.8,2.8v5.7c0,1.6-1.3,2.8-2.8,2.8H7.5c-1.6,0-2.8-1.3-2.8-2.8V74
	C4.6,72.4,5.9,71.1,7.5,71.1z"/>
<path class="st8" d="M7.5,86.5h5.7c1.6,0,2.8,1.3,2.8,2.8V95c0,1.6-1.3,2.8-2.8,2.8H7.5c-1.6,0-2.8-1.3-2.8-2.8v-5.7
	C4.6,87.7,5.9,86.5,7.5,86.5z"/>
<path class="st6" d="M7.5,101.8h5.7c1.6,0,2.8,1.3,2.8,2.8v5.7c0,1.6-1.3,2.8-2.8,2.8H7.5c-1.6,0-2.8-1.3-2.8-2.8v-5.7
	C4.6,103,5.9,101.8,7.5,101.8z"/>
<path class="st6" d="M7.5,117.1h5.7c1.6,0,2.8,1.3,2.8,2.8v5.7c0,1.6-1.3,2.8-2.8,2.8H7.5c-1.6,0-2.8-1.3-2.8-2.8v-5.7
	C4.6,118.3,5.9,117.1,7.5,117.1z"/>
<path class="st9" d="M7.5,132.4h5.7c1.6,0,2.8,1.3,2.8,2.8v5.7c0,1.6-1.3,2.8-2.8,2.8H7.5c-1.6,0-2.8-1.3-2.8-2.8v-5.7
	C4.6,133.6,5.9,132.4,7.5,132.4z"/>
<path class="st7" d="M7.5,147.7h5.7c1.6,0,2.8,1.3,2.8,2.8v5.7c0,1.6-1.3,2.8-2.8,2.8H7.5c-1.6,0-2.8-1.3-2.8-2.8v-5.7
	C4.6,149,5.9,147.7,7.5,147.7z"/>
<path class="st7" d="M22.8,55.8h5.7c1.6,0,2.8,1.3,2.8,2.8v5.7c0,1.6-1.3,2.8-2.8,2.8h-5.7c-1.6,0-2.8-1.3-2.8-2.8v-5.7
	C20,57.1,21.2,55.8,22.8,55.8z"/>
<path class="st10" d="M22.8,71.1h5.7c1.6,0,2.8,1.3,2.8,2.8v5.7c0,1.6-1.3,2.8-2.8,2.8h-5.7c-1.6,0-2.8-1.3-2.8-2.8V74
	C20,72.4,21.2,71.1,22.8,71.1z"/>
<path class="st10" d="M22.8,86.5h5.7c1.6,0,2.8,1.3,2.8,2.8V95c0,1.6-1.3,2.8-2.8,2.8h-5.7c-1.6,0-2.8-1.3-2.8-2.8v-5.7
	C20,87.7,21.2,86.5,22.8,86.5z"/>
<path class="st6" d="M22.8,101.8h5.7c1.6,0,2.8,1.3,2.8,2.8v5.7c0,1.6-1.3,2.8-2.8,2.8h-5.7c-1.6,0-2.8-1.3-2.8-2.8v-5.7
	C20,103,21.2,101.8,22.8,101.8z"/>
<path class="st11" d="M22.8,117.1h5.7c1.6,0,2.8,1.3,2.8,2.8v5.7c0,1.6-1.3,2.8-2.8,2.8h-5.7c-1.6,0-2.8-1.3-2.8-2.8v-5.7
	C20,118.3,21.2,117.1,22.8,117.1z"/>
<path class="st12" d="M22.8,132.4h5.7c1.6,0,2.8,1.3,2.8,2.8v5.7c0,1.6-1.3,2.8-2.8,2.8h-5.7c-1.6,0-2.8-1.3-2.8-2.8v-5.7
	C20,133.6,21.2,132.4,22.8,132.4z"/>
<path class="st13" d="M22.8,147.7h5.7c1.6,0,2.8,1.3,2.8,2.8v5.7c0,1.6-1.3,2.8-2.8,2.8h-5.7c-1.6,0-2.8-1.3-2.8-2.8v-5.7
	C20,149,21.2,147.7,22.8,147.7z"/>
<path class="st6" d="M38.1,55.8h5.7c1.6,0,2.8,1.3,2.8,2.8v5.7c0,1.6-1.3,2.8-2.8,2.8h-5.7c-1.6,0-2.8-1.3-2.8-2.8v-5.7
	C35.3,57.1,36.5,55.8,38.1,55.8z"/>
<path class="st9" d="M38.1,71.1h5.7c1.6,0,2.8,1.3,2.8,2.8v5.7c0,1.6-1.3,2.8-2.8,2.8h-5.7c-1.6,0-2.8-1.3-2.8-2.8V74
	C35.3,72.4,36.5,71.1,38.1,71.1z"/>
<path class="st14" d="M38.1,86.5h5.7c1.6,0,2.8,1.3,2.8,2.8V95c0,1.6-1.3,2.8-2.8,2.8h-5.7c-1.6,0-2.8-1.3-2.8-2.8v-5.7
	C35.3,87.7,36.5,86.5,38.1,86.5z"/>
<path class="st11" d="M38.1,101.8h5.7c1.6,0,2.8,1.3,2.8,2.8v5.7c0,1.6-1.3,2.8-2.8,2.8h-5.7c-1.6,0-2.8-1.3-2.8-2.8v-5.7
	C35.3,103,36.5,101.8,38.1,101.8z"/>
<path class="st7" d="M38.1,117.1h5.7c1.6,0,2.8,1.3,2.8,2.8v5.7c0,1.6-1.3,2.8-2.8,2.8h-5.7c-1.6,0-2.8-1.3-2.8-2.8v-5.7
	C35.3,118.3,36.5,117.1,38.1,117.1z"/>
<path class="st8" d="M38.1,132.4h5.7c1.6,0,2.8,1.3,2.8,2.8v5.7c0,1.6-1.3,2.8-2.8,2.8h-5.7c-1.6,0-2.8-1.3-2.8-2.8v-5.7
	C35.3,133.6,36.5,132.4,38.1,132.4z"/>
<path class="st12" d="M38.1,147.7h5.7c1.6,0,2.8,1.3,2.8,2.8v5.7c0,1.6-1.3,2.8-2.8,2.8h-5.7c-1.6,0-2.8-1.3-2.8-2.8v-5.7
	C35.3,149,36.5,147.7,38.1,147.7z"/>
<path class="st13" d="M53.4,55.8h5.7c1.6,0,2.8,1.3,2.8,2.8v5.7c0,1.6-1.3,2.8-2.8,2.8h-5.7c-1.6,0-2.8-1.3-2.8-2.8v-5.7
	C50.6,57.1,51.8,55.8,53.4,55.8z"/>
<path class="st7" d="M53.4,71.1h5.7c1.6,0,2.8,1.3,2.8,2.8v5.7c0,1.6-1.3,2.8-2.8,2.8h-5.7c-1.6,0-2.8-1.3-2.8-2.8V74
	C50.6,72.4,51.8,71.1,53.4,71.1z"/>
<path class="st9" d="M53.4,86.5h5.7c1.6,0,2.8,1.3,2.8,2.8V95c0,1.6-1.3,2.8-2.8,2.8h-5.7c-1.6,0-2.8-1.3-2.8-2.8v-5.7
	C50.6,87.7,51.8,86.5,53.4,86.5z"/>
<path class="st13" d="M53.4,101.8h5.7c1.6,0,2.8,1.3,2.8,2.8v5.7c0,1.6-1.3,2.8-2.8,2.8h-5.7c-1.6,0-2.8-1.3-2.8-2.8v-5.7
	C50.6,103,51.8,101.8,53.4,101.8z"/>
<path class="st6" d="M53.4,117.1h5.7c1.6,0,2.8,1.3,2.8,2.8v5.7c0,1.6-1.3,2.8-2.8,2.8h-5.7c-1.6,0-2.8-1.3-2.8-2.8v-5.7
	C50.6,118.3,51.8,117.1,53.4,117.1z"/>
<path class="st9" d="M53.4,132.4h5.7c1.6,0,2.8,1.3,2.8,2.8v5.7c0,1.6-1.3,2.8-2.8,2.8h-5.7c-1.6,0-2.8-1.3-2.8-2.8v-5.7
	C50.6,133.6,51.8,132.4,53.4,132.4z"/>
<path class="st6" d="M53.4,147.7h5.7c1.6,0,2.8,1.3,2.8,2.8v5.7c0,1.6-1.3,2.8-2.8,2.8h-5.7c-1.6,0-2.8-1.3-2.8-2.8v-5.7
	C50.6,149,51.8,147.7,53.4,147.7z"/>
<path class="st13" d="M68.7,55.8h5.7c1.6,0,2.8,1.3,2.8,2.8v5.7c0,1.6-1.3,2.8-2.8,2.8h-5.7c-1.6,0-2.8-1.3-2.8-2.8v-5.7
	C65.9,57.1,67.1,55.8,68.7,55.8z"/>
<path class="st13" d="M68.7,71.1h5.7c1.6,0,2.8,1.3,2.8,2.8v5.7c0,1.6-1.3,2.8-2.8,2.8h-5.7c-1.6,0-2.8-1.3-2.8-2.8V74
	C65.9,72.4,67.1,71.1,68.7,71.1z"/>
<path class="st6" d="M68.7,86.5h5.7c1.6,0,2.8,1.3,2.8,2.8V95c0,1.6-1.3,2.8-2.8,2.8h-5.7c-1.6,0-2.8-1.3-2.8-2.8v-5.7
	C65.9,87.7,67.1,86.5,68.7,86.5z"/>
<path class="st10" d="M68.7,101.8h5.7c1.6,0,2.8,1.3,2.8,2.8v5.7c0,1.6-1.3,2.8-2.8,2.8h-5.7c-1.6,0-2.8-1.3-2.8-2.8v-5.7
	C65.9,103,67.1,101.8,68.7,101.8z"/>
<path class="st6" d="M68.7,117.1h5.7c1.6,0,2.8,1.3,2.8,2.8v5.7c0,1.6-1.3,2.8-2.8,2.8h-5.7c-1.6,0-2.8-1.3-2.8-2.8v-5.7
	C65.9,118.3,67.1,117.1,68.7,117.1z"/>
<path class="st10" d="M68.7,132.4h5.7c1.6,0,2.8,1.3,2.8,2.8v5.7c0,1.6-1.3,2.8-2.8,2.8h-5.7c-1.6,0-2.8-1.3-2.8-2.8v-5.7
	C65.9,133.6,67.1,132.4,68.7,132.4z"/>
<path class="st9" d="M68.7,147.7h5.7c1.6,0,2.8,1.3,2.8,2.8v5.7c0,1.6-1.3,2.8-2.8,2.8h-5.7c-1.6,0-2.8-1.3-2.8-2.8v-5.7
	C65.9,149,67.1,147.7,68.7,147.7z"/>
<text transform="matrix(1 0 0 1 81.184 51.8744)" class="st3 st5">Feb</text>
<path class="st10" d="M84,55.8h5.7c1.6,0,2.8,1.3,2.8,2.8v5.7c0,1.6-1.3,2.8-2.8,2.8H84c-1.6,0-2.8-1.3-2.8-2.8v-5.7
	C81.2,57.1,82.5,55.8,84,55.8z"/>
<path class="st10" d="M84,71.1h5.7c1.6,0,2.8,1.3,2.8,2.8v5.7c0,1.6-1.3,2.8-2.8,2.8H84c-1.6,0-2.8-1.3-2.8-2.8V74
	C81.2,72.4,82.5,71.1,84,71.1z"/>
<path class="st10" d="M84,86.5h5.7c1.6,0,2.8,1.3,2.8,2.8V95c0,1.6-1.3,2.8-2.8,2.8H84c-1.6,0-2.8-1.3-2.8-2.8v-5.7
	C81.2,87.7,82.5,86.5,84,86.5z"/>
<path class="st9" d="M84,101.8h5.7c1.6,0,2.8,1.3,2.8,2.8v5.7c0,1.6-1.3,2.8-2.8,2.8H84c-1.6,0-2.8-1.3-2.8-2.8v-5.7
	C81.2,103,82.5,101.8,84,101.8z"/>
<path class="st12" d="M84,117.1h5.7c1.6,0,2.8,1.3,2.8,2.8v5.7c0,1.6-1.3,2.8-2.8,2.8H84c-1.6,0-2.8-1.3-2.8-2.8v-5.7
	C81.2,118.3,82.5,117.1,84,117.1z"/>
<path class="st10" d="M84,132.4h5.7c1.6,0,2.8,1.3,2.8,2.8v5.7c0,1.6-1.3,2.8-2.8,2.8H84c-1.6,0-2.8-1.3-2.8-2.8v-5.7
	C81.2,133.6,82.5,132.4,84,132.4z"/>
<path class="st6" d="M84,147.7h5.7c1.6,0,2.8,1.3,2.8,2.8v5.7c0,1.6-1.3,2.8-2.8,2.8H84c-1.6,0-2.8-1.3-2.8-2.8v-5.7
	C81.2,149,82.5,147.7,84,147.7z"/>
<path class="st13" d="M99.3,55.8h5.7c1.6,0,2.8,1.3,2.8,2.8v5.7c0,1.6-1.3,2.8-2.8,2.8h-5.7c-1.6,0-2.8-1.3-2.8-2.8v-5.7
	C96.5,57.1,97.8,55.8,99.3,55.8z"/>
<path class="st10" d="M99.3,71.1h5.7c1.6,0,2.8,1.3,2.8,2.8v5.7c0,1.6-1.3,2.8-2.8,2.8h-5.7c-1.6,0-2.8-1.3-2.8-2.8V74
	C96.5,72.4,97.8,71.1,99.3,71.1z"/>
<path class="st13" d="M99.3,86.5h5.7c1.6,0,2.8,1.3,2.8,2.8V95c0,1.6-1.3,2.8-2.8,2.8h-5.7c-1.6,0-2.8-1.3-2.8-2.8v-5.7
	C96.5,87.7,97.8,86.5,99.3,86.5z"/>
<path class="st10" d="M99.3,101.8h5.7c1.6,0,2.8,1.3,2.8,2.8v5.7c0,1.6-1.3,2.8-2.8,2.8h-5.7c-1.6,0-2.8-1.3-2.8-2.8v-5.7
	C96.5,103,97.8,101.8,99.3,101.8z"/>
<path class="st13" d="M99.3,117.1h5.7c1.6,0,2.8,1.3,2.8,2.8v5.7c0,1.6-1.3,2.8-2.8,2.8h-5.7c-1.6,0-2.8-1.3-2.8-2.8v-5.7
	C96.5,118.3,97.8,117.1,99.3,117.1z"/>
<path class="st13" d="M99.3,132.4h5.7c1.6,0,2.8,1.3,2.8,2.8v5.7c0,1.6-1.3,2.8-2.8,2.8h-5.7c-1.6,0-2.8-1.3-2.8-2.8v-5.7
	C96.5,133.6,97.8,132.4,99.3,132.4z"/>
<path class="st10" d="M99.3,147.7h5.7c1.6,0,2.8,1.3,2.8,2.8v5.7c0,1.6-1.3,2.8-2.8,2.8h-5.7c-1.6,0-2.8-1.3-2.8-2.8v-5.7
	C96.5,149,97.8,147.7,99.3,147.7z"/>
<path class="st7" d="M114.6,55.8h5.7c1.6,0,2.8,1.3,2.8,2.8v5.7c0,1.6-1.3,2.8-2.8,2.8h-5.7c-1.6,0-2.8-1.3-2.8-2.8v-5.7
	C111.8,57.1,113.1,55.8,114.6,55.8z"/>
<path class="st8" d="M114.6,71.1h5.7c1.6,0,2.8,1.3,2.8,2.8v5.7c0,1.6-1.3,2.8-2.8,2.8h-5.7c-1.6,0-2.8-1.3-2.8-2.8V74
	C111.8,72.4,113.1,71.1,114.6,71.1z"/>
<path class="st12" d="M114.6,86.5h5.7c1.6,0,2.8,1.3,2.8,2.8V95c0,1.6-1.3,2.8-2.8,2.8h-5.7c-1.6,0-2.8-1.3-2.8-2.8v-5.7
	C111.8,87.7,113.1,86.5,114.6,86.5z"/>
<path class="st13" d="M114.6,101.8h5.7c1.6,0,2.8,1.3,2.8,2.8v5.7c0,1.6-1.3,2.8-2.8,2.8h-5.7c-1.6,0-2.8-1.3-2.8-2.8v-5.7
	C111.8,103,113.1,101.8,114.6,101.8z"/>
<path class="st13" d="M114.6,117.1h5.7c1.6,0,2.8,1.3,2.8,2.8v5.7c0,1.6-1.3,2.8-2.8,2.8h-5.7c-1.6,0-2.8-1.3-2.8-2.8v-5.7
	C111.8,118.3,113.1,117.1,114.6,117.1z"/>
<path class="st13" d="M114.6,132.4h5.7c1.6,0,2.8,1.3,2.8,2.8v5.7c0,1.6-1.3,2.8-2.8,2.8h-5.7c-1.6,0-2.8-1.3-2.8-2.8v-5.7
	C111.8,133.6,113.1,132.4,114.6,132.4z"/>
<path class="st9" d="M114.6,147.7h5.7c1.6,0,2.8,1.3,2.8,2.8v5.7c0,1.6-1.3,2.8-2.8,2.8h-5.7c-1.6,0-2.8-1.3-2.8-2.8v-5.7
	C111.8,149,113.1,147.7,114.6,147.7z"/>
<path class="st13" d="M129.9,55.8h5.7c1.6,0,2.8,1.3,2.8,2.8v5.7c0,1.6-1.3,2.8-2.8,2.8h-5.7c-1.6,0-2.8-1.3-2.8-2.8v-5.7
	C127.1,57.1,128.4,55.8,129.9,55.8z"/>
<path class="st8" d="M129.9,71.1h5.7c1.6,0,2.8,1.3,2.8,2.8v5.7c0,1.6-1.3,2.8-2.8,2.8h-5.7c-1.6,0-2.8-1.3-2.8-2.8V74
	C127.1,72.4,128.4,71.1,129.9,71.1z"/>
<path class="st8" d="M129.9,86.5h5.7c1.6,0,2.8,1.3,2.8,2.8V95c0,1.6-1.3,2.8-2.8,2.8h-5.7c-1.6,0-2.8-1.3-2.8-2.8v-5.7
	C127.1,87.7,128.4,86.5,129.9,86.5z"/>
<path class="st7" d="M129.9,101.8h5.7c1.6,0,2.8,1.3,2.8,2.8v5.7c0,1.6-1.3,2.8-2.8,2.8h-5.7c-1.6,0-2.8-1.3-2.8-2.8v-5.7
	C127.1,103,128.4,101.8,129.9,101.8z"/>
<path class="st12" d="M129.9,117.1h5.7c1.6,0,2.8,1.3,2.8,2.8v5.7c0,1.6-1.3,2.8-2.8,2.8h-5.7c-1.6,0-2.8-1.3-2.8-2.8v-5.7
	C127.1,118.3,128.4,117.1,129.9,117.1z"/>
<path class="st9" d="M129.9,132.4h5.7c1.6,0,2.8,1.3,2.8,2.8v5.7c0,1.6-1.3,2.8-2.8,2.8h-5.7c-1.6,0-2.8-1.3-2.8-2.8v-5.7
	C127.1,133.6,128.4,132.4,129.9,132.4z"/>
<path class="st15" d="M129.9,147.7h5.7c1.6,0,2.8,1.3,2.8,2.8v5.7c0,1.6-1.3,2.8-2.8,2.8h-5.7c-1.6,0-2.8-1.3-2.8-2.8v-5.7
	C127.1,149,128.4,147.7,129.9,147.7z"/>
<text transform="matrix(1 0 0 1 142.4126 51.8744)" class="st3 st5">Mar</text>
<path class="st10" d="M145.2,55.8h5.7c1.6,0,2.8,1.3,2.8,2.8v5.7c0,1.6-1.3,2.8-2.8,2.8h-5.7c-1.6,0-2.8-1.3-2.8-2.8v-5.7
	C142.4,57.1,143.7,55.8,145.2,55.8z"/>
<path class="st13" d="M145.2,71.1h5.7c1.6,0,2.8,1.3,2.8,2.8v5.7c0,1.6-1.3,2.8-2.8,2.8h-5.7c-1.6,0-2.8-1.3-2.8-2.8V74
	C142.4,72.4,143.7,71.1,145.2,71.1z"/>
<path class="st6" d="M145.2,86.5h5.7c1.6,0,2.8,1.3,2.8,2.8V95c0,1.6-1.3,2.8-2.8,2.8h-5.7c-1.6,0-2.8-1.3-2.8-2.8v-5.7
	C142.4,87.7,143.7,86.5,145.2,86.5z"/>
<path class="st12" d="M145.2,101.8h5.7c1.6,0,2.8,1.3,2.8,2.8v5.7c0,1.6-1.3,2.8-2.8,2.8h-5.7c-1.6,0-2.8-1.3-2.8-2.8v-5.7
	C142.4,103,143.7,101.8,145.2,101.8z"/>
<path class="st13" d="M145.2,117.1h5.7c1.6,0,2.8,1.3,2.8,2.8v5.7c0,1.6-1.3,2.8-2.8,2.8h-5.7c-1.6,0-2.8-1.3-2.8-2.8v-5.7
	C142.4,118.3,143.7,117.1,145.2,117.1z"/>
<path class="st10" d="M145.2,132.4h5.7c1.6,0,2.8,1.3,2.8,2.8v5.7c0,1.6-1.3,2.8-2.8,2.8h-5.7c-1.6,0-2.8-1.3-2.8-2.8v-5.7
	C142.4,133.6,143.7,132.4,145.2,132.4z"/>
<path class="st12" d="M145.2,147.7h5.7c1.6,0,2.8,1.3,2.8,2.8v5.7c0,1.6-1.3,2.8-2.8,2.8h-5.7c-1.6,0-2.8-1.3-2.8-2.8v-5.7
	C142.4,149,143.7,147.7,145.2,147.7z"/>
<path class="st12" d="M160.6,55.8h5.7c1.6,0,2.8,1.3,2.8,2.8v5.7c0,1.6-1.3,2.8-2.8,2.8h-5.7c-1.6,0-2.8-1.3-2.8-2.8v-5.7
	C157.7,57.1,159,55.8,160.6,55.8z"/>
<path class="st7" d="M160.6,71.1h5.7c1.6,0,2.8,1.3,2.8,2.8v5.7c0,1.6-1.3,2.8-2.8,2.8h-5.7c-1.6,0-2.8-1.3-2.8-2.8V74
	C157.7,72.4,159,71.1,160.6,71.1z"/>
<path class="st7" d="M160.6,86.5h5.7c1.6,0,2.8,1.3,2.8,2.8V95c0,1.6-1.3,2.8-2.8,2.8h-5.7c-1.6,0-2.8-1.3-2.8-2.8v-5.7
	C157.7,87.7,159,86.5,160.6,86.5z"/>
<path class="st12" d="M160.6,101.8h5.7c1.6,0,2.8,1.3,2.8,2.8v5.7c0,1.6-1.3,2.8-2.8,2.8h-5.7c-1.6,0-2.8-1.3-2.8-2.8v-5.7
	C157.7,103,159,101.8,160.6,101.8z"/>
<path class="st12" d="M160.6,117.1h5.7c1.6,0,2.8,1.3,2.8,2.8v5.7c0,1.6-1.3,2.8-2.8,2.8h-5.7c-1.6,0-2.8-1.3-2.8-2.8v-5.7
	C157.7,118.3,159,117.1,160.6,117.1z"/>
<path class="st12" d="M160.6,132.4h5.7c1.6,0,2.8,1.3,2.8,2.8v5.7c0,1.6-1.3,2.8-2.8,2.8h-5.7c-1.6,0-2.8-1.3-2.8-2.8v-5.7
	C157.7,133.6,159,132.4,160.6,132.4z"/>
<path class="st8" d="M160.6,147.7h5.7c1.6,0,2.8,1.3,2.8,2.8v5.7c0,1.6-1.3,2.8-2.8,2.8h-5.7c-1.6,0-2.8-1.3-2.8-2.8v-5.7
	C157.7,149,159,147.7,160.6,147.7z"/>
<path class="st12" d="M175.9,55.8h5.7c1.6,0,2.8,1.3,2.8,2.8v5.7c0,1.6-1.3,2.8-2.8,2.8h-5.7c-1.6,0-2.8-1.3-2.8-2.8v-5.7
	C173,57.1,174.3,55.8,175.9,55.8z"/>
<path class="st12" d="M175.9,71.1h5.7c1.6,0,2.8,1.3,2.8,2.8v5.7c0,1.6-1.3,2.8-2.8,2.8h-5.7c-1.6,0-2.8-1.3-2.8-2.8V74
	C173,72.4,174.3,71.1,175.9,71.1z"/>
<path class="st12" d="M175.9,86.5h5.7c1.6,0,2.8,1.3,2.8,2.8V95c0,1.6-1.3,2.8-2.8,2.8h-5.7c-1.6,0-2.8-1.3-2.8-2.8v-5.7
	C173,87.7,174.3,86.5,175.9,86.5z"/>
<path class="st12" d="M175.9,101.8h5.7c1.6,0,2.8,1.3,2.8,2.8v5.7c0,1.6-1.3,2.8-2.8,2.8h-5.7c-1.6,0-2.8-1.3-2.8-2.8v-5.7
	C173,103,174.3,101.8,175.9,101.8z"/>
<path class="st12" d="M175.9,117.1h5.7c1.6,0,2.8,1.3,2.8,2.8v5.7c0,1.6-1.3,2.8-2.8,2.8h-5.7c-1.6,0-2.8-1.3-2.8-2.8v-5.7
	C173,118.3,174.3,117.1,175.9,117.1z"/>
<path class="st12" d="M175.9,132.4h5.7c1.6,0,2.8,1.3,2.8,2.8v5.7c0,1.6-1.3,2.8-2.8,2.8h-5.7c-1.6,0-2.8-1.3-2.8-2.8v-5.7
	C173,133.6,174.3,132.4,175.9,132.4z"/>
<path class="st12" d="M175.9,147.7h5.7c1.6,0,2.8,1.3,2.8,2.8v5.7c0,1.6-1.3,2.8-2.8,2.8h-5.7c-1.6,0-2.8-1.3-2.8-2.8v-5.7
	C173,149,174.3,147.7,175.9,147.7z"/>
<path class="st12" d="M191.2,55.8h5.7c1.6,0,2.8,1.3,2.8,2.8v5.7c0,1.6-1.3,2.8-2.8,2.8h-5.7c-1.6,0-2.8-1.3-2.8-2.8v-5.7
	C188.3,57.1,189.6,55.8,191.2,55.8z"/>
<path class="st12" d="M191.2,71.1h5.7c1.6,0,2.8,1.3,2.8,2.8v5.7c0,1.6-1.3,2.8-2.8,2.8h-5.7c-1.6,0-2.8-1.3-2.8-2.8V74
	C188.3,72.4,189.6,71.1,191.2,71.1z"/>
<path class="st7" d="M191.2,86.5h5.7c1.6,0,2.8,1.3,2.8,2.8V95c0,1.6-1.3,2.8-2.8,2.8h-5.7c-1.6,0-2.8-1.3-2.8-2.8v-5.7
	C188.3,87.7,189.6,86.5,191.2,86.5z"/>
<path class="st12" d="M191.2,101.8h5.7c1.6,0,2.8,1.3,2.8,2.8v5.7c0,1.6-1.3,2.8-2.8,2.8h-5.7c-1.6,0-2.8-1.3-2.8-2.8v-5.7
	C188.3,103,189.6,101.8,191.2,101.8z"/>
<path class="st12" d="M191.2,117.1h5.7c1.6,0,2.8,1.3,2.8,2.8v5.7c0,1.6-1.3,2.8-2.8,2.8h-5.7c-1.6,0-2.8-1.3-2.8-2.8v-5.7
	C188.3,118.3,189.6,117.1,191.2,117.1z"/>
<path class="st12" d="M191.2,132.4h5.7c1.6,0,2.8,1.3,2.8,2.8v5.7c0,1.6-1.3,2.8-2.8,2.8h-5.7c-1.6,0-2.8-1.3-2.8-2.8v-5.7
	C188.3,133.6,189.6,132.4,191.2,132.4z"/>
<path class="st12" d="M191.2,147.7h5.7c1.6,0,2.8,1.3,2.8,2.8v5.7c0,1.6-1.3,2.8-2.8,2.8h-5.7c-1.6,0-2.8-1.3-2.8-2.8v-5.7
	C188.3,149,189.6,147.7,191.2,147.7z"/>
<text transform="matrix(1 0 0 1 203.6401 51.8744)" class="st3 st5">Apr</text>
<path class="st12" d="M206.5,55.8h5.7c1.6,0,2.8,1.3,2.8,2.8v5.7c0,1.6-1.3,2.8-2.8,2.8h-5.7c-1.6,0-2.8-1.3-2.8-2.8v-5.7
	C203.6,57.1,204.9,55.8,206.5,55.8z"/>
<path class="st10" d="M206.5,71.1h5.7c1.6,0,2.8,1.3,2.8,2.8v5.7c0,1.6-1.3,2.8-2.8,2.8h-5.7c-1.6,0-2.8-1.3-2.8-2.8V74
	C203.6,72.4,204.9,71.1,206.5,71.1z"/>
<path class="st12" d="M206.5,86.5h5.7c1.6,0,2.8,1.3,2.8,2.8V95c0,1.6-1.3,2.8-2.8,2.8h-5.7c-1.6,0-2.8-1.3-2.8-2.8v-5.7
	C203.6,87.7,204.9,86.5,206.5,86.5z"/>
<path class="st7" d="M206.5,101.8h5.7c1.6,0,2.8,1.3,2.8,2.8v5.7c0,1.6-1.3,2.8-2.8,2.8h-5.7c-1.6,0-2.8-1.3-2.8-2.8v-5.7
	C203.6,103,204.9,101.8,206.5,101.8z"/>
<path class="st12" d="M206.5,117.1h5.7c1.6,0,2.8,1.3,2.8,2.8v5.7c0,1.6-1.3,2.8-2.8,2.8h-5.7c-1.6,0-2.8-1.3-2.8-2.8v-5.7
	C203.6,118.3,204.9,117.1,206.5,117.1z"/>
<path class="st12" d="M206.5,132.4h5.7c1.6,0,2.8,1.3,2.8,2.8v5.7c0,1.6-1.3,2.8-2.8,2.8h-5.7c-1.6,0-2.8-1.3-2.8-2.8v-5.7
	C203.6,133.6,204.9,132.4,206.5,132.4z"/>
<path class="st12" d="M206.5,147.7h5.7c1.6,0,2.8,1.3,2.8,2.8v5.7c0,1.6-1.3,2.8-2.8,2.8h-5.7c-1.6,0-2.8-1.3-2.8-2.8v-5.7
	C203.6,149,204.9,147.7,206.5,147.7z"/>
<path class="st7" d="M221.8,55.8h5.7c1.6,0,2.8,1.3,2.8,2.8v5.7c0,1.6-1.3,2.8-2.8,2.8h-5.7c-1.6,0-2.8-1.3-2.8-2.8v-5.7
	C218.9,57.1,220.2,55.8,221.8,55.8z"/>
<path class="st12" d="M221.8,71.1h5.7c1.6,0,2.8,1.3,2.8,2.8v5.7c0,1.6-1.3,2.8-2.8,2.8h-5.7c-1.6,0-2.8-1.3-2.8-2.8V74
	C218.9,72.4,220.2,71.1,221.8,71.1z"/>
<path class="st8" d="M221.8,86.5h5.7c1.6,0,2.8,1.3,2.8,2.8V95c0,1.6-1.3,2.8-2.8,2.8h-5.7c-1.6,0-2.8-1.3-2.8-2.8v-5.7
	C218.9,87.7,220.2,86.5,221.8,86.5z"/>
<path class="st7" d="M221.8,101.8h5.7c1.6,0,2.8,1.3,2.8,2.8v5.7c0,1.6-1.3,2.8-2.8,2.8h-5.7c-1.6,0-2.8-1.3-2.8-2.8v-5.7
	C218.9,103,220.2,101.8,221.8,101.8z"/>
<path class="st7" d="M221.8,117.1h5.7c1.6,0,2.8,1.3,2.8,2.8v5.7c0,1.6-1.3,2.8-2.8,2.8h-5.7c-1.6,0-2.8-1.3-2.8-2.8v-5.7
	C218.9,118.3,220.2,117.1,221.8,117.1z"/>
<path class="st11" d="M221.8,132.4h5.7c1.6,0,2.8,1.3,2.8,2.8v5.7c0,1.6-1.3,2.8-2.8,2.8h-5.7c-1.6,0-2.8-1.3-2.8-2.8v-5.7
	C218.9,133.6,220.2,132.4,221.8,132.4z"/>
<path class="st13" d="M221.8,147.7h5.7c1.6,0,2.8,1.3,2.8,2.8v5.7c0,1.6-1.3,2.8-2.8,2.8h-5.7c-1.6,0-2.8-1.3-2.8-2.8v-5.7
	C218.9,149,220.2,147.7,221.8,147.7z"/>
<path class="st12" d="M237.1,55.8h5.7c1.6,0,2.8,1.3,2.8,2.8v5.7c0,1.6-1.3,2.8-2.8,2.8h-5.7c-1.6,0-2.8-1.3-2.8-2.8v-5.7
	C234.3,57.1,235.5,55.8,237.1,55.8z"/>
<path class="st6" d="M237.1,71.1h5.7c1.6,0,2.8,1.3,2.8,2.8v5.7c0,1.6-1.3,2.8-2.8,2.8h-5.7c-1.6,0-2.8-1.3-2.8-2.8V74
	C234.3,72.4,235.5,71.1,237.1,71.1z"/>
<path class="st6" d="M237.1,86.5h5.7c1.6,0,2.8,1.3,2.8,2.8V95c0,1.6-1.3,2.8-2.8,2.8h-5.7c-1.6,0-2.8-1.3-2.8-2.8v-5.7
	C234.3,87.7,235.5,86.5,237.1,86.5z"/>
<path class="st9" d="M237.1,101.8h5.7c1.6,0,2.8,1.3,2.8,2.8v5.7c0,1.6-1.3,2.8-2.8,2.8h-5.7c-1.6,0-2.8-1.3-2.8-2.8v-5.7
	C234.3,103,235.5,101.8,237.1,101.8z"/>
<path class="st12" d="M237.1,117.1h5.7c1.6,0,2.8,1.3,2.8,2.8v5.7c0,1.6-1.3,2.8-2.8,2.8h-5.7c-1.6,0-2.8-1.3-2.8-2.8v-5.7
	C234.3,118.3,235.5,117.1,237.1,117.1z"/>
<path class="st9" d="M237.1,132.4h5.7c1.6,0,2.8,1.3,2.8,2.8v5.7c0,1.6-1.3,2.8-2.8,2.8h-5.7c-1.6,0-2.8-1.3-2.8-2.8v-5.7
	C234.3,133.6,235.5,132.4,237.1,132.4z"/>
<path class="st9" d="M237.1,147.7h5.7c1.6,0,2.8,1.3,2.8,2.8v5.7c0,1.6-1.3,2.8-2.8,2.8h-5.7c-1.6,0-2.8-1.3-2.8-2.8v-5.7
	C234.3,149,235.5,147.7,237.1,147.7z"/>
<path class="st7" d="M252.4,55.8h5.7c1.6,0,2.8,1.3,2.8,2.8v5.7c0,1.6-1.3,2.8-2.8,2.8h-5.7c-1.6,0-2.8-1.3-2.8-2.8v-5.7
	C249.6,57.1,250.8,55.8,252.4,55.8z"/>
<path class="st7" d="M252.4,71.1h5.7c1.6,0,2.8,1.3,2.8,2.8v5.7c0,1.6-1.3,2.8-2.8,2.8h-5.7c-1.6,0-2.8-1.3-2.8-2.8V74
	C249.6,72.4,250.8,71.1,252.4,71.1z"/>
<path class="st12" d="M252.4,86.5h5.7c1.6,0,2.8,1.3,2.8,2.8V95c0,1.6-1.3,2.8-2.8,2.8h-5.7c-1.6,0-2.8-1.3-2.8-2.8v-5.7
	C249.6,87.7,250.8,86.5,252.4,86.5z"/>
<path class="st8" d="M252.4,101.8h5.7c1.6,0,2.8,1.3,2.8,2.8v5.7c0,1.6-1.3,2.8-2.8,2.8h-5.7c-1.6,0-2.8-1.3-2.8-2.8v-5.7
	C249.6,103,250.8,101.8,252.4,101.8z"/>
<path class="st7" d="M252.4,117.1h5.7c1.6,0,2.8,1.3,2.8,2.8v5.7c0,1.6-1.3,2.8-2.8,2.8h-5.7c-1.6,0-2.8-1.3-2.8-2.8v-5.7
	C249.6,118.3,250.8,117.1,252.4,117.1z"/>
<path class="st13" d="M252.4,132.4h5.7c1.6,0,2.8,1.3,2.8,2.8v5.7c0,1.6-1.3,2.8-2.8,2.8h-5.7c-1.6,0-2.8-1.3-2.8-2.8v-5.7
	C249.6,133.6,250.8,132.4,252.4,132.4z"/>
<path class="st12" d="M252.4,147.7h5.7c1.6,0,2.8,1.3,2.8,2.8v5.7c0,1.6-1.3,2.8-2.8,2.8h-5.7c-1.6,0-2.8-1.3-2.8-2.8v-5.7
	C249.6,149,250.8,147.7,252.4,147.7z"/>
<path class="st13" d="M267.7,55.8h5.7c1.6,0,2.8,1.3,2.8,2.8v5.7c0,1.6-1.3,2.8-2.8,2.8h-5.7c-1.6,0-2.8-1.3-2.8-2.8v-5.7
	C264.9,57.1,266.1,55.8,267.7,55.8z"/>
<path class="st7" d="M267.7,71.1h5.7c1.6,0,2.8,1.3,2.8,2.8v5.7c0,1.6-1.3,2.8-2.8,2.8h-5.7c-1.6,0-2.8-1.3-2.8-2.8V74
	C264.9,72.4,266.1,71.1,267.7,71.1z"/>
<path class="st11" d="M267.7,86.5h5.7c1.6,0,2.8,1.3,2.8,2.8V95c0,1.6-1.3,2.8-2.8,2.8h-5.7c-1.6,0-2.8-1.3-2.8-2.8v-5.7
	C264.9,87.7,266.1,86.5,267.7,86.5z"/>
<path class="st9" d="M267.7,101.8h5.7c1.6,0,2.8,1.3,2.8,2.8v5.7c0,1.6-1.3,2.8-2.8,2.8h-5.7c-1.6,0-2.8-1.3-2.8-2.8v-5.7
	C264.9,103,266.1,101.8,267.7,101.8z"/>
<path class="st12" d="M267.7,117.1h5.7c1.6,0,2.8,1.3,2.8,2.8v5.7c0,1.6-1.3,2.8-2.8,2.8h-5.7c-1.6,0-2.8-1.3-2.8-2.8v-5.7
	C264.9,118.3,266.1,117.1,267.7,117.1z"/>
<path class="st13" d="M267.7,132.4h5.7c1.6,0,2.8,1.3,2.8,2.8v5.7c0,1.6-1.3,2.8-2.8,2.8h-5.7c-1.6,0-2.8-1.3-2.8-2.8v-5.7
	C264.9,133.6,266.1,132.4,267.7,132.4z"/>
<path class="st13" d="M267.7,147.7h5.7c1.6,0,2.8,1.3,2.8,2.8v5.7c0,1.6-1.3,2.8-2.8,2.8h-5.7c-1.6,0-2.8-1.3-2.8-2.8v-5.7
	C264.9,149,266.1,147.7,267.7,147.7z"/>
<text transform="matrix(1 0 0 1 280.1762 51.8744)" class="st3 st5">May</text>
<path class="st12" d="M283,55.8h5.7c1.6,0,2.8,1.3,2.8,2.8v5.7c0,1.6-1.3,2.8-2.8,2.8H283c-1.6,0-2.8-1.3-2.8-2.8v-5.7
	C280.2,57.1,281.4,55.8,283,55.8z"/>
<path class="st12" d="M283,71.1h5.7c1.6,0,2.8,1.3,2.8,2.8v5.7c0,1.6-1.3,2.8-2.8,2.8H283c-1.6,0-2.8-1.3-2.8-2.8V74
	C280.2,72.4,281.4,71.1,283,71.1z"/>
<path class="st6" d="M283,86.5h5.7c1.6,0,2.8,1.3,2.8,2.8V95c0,1.6-1.3,2.8-2.8,2.8H283c-1.6,0-2.8-1.3-2.8-2.8v-5.7
	C280.2,87.7,281.4,86.5,283,86.5z"/>
<path class="st12" d="M283,101.8h5.7c1.6,0,2.8,1.3,2.8,2.8v5.7c0,1.6-1.3,2.8-2.8,2.8H283c-1.6,0-2.8-1.3-2.8-2.8v-5.7
	C280.2,103,281.4,101.8,283,101.8z"/>
<path class="st6" d="M283,117.1h5.7c1.6,0,2.8,1.3,2.8,2.8v5.7c0,1.6-1.3,2.8-2.8,2.8H283c-1.6,0-2.8-1.3-2.8-2.8v-5.7
	C280.2,118.3,281.4,117.1,283,117.1z"/>
<path class="st12" d="M283,132.4h5.7c1.6,0,2.8,1.3,2.8,2.8v5.7c0,1.6-1.3,2.8-2.8,2.8H283c-1.6,0-2.8-1.3-2.8-2.8v-5.7
	C280.2,133.6,281.4,132.4,283,132.4z"/>
<path class="st12" d="M283,147.7h5.7c1.6,0,2.8,1.3,2.8,2.8v5.7c0,1.6-1.3,2.8-2.8,2.8H283c-1.6,0-2.8-1.3-2.8-2.8v-5.7
	C280.2,149,281.4,147.7,283,147.7z"/>
<path class="st12" d="M298.3,55.8h5.7c1.6,0,2.8,1.3,2.8,2.8v5.7c0,1.6-1.3,2.8-2.8,2.8h-5.7c-1.6,0-2.8-1.3-2.8-2.8v-5.7
	C295.5,57.1,296.8,55.8,298.3,55.8z"/>
<path class="st11" d="M298.3,71.1h5.7c1.6,0,2.8,1.3,2.8,2.8v5.7c0,1.6-1.3,2.8-2.8,2.8h-5.7c-1.6,0-2.8-1.3-2.8-2.8V74
	C295.5,72.4,296.8,71.1,298.3,71.1z"/>
<path class="st15" d="M298.3,86.5h5.7c1.6,0,2.8,1.3,2.8,2.8V95c0,1.6-1.3,2.8-2.8,2.8h-5.7c-1.6,0-2.8-1.3-2.8-2.8v-5.7
	C295.5,87.7,296.8,86.5,298.3,86.5z"/>
<path class="st12" d="M298.3,101.8h5.7c1.6,0,2.8,1.3,2.8,2.8v5.7c0,1.6-1.3,2.8-2.8,2.8h-5.7c-1.6,0-2.8-1.3-2.8-2.8v-5.7
	C295.5,103,296.8,101.8,298.3,101.8z"/>
<path class="st12" d="M298.3,117.1h5.7c1.6,0,2.8,1.3,2.8,2.8v5.7c0,1.6-1.3,2.8-2.8,2.8h-5.7c-1.6,0-2.8-1.3-2.8-2.8v-5.7
	C295.5,118.3,296.8,117.1,298.3,117.1z"/>
<path class="st6" d="M298.3,132.4h5.7c1.6,0,2.8,1.3,2.8,2.8v5.7c0,1.6-1.3,2.8-2.8,2.8h-5.7c-1.6,0-2.8-1.3-2.8-2.8v-5.7
	C295.5,133.6,296.8,132.4,298.3,132.4z"/>
<path class="st6" d="M298.3,147.7h5.7c1.6,0,2.8,1.3,2.8,2.8v5.7c0,1.6-1.3,2.8-2.8,2.8h-5.7c-1.6,0-2.8-1.3-2.8-2.8v-5.7
	C295.5,149,296.8,147.7,298.3,147.7z"/>
<path class="st9" d="M313.6,55.8h5.7c1.6,0,2.8,1.3,2.8,2.8v5.7c0,1.6-1.3,2.8-2.8,2.8h-5.7c-1.6,0-2.8-1.3-2.8-2.8v-5.7
	C310.8,57.1,312.1,55.8,313.6,55.8z"/>
<path class="st6" d="M313.6,71.1h5.7c1.6,0,2.8,1.3,2.8,2.8v5.7c0,1.6-1.3,2.8-2.8,2.8h-5.7c-1.6,0-2.8-1.3-2.8-2.8V74
	C310.8,72.4,312.1,71.1,313.6,71.1z"/>
<path class="st13" d="M313.6,86.5h5.7c1.6,0,2.8,1.3,2.8,2.8V95c0,1.6-1.3,2.8-2.8,2.8h-5.7c-1.6,0-2.8-1.3-2.8-2.8v-5.7
	C310.8,87.7,312.1,86.5,313.6,86.5z"/>
<path class="st11" d="M313.6,101.8h5.7c1.6,0,2.8,1.3,2.8,2.8v5.7c0,1.6-1.3,2.8-2.8,2.8h-5.7c-1.6,0-2.8-1.3-2.8-2.8v-5.7
	C310.8,103,312.1,101.8,313.6,101.8z"/>
<path class="st12" d="M313.6,117.1h5.7c1.6,0,2.8,1.3,2.8,2.8v5.7c0,1.6-1.3,2.8-2.8,2.8h-5.7c-1.6,0-2.8-1.3-2.8-2.8v-5.7
	C310.8,118.3,312.1,117.1,313.6,117.1z"/>
<path class="st6" d="M313.6,132.4h5.7c1.6,0,2.8,1.3,2.8,2.8v5.7c0,1.6-1.3,2.8-2.8,2.8h-5.7c-1.6,0-2.8-1.3-2.8-2.8v-5.7
	C310.8,133.6,312.1,132.4,313.6,132.4z"/>
<path class="st12" d="M313.6,147.7h5.7c1.6,0,2.8,1.3,2.8,2.8v5.7c0,1.6-1.3,2.8-2.8,2.8h-5.7c-1.6,0-2.8-1.3-2.8-2.8v-5.7
	C310.8,149,312.1,147.7,313.6,147.7z"/>
<path class="st9" d="M328.9,55.8h5.7c1.6,0,2.8,1.3,2.8,2.8v5.7c0,1.6-1.3,2.8-2.8,2.8h-5.7c-1.6,0-2.8-1.3-2.8-2.8v-5.7
	C326.1,57.1,327.4,55.8,328.9,55.8z"/>
<path class="st12" d="M328.9,71.1h5.7c1.6,0,2.8,1.3,2.8,2.8v5.7c0,1.6-1.3,2.8-2.8,2.8h-5.7c-1.6,0-2.8-1.3-2.8-2.8V74
	C326.1,72.4,327.4,71.1,328.9,71.1z"/>
<path class="st13" d="M328.9,86.5h5.7c1.6,0,2.8,1.3,2.8,2.8V95c0,1.6-1.3,2.8-2.8,2.8h-5.7c-1.6,0-2.8-1.3-2.8-2.8v-5.7
	C326.1,87.7,327.4,86.5,328.9,86.5z"/>
<path class="st12" d="M328.9,101.8h5.7c1.6,0,2.8,1.3,2.8,2.8v5.7c0,1.6-1.3,2.8-2.8,2.8h-5.7c-1.6,0-2.8-1.3-2.8-2.8v-5.7
	C326.1,103,327.4,101.8,328.9,101.8z"/>
<path class="st11" d="M328.9,117.1h5.7c1.6,0,2.8,1.3,2.8,2.8v5.7c0,1.6-1.3,2.8-2.8,2.8h-5.7c-1.6,0-2.8-1.3-2.8-2.8v-5.7
	C326.1,118.3,327.4,117.1,328.9,117.1z"/>
<path class="st7" d="M328.9,132.4h5.7c1.6,0,2.8,1.3,2.8,2.8v5.7c0,1.6-1.3,2.8-2.8,2.8h-5.7c-1.6,0-2.8-1.3-2.8-2.8v-5.7
	C326.1,133.6,327.4,132.4,328.9,132.4z"/>
<path class="st12" d="M328.9,147.7h5.7c1.6,0,2.8,1.3,2.8,2.8v5.7c0,1.6-1.3,2.8-2.8,2.8h-5.7c-1.6,0-2.8-1.3-2.8-2.8v-5.7
	C326.1,149,327.4,147.7,328.9,147.7z"/>
<text transform="matrix(1 0 0 1 341.4048 51.8744)" class="st3 st5">Jun</text>
<path class="st8" d="M344.2,55.8h5.7c1.6,0,2.8,1.3,2.8,2.8v5.7c0,1.6-1.3,2.8-2.8,2.8h-5.7c-1.6,0-2.8-1.3-2.8-2.8v-5.7
	C341.4,57.1,342.7,55.8,344.2,55.8z"/>
<path class="st11" d="M344.2,71.1h5.7c1.6,0,2.8,1.3,2.8,2.8v5.7c0,1.6-1.3,2.8-2.8,2.8h-5.7c-1.6,0-2.8-1.3-2.8-2.8V74
	C341.4,72.4,342.7,71.1,344.2,71.1z"/>
<path class="st7" d="M344.2,86.5h5.7c1.6,0,2.8,1.3,2.8,2.8V95c0,1.6-1.3,2.8-2.8,2.8h-5.7c-1.6,0-2.8-1.3-2.8-2.8v-5.7
	C341.4,87.7,342.7,86.5,344.2,86.5z"/>
<path class="st12" d="M344.2,101.8h5.7c1.6,0,2.8,1.3,2.8,2.8v5.7c0,1.6-1.3,2.8-2.8,2.8h-5.7c-1.6,0-2.8-1.3-2.8-2.8v-5.7
	C341.4,103,342.7,101.8,344.2,101.8z"/>
<path class="st12" d="M344.2,117.1h5.7c1.6,0,2.8,1.3,2.8,2.8v5.7c0,1.6-1.3,2.8-2.8,2.8h-5.7c-1.6,0-2.8-1.3-2.8-2.8v-5.7
	C341.4,118.3,342.7,117.1,344.2,117.1z"/>
<path class="st13" d="M344.2,132.4h5.7c1.6,0,2.8,1.3,2.8,2.8v5.7c0,1.6-1.3,2.8-2.8,2.8h-5.7c-1.6,0-2.8-1.3-2.8-2.8v-5.7
	C341.4,133.6,342.7,132.4,344.2,132.4z"/>
<path class="st7" d="M344.2,147.7h5.7c1.6,0,2.8,1.3,2.8,2.8v5.7c0,1.6-1.3,2.8-2.8,2.8h-5.7c-1.6,0-2.8-1.3-2.8-2.8v-5.7
	C341.4,149,342.7,147.7,344.2,147.7z"/>
<path class="st9" d="M359.5,55.8h5.7c1.6,0,2.8,1.3,2.8,2.8v5.7c0,1.6-1.3,2.8-2.8,2.8h-5.7c-1.6,0-2.8-1.3-2.8-2.8v-5.7
	C356.7,57.1,358,55.8,359.5,55.8z"/>
<path class="st7" d="M359.5,71.1h5.7c1.6,0,2.8,1.3,2.8,2.8v5.7c0,1.6-1.3,2.8-2.8,2.8h-5.7c-1.6,0-2.8-1.3-2.8-2.8V74
	C356.7,72.4,358,71.1,359.5,71.1z"/>
<path class="st12" d="M359.5,86.5h5.7c1.6,0,2.8,1.3,2.8,2.8V95c0,1.6-1.3,2.8-2.8,2.8h-5.7c-1.6,0-2.8-1.3-2.8-2.8v-5.7
	C356.7,87.7,358,86.5,359.5,86.5z"/>
<path class="st12" d="M359.5,101.8h5.7c1.6,0,2.8,1.3,2.8,2.8v5.7c0,1.6-1.3,2.8-2.8,2.8h-5.7c-1.6,0-2.8-1.3-2.8-2.8v-5.7
	C356.7,103,358,101.8,359.5,101.8z"/>
<path class="st12" d="M359.5,117.1h5.7c1.6,0,2.8,1.3,2.8,2.8v5.7c0,1.6-1.3,2.8-2.8,2.8h-5.7c-1.6,0-2.8-1.3-2.8-2.8v-5.7
	C356.7,118.3,358,117.1,359.5,117.1z"/>
<path class="st7" d="M359.5,132.4h5.7c1.6,0,2.8,1.3,2.8,2.8v5.7c0,1.6-1.3,2.8-2.8,2.8h-5.7c-1.6,0-2.8-1.3-2.8-2.8v-5.7
	C356.7,133.6,358,132.4,359.5,132.4z"/>
<path class="st13" d="M359.5,147.7h5.7c1.6,0,2.8,1.3,2.8,2.8v5.7c0,1.6-1.3,2.8-2.8,2.8h-5.7c-1.6,0-2.8-1.3-2.8-2.8v-5.7
	C356.7,149,358,147.7,359.5,147.7z"/>
<path class="st7" d="M374.9,55.8h5.7c1.6,0,2.8,1.3,2.8,2.8v5.7c0,1.6-1.3,2.8-2.8,2.8h-5.7c-1.6,0-2.8-1.3-2.8-2.8v-5.7
	C372,57.1,373.3,55.8,374.9,55.8z"/>
<path class="st7" d="M374.9,71.1h5.7c1.6,0,2.8,1.3,2.8,2.8v5.7c0,1.6-1.3,2.8-2.8,2.8h-5.7c-1.6,0-2.8-1.3-2.8-2.8V74
	C372,72.4,373.3,71.1,374.9,71.1z"/>
<path class="st12" d="M374.9,86.5h5.7c1.6,0,2.8,1.3,2.8,2.8V95c0,1.6-1.3,2.8-2.8,2.8h-5.7c-1.6,0-2.8-1.3-2.8-2.8v-5.7
	C372,87.7,373.3,86.5,374.9,86.5z"/>
<path class="st6" d="M374.9,101.8h5.7c1.6,0,2.8,1.3,2.8,2.8v5.7c0,1.6-1.3,2.8-2.8,2.8h-5.7c-1.6,0-2.8-1.3-2.8-2.8v-5.7
	C372,103,373.3,101.8,374.9,101.8z"/>
<path class="st7" d="M374.9,117.1h5.7c1.6,0,2.8,1.3,2.8,2.8v5.7c0,1.6-1.3,2.8-2.8,2.8h-5.7c-1.6,0-2.8-1.3-2.8-2.8v-5.7
	C372,118.3,373.3,117.1,374.9,117.1z"/>
<path class="st14" d="M374.9,132.4h5.7c1.6,0,2.8,1.3,2.8,2.8v5.7c0,1.6-1.3,2.8-2.8,2.8h-5.7c-1.6,0-2.8-1.3-2.8-2.8v-5.7
	C372,133.6,373.3,132.4,374.9,132.4z"/>
<path class="st13" d="M374.9,147.7h5.7c1.6,0,2.8,1.3,2.8,2.8v5.7c0,1.6-1.3,2.8-2.8,2.8h-5.7c-1.6,0-2.8-1.3-2.8-2.8v-5.7
	C372,149,373.3,147.7,374.9,147.7z"/>
<path class="st7" d="M390.2,55.8h5.7c1.6,0,2.8,1.3,2.8,2.8v5.7c0,1.6-1.3,2.8-2.8,2.8h-5.7c-1.6,0-2.8-1.3-2.8-2.8v-5.7
	C387.3,57.1,388.6,55.8,390.2,55.8z"/>
<path class="st12" d="M390.2,71.1h5.7c1.6,0,2.8,1.3,2.8,2.8v5.7c0,1.6-1.3,2.8-2.8,2.8h-5.7c-1.6,0-2.8-1.3-2.8-2.8V74
	C387.3,72.4,388.6,71.1,390.2,71.1z"/>
<path class="st12" d="M390.2,86.5h5.7c1.6,0,2.8,1.3,2.8,2.8V95c0,1.6-1.3,2.8-2.8,2.8h-5.7c-1.6,0-2.8-1.3-2.8-2.8v-5.7
	C387.3,87.7,388.6,86.5,390.2,86.5z"/>
<path class="st12" d="M390.2,101.8h5.7c1.6,0,2.8,1.3,2.8,2.8v5.7c0,1.6-1.3,2.8-2.8,2.8h-5.7c-1.6,0-2.8-1.3-2.8-2.8v-5.7
	C387.3,103,388.6,101.8,390.2,101.8z"/>
<path class="st8" d="M390.2,117.1h5.7c1.6,0,2.8,1.3,2.8,2.8v5.7c0,1.6-1.3,2.8-2.8,2.8h-5.7c-1.6,0-2.8-1.3-2.8-2.8v-5.7
	C387.3,118.3,388.6,117.1,390.2,117.1z"/>
<path class="st12" d="M390.2,132.4h5.7c1.6,0,2.8,1.3,2.8,2.8v5.7c0,1.6-1.3,2.8-2.8,2.8h-5.7c-1.6,0-2.8-1.3-2.8-2.8v-5.7
	C387.3,133.6,388.6,132.4,390.2,132.4z"/>
<path class="st7" d="M390.2,147.7h5.7c1.6,0,2.8,1.3,2.8,2.8v5.7c0,1.6-1.3,2.8-2.8,2.8h-5.7c-1.6,0-2.8-1.3-2.8-2.8v-5.7
	C387.3,149,388.6,147.7,390.2,147.7z"/>
<text transform="matrix(1 0 0 1 402.6323 51.8744)" class="st3 st5">Jul</text>
<path class="st12" d="M405.5,55.8h5.7c1.6,0,2.8,1.3,2.8,2.8v5.7c0,1.6-1.3,2.8-2.8,2.8h-5.7c-1.6,0-2.8-1.3-2.8-2.8v-5.7
	C402.6,57.1,403.9,55.8,405.5,55.8z"/>
<path class="st11" d="M405.5,71.1h5.7c1.6,0,2.8,1.3,2.8,2.8v5.7c0,1.6-1.3,2.8-2.8,2.8h-5.7c-1.6,0-2.8-1.3-2.8-2.8V74
	C402.6,72.4,403.9,71.1,405.5,71.1z"/>
<path class="st6" d="M405.5,86.5h5.7c1.6,0,2.8,1.3,2.8,2.8V95c0,1.6-1.3,2.8-2.8,2.8h-5.7c-1.6,0-2.8-1.3-2.8-2.8v-5.7
	C402.6,87.7,403.9,86.5,405.5,86.5z"/>
<path class="st13" d="M405.5,101.8h5.7c1.6,0,2.8,1.3,2.8,2.8v5.7c0,1.6-1.3,2.8-2.8,2.8h-5.7c-1.6,0-2.8-1.3-2.8-2.8v-5.7
	C402.6,103,403.9,101.8,405.5,101.8z"/>
<path class="st12" d="M405.5,117.1h5.7c1.6,0,2.8,1.3,2.8,2.8v5.7c0,1.6-1.3,2.8-2.8,2.8h-5.7c-1.6,0-2.8-1.3-2.8-2.8v-5.7
	C402.6,118.3,403.9,117.1,405.5,117.1z"/>
<path class="st6" d="M405.5,132.4h5.7c1.6,0,2.8,1.3,2.8,2.8v5.7c0,1.6-1.3,2.8-2.8,2.8h-5.7c-1.6,0-2.8-1.3-2.8-2.8v-5.7
	C402.6,133.6,403.9,132.4,405.5,132.4z"/>
<path class="st7" d="M405.5,147.7h5.7c1.6,0,2.8,1.3,2.8,2.8v5.7c0,1.6-1.3,2.8-2.8,2.8h-5.7c-1.6,0-2.8-1.3-2.8-2.8v-5.7
	C402.6,149,403.9,147.7,405.5,147.7z"/>
<path class="st7" d="M420.8,55.8h5.7c1.6,0,2.8,1.3,2.8,2.8v5.7c0,1.6-1.3,2.8-2.8,2.8h-5.7c-1.6,0-2.8-1.3-2.8-2.8v-5.7
	C417.9,57.1,419.2,55.8,420.8,55.8z"/>
<path class="st12" d="M420.8,71.1h5.7c1.6,0,2.8,1.3,2.8,2.8v5.7c0,1.6-1.3,2.8-2.8,2.8h-5.7c-1.6,0-2.8-1.3-2.8-2.8V74
	C417.9,72.4,419.2,71.1,420.8,71.1z"/>
<path class="st12" d="M420.8,86.5h5.7c1.6,0,2.8,1.3,2.8,2.8V95c0,1.6-1.3,2.8-2.8,2.8h-5.7c-1.6,0-2.8-1.3-2.8-2.8v-5.7
	C417.9,87.7,419.2,86.5,420.8,86.5z"/>
<path class="st7" d="M420.8,101.8h5.7c1.6,0,2.8,1.3,2.8,2.8v5.7c0,1.6-1.3,2.8-2.8,2.8h-5.7c-1.6,0-2.8-1.3-2.8-2.8v-5.7
	C417.9,103,419.2,101.8,420.8,101.8z"/>
<path class="st13" d="M420.8,117.1h5.7c1.6,0,2.8,1.3,2.8,2.8v5.7c0,1.6-1.3,2.8-2.8,2.8h-5.7c-1.6,0-2.8-1.3-2.8-2.8v-5.7
	C417.9,118.3,419.2,117.1,420.8,117.1z"/>
<path class="st13" d="M420.8,132.4h5.7c1.6,0,2.8,1.3,2.8,2.8v5.7c0,1.6-1.3,2.8-2.8,2.8h-5.7c-1.6,0-2.8-1.3-2.8-2.8v-5.7
	C417.9,133.6,419.2,132.4,420.8,132.4z"/>
<path class="st6" d="M420.8,147.7h5.7c1.6,0,2.8,1.3,2.8,2.8v5.7c0,1.6-1.3,2.8-2.8,2.8h-5.7c-1.6,0-2.8-1.3-2.8-2.8v-5.7
	C417.9,149,419.2,147.7,420.8,147.7z"/>
<path class="st6" d="M436.1,55.8h5.7c1.6,0,2.8,1.3,2.8,2.8v5.7c0,1.6-1.3,2.8-2.8,2.8h-5.7c-1.6,0-2.8-1.3-2.8-2.8v-5.7
	C433.2,57.1,434.5,55.8,436.1,55.8z"/>
<path class="st9" d="M436.1,71.1h5.7c1.6,0,2.8,1.3,2.8,2.8v5.7c0,1.6-1.3,2.8-2.8,2.8h-5.7c-1.6,0-2.8-1.3-2.8-2.8V74
	C433.2,72.4,434.5,71.1,436.1,71.1z"/>
<path class="st12" d="M436.1,86.5h5.7c1.6,0,2.8,1.3,2.8,2.8V95c0,1.6-1.3,2.8-2.8,2.8h-5.7c-1.6,0-2.8-1.3-2.8-2.8v-5.7
	C433.2,87.7,434.5,86.5,436.1,86.5z"/>
<path class="st7" d="M436.1,101.8h5.7c1.6,0,2.8,1.3,2.8,2.8v5.7c0,1.6-1.3,2.8-2.8,2.8h-5.7c-1.6,0-2.8-1.3-2.8-2.8v-5.7
	C433.2,103,434.5,101.8,436.1,101.8z"/>
<path class="st12" d="M436.1,117.1h5.7c1.6,0,2.8,1.3,2.8,2.8v5.7c0,1.6-1.3,2.8-2.8,2.8h-5.7c-1.6,0-2.8-1.3-2.8-2.8v-5.7
	C433.2,118.3,434.5,117.1,436.1,117.1z"/>
<path class="st6" d="M436.1,132.4h5.7c1.6,0,2.8,1.3,2.8,2.8v5.7c0,1.6-1.3,2.8-2.8,2.8h-5.7c-1.6,0-2.8-1.3-2.8-2.8v-5.7
	C433.2,133.6,434.5,132.4,436.1,132.4z"/>
<path class="st13" d="M436.1,147.7h5.7c1.6,0,2.8,1.3,2.8,2.8v5.7c0,1.6-1.3,2.8-2.8,2.8h-5.7c-1.6,0-2.8-1.3-2.8-2.8v-5.7
	C433.2,149,434.5,147.7,436.1,147.7z"/>
<path class="st13" d="M451.4,55.8h5.7c1.6,0,2.8,1.3,2.8,2.8v5.7c0,1.6-1.3,2.8-2.8,2.8h-5.7c-1.6,0-2.8-1.3-2.8-2.8v-5.7
	C448.6,57.1,449.8,55.8,451.4,55.8z"/>
<path class="st12" d="M451.4,71.1h5.7c1.6,0,2.8,1.3,2.8,2.8v5.7c0,1.6-1.3,2.8-2.8,2.8h-5.7c-1.6,0-2.8-1.3-2.8-2.8V74
	C448.6,72.4,449.8,71.1,451.4,71.1z"/>
<path class="st12" d="M451.4,86.5h5.7c1.6,0,2.8,1.3,2.8,2.8V95c0,1.6-1.3,2.8-2.8,2.8h-5.7c-1.6,0-2.8-1.3-2.8-2.8v-5.7
	C448.6,87.7,449.8,86.5,451.4,86.5z"/>
<path class="st7" d="M451.4,101.8h5.7c1.6,0,2.8,1.3,2.8,2.8v5.7c0,1.6-1.3,2.8-2.8,2.8h-5.7c-1.6,0-2.8-1.3-2.8-2.8v-5.7
	C448.6,103,449.8,101.8,451.4,101.8z"/>
<path class="st8" d="M451.4,117.1h5.7c1.6,0,2.8,1.3,2.8,2.8v5.7c0,1.6-1.3,2.8-2.8,2.8h-5.7c-1.6,0-2.8-1.3-2.8-2.8v-5.7
	C448.6,118.3,449.8,117.1,451.4,117.1z"/>
<path class="st12" d="M451.4,132.4h5.7c1.6,0,2.8,1.3,2.8,2.8v5.7c0,1.6-1.3,2.8-2.8,2.8h-5.7c-1.6,0-2.8-1.3-2.8-2.8v-5.7
	C448.6,133.6,449.8,132.4,451.4,132.4z"/>
<path class="st12" d="M451.4,147.7h5.7c1.6,0,2.8,1.3,2.8,2.8v5.7c0,1.6-1.3,2.8-2.8,2.8h-5.7c-1.6,0-2.8-1.3-2.8-2.8v-5.7
	C448.6,149,449.8,147.7,451.4,147.7z"/>
<path class="st7" d="M466.7,55.8h5.7c1.6,0,2.8,1.3,2.8,2.8v5.7c0,1.6-1.3,2.8-2.8,2.8h-5.7c-1.6,0-2.8-1.3-2.8-2.8v-5.7
	C463.9,57.1,465.1,55.8,466.7,55.8z"/>
<path class="st10" d="M466.7,71.1h5.7c1.6,0,2.8,1.3,2.8,2.8v5.7c0,1.6-1.3,2.8-2.8,2.8h-5.7c-1.6,0-2.8-1.3-2.8-2.8V74
	C463.9,72.4,465.1,71.1,466.7,71.1z"/>
<path class="st16" d="M466.7,86.5h5.7c1.6,0,2.8,1.3,2.8,2.8V95c0,1.6-1.3,2.8-2.8,2.8h-5.7c-1.6,0-2.8-1.3-2.8-2.8v-5.7
	C463.9,87.7,465.1,86.5,466.7,86.5z"/>
<path class="st16" d="M466.7,101.8h5.7c1.6,0,2.8,1.3,2.8,2.8v5.7c0,1.6-1.3,2.8-2.8,2.8h-5.7c-1.6,0-2.8-1.3-2.8-2.8v-5.7
	C463.9,103,465.1,101.8,466.7,101.8z"/>
<path class="st16" d="M466.7,117.1h5.7c1.6,0,2.8,1.3,2.8,2.8v5.7c0,1.6-1.3,2.8-2.8,2.8h-5.7c-1.6,0-2.8-1.3-2.8-2.8v-5.7
	C463.9,118.3,465.1,117.1,466.7,117.1z"/>
<path class="st16" d="M466.7,132.4h5.7c1.6,0,2.8,1.3,2.8,2.8v5.7c0,1.6-1.3,2.8-2.8,2.8h-5.7c-1.6,0-2.8-1.3-2.8-2.8v-5.7
	C463.9,133.6,465.1,132.4,466.7,132.4z"/>
<path class="st16" d="M466.7,147.7h5.7c1.6,0,2.8,1.3,2.8,2.8v5.7c0,1.6-1.3,2.8-2.8,2.8h-5.7c-1.6,0-2.8-1.3-2.8-2.8v-5.7
	C463.9,149,465.1,147.7,466.7,147.7z"/>
<text transform="matrix(1 0 0 1 479.1684 51.8744)" class="st3 st5">Aug</text>
<path class="st16" d="M482,55.8h5.7c1.6,0,2.8,1.3,2.8,2.8v5.7c0,1.6-1.3,2.8-2.8,2.8H482c-1.6,0-2.8-1.3-2.8-2.8v-5.7
	C479.2,57.1,480.4,55.8,482,55.8z"/>
<path class="st16" d="M482,71.1h5.7c1.6,0,2.8,1.3,2.8,2.8v5.7c0,1.6-1.3,2.8-2.8,2.8H482c-1.6,0-2.8-1.3-2.8-2.8V74
	C479.2,72.4,480.4,71.1,482,71.1z"/>
<path class="st16" d="M482,86.5h5.7c1.6,0,2.8,1.3,2.8,2.8V95c0,1.6-1.3,2.8-2.8,2.8H482c-1.6,0-2.8-1.3-2.8-2.8v-5.7
	C479.2,87.7,480.4,86.5,482,86.5z"/>
<path class="st16" d="M482,101.8h5.7c1.6,0,2.8,1.3,2.8,2.8v5.7c0,1.6-1.3,2.8-2.8,2.8H482c-1.6,0-2.8-1.3-2.8-2.8v-5.7
	C479.2,103,480.4,101.8,482,101.8z"/>
<path class="st16" d="M482,117.1h5.7c1.6,0,2.8,1.3,2.8,2.8v5.7c0,1.6-1.3,2.8-2.8,2.8H482c-1.6,0-2.8-1.3-2.8-2.8v-5.7
	C479.2,118.3,480.4,117.1,482,117.1z"/>
<path class="st16" d="M482,132.4h5.7c1.6,0,2.8,1.3,2.8,2.8v5.7c0,1.6-1.3,2.8-2.8,2.8H482c-1.6,0-2.8-1.3-2.8-2.8v-5.7
	C479.2,133.6,480.4,132.4,482,132.4z"/>
<path class="st16" d="M482,147.7h5.7c1.6,0,2.8,1.3,2.8,2.8v5.7c0,1.6-1.3,2.8-2.8,2.8H482c-1.6,0-2.8-1.3-2.8-2.8v-5.7
	C479.2,149,480.4,147.7,482,147.7z"/>
<path class="st16" d="M497.3,55.8h5.7c1.6,0,2.8,1.3,2.8,2.8v5.7c0,1.6-1.3,2.8-2.8,2.8h-5.7c-1.6,0-2.8-1.3-2.8-2.8v-5.7
	C494.5,57.1,495.7,55.8,497.3,55.8z"/>
<path class="st16" d="M497.3,71.1h5.7c1.6,0,2.8,1.3,2.8,2.8v5.7c0,1.6-1.3,2.8-2.8,2.8h-5.7c-1.6,0-2.8-1.3-2.8-2.8V74
	C494.5,72.4,495.7,71.1,497.3,71.1z"/>
<path class="st16" d="M497.3,86.5h5.7c1.6,0,2.8,1.3,2.8,2.8V95c0,1.6-1.3,2.8-2.8,2.8h-5.7c-1.6,0-2.8-1.3-2.8-2.8v-5.7
	C494.5,87.7,495.7,86.5,497.3,86.5z"/>
<path class="st16" d="M497.3,101.8h5.7c1.6,0,2.8,1.3,2.8,2.8v5.7c0,1.6-1.3,2.8-2.8,2.8h-5.7c-1.6,0-2.8-1.3-2.8-2.8v-5.7
	C494.5,103,495.7,101.8,497.3,101.8z"/>
<path class="st16" d="M497.3,117.1h5.7c1.6,0,2.8,1.3,2.8,2.8v5.7c0,1.6-1.3,2.8-2.8,2.8h-5.7c-1.6,0-2.8-1.3-2.8-2.8v-5.7
	C494.5,118.3,495.7,117.1,497.3,117.1z"/>
<path class="st16" d="M497.3,132.4h5.7c1.6,0,2.8,1.3,2.8,2.8v5.7c0,1.6-1.3,2.8-2.8,2.8h-5.7c-1.6,0-2.8-1.3-2.8-2.8v-5.7
	C494.5,133.6,495.7,132.4,497.3,132.4z"/>
<path class="st16" d="M497.3,147.7h5.7c1.6,0,2.8,1.3,2.8,2.8v5.7c0,1.6-1.3,2.8-2.8,2.8h-5.7c-1.6,0-2.8-1.3-2.8-2.8v-5.7
	C494.5,149,495.7,147.7,497.3,147.7z"/>
<path class="st16" d="M512.6,55.8h5.7c1.6,0,2.8,1.3,2.8,2.8v5.7c0,1.6-1.3,2.8-2.8,2.8h-5.7c-1.6,0-2.8-1.3-2.8-2.8v-5.7
	C509.8,57.1,511.1,55.8,512.6,55.8z"/>
<path class="st16" d="M512.6,71.1h5.7c1.6,0,2.8,1.3,2.8,2.8v5.7c0,1.6-1.3,2.8-2.8,2.8h-5.7c-1.6,0-2.8-1.3-2.8-2.8V74
	C509.8,72.4,511.1,71.1,512.6,71.1z"/>
<path class="st16" d="M512.6,86.5h5.7c1.6,0,2.8,1.3,2.8,2.8V95c0,1.6-1.3,2.8-2.8,2.8h-5.7c-1.6,0-2.8-1.3-2.8-2.8v-5.7
	C509.8,87.7,511.1,86.5,512.6,86.5z"/>
<path class="st16" d="M512.6,101.8h5.7c1.6,0,2.8,1.3,2.8,2.8v5.7c0,1.6-1.3,2.8-2.8,2.8h-5.7c-1.6,0-2.8-1.3-2.8-2.8v-5.7
	C509.8,103,511.1,101.8,512.6,101.8z"/>
<path class="st16" d="M512.6,117.1h5.7c1.6,0,2.8,1.3,2.8,2.8v5.7c0,1.6-1.3,2.8-2.8,2.8h-5.7c-1.6,0-2.8-1.3-2.8-2.8v-5.7
	C509.8,118.3,511.1,117.1,512.6,117.1z"/>
<path class="st16" d="M512.6,132.4h5.7c1.6,0,2.8,1.3,2.8,2.8v5.7c0,1.6-1.3,2.8-2.8,2.8h-5.7c-1.6,0-2.8-1.3-2.8-2.8v-5.7
	C509.8,133.6,511.1,132.4,512.6,132.4z"/>
<path class="st16" d="M512.6,147.7h5.7c1.6,0,2.8,1.3,2.8,2.8v5.7c0,1.6-1.3,2.8-2.8,2.8h-5.7c-1.6,0-2.8-1.3-2.8-2.8v-5.7
	C509.8,149,511.1,147.7,512.6,147.7z"/>
<path class="st16" d="M527.9,55.8h5.7c1.6,0,2.8,1.3,2.8,2.8v5.7c0,1.6-1.3,2.8-2.8,2.8h-5.7c-1.6,0-2.8-1.3-2.8-2.8v-5.7
	C525.1,57.1,526.4,55.8,527.9,55.8z"/>
<path class="st16" d="M527.9,71.1h5.7c1.6,0,2.8,1.3,2.8,2.8v5.7c0,1.6-1.3,2.8-2.8,2.8h-5.7c-1.6,0-2.8-1.3-2.8-2.8V74
	C525.1,72.4,526.4,71.1,527.9,71.1z"/>
<path class="st16" d="M527.9,86.5h5.7c1.6,0,2.8,1.3,2.8,2.8V95c0,1.6-1.3,2.8-2.8,2.8h-5.7c-1.6,0-2.8-1.3-2.8-2.8v-5.7
	C525.1,87.7,526.4,86.5,527.9,86.5z"/>
<path class="st16" d="M527.9,101.8h5.7c1.6,0,2.8,1.3,2.8,2.8v5.7c0,1.6-1.3,2.8-2.8,2.8h-5.7c-1.6,0-2.8-1.3-2.8-2.8v-5.7
	C525.1,103,526.4,101.8,527.9,101.8z"/>
<path class="st16" d="M527.9,117.1h5.7c1.6,0,2.8,1.3,2.8,2.8v5.7c0,1.6-1.3,2.8-2.8,2.8h-5.7c-1.6,0-2.8-1.3-2.8-2.8v-5.7
	C525.1,118.3,526.4,117.1,527.9,117.1z"/>
<path class="st16" d="M527.9,132.4h5.7c1.6,0,2.8,1.3,2.8,2.8v5.7c0,1.6-1.3,2.8-2.8,2.8h-5.7c-1.6,0-2.8-1.3-2.8-2.8v-5.7
	C525.1,133.6,526.4,132.4,527.9,132.4z"/>
<path class="st16" d="M527.9,147.7h5.7c1.6,0,2.8,1.3,2.8,2.8v5.7c0,1.6-1.3,2.8-2.8,2.8h-5.7c-1.6,0-2.8-1.3-2.8-2.8v-5.7
	C525.1,149,526.4,147.7,527.9,147.7z"/>
<text transform="matrix(1 0 0 1 540.3959 51.8744)" class="st3 st5">Sep</text>
<path class="st16" d="M543.2,55.8h5.7c1.6,0,2.8,1.3,2.8,2.8v5.7c0,1.6-1.3,2.8-2.8,2.8h-5.7c-1.6,0-2.8-1.3-2.8-2.8v-5.7
	C540.4,57.1,541.7,55.8,543.2,55.8z"/>
<path class="st16" d="M543.2,71.1h5.7c1.6,0,2.8,1.3,2.8,2.8v5.7c0,1.6-1.3,2.8-2.8,2.8h-5.7c-1.6,0-2.8-1.3-2.8-2.8V74
	C540.4,72.4,541.7,71.1,543.2,71.1z"/>
<path class="st16" d="M543.2,86.5h5.7c1.6,0,2.8,1.3,2.8,2.8V95c0,1.6-1.3,2.8-2.8,2.8h-5.7c-1.6,0-2.8-1.3-2.8-2.8v-5.7
	C540.4,87.7,541.7,86.5,543.2,86.5z"/>
<path class="st16" d="M543.2,101.8h5.7c1.6,0,2.8,1.3,2.8,2.8v5.7c0,1.6-1.3,2.8-2.8,2.8h-5.7c-1.6,0-2.8-1.3-2.8-2.8v-5.7
	C540.4,103,541.7,101.8,543.2,101.8z"/>
<path class="st16" d="M543.2,117.1h5.7c1.6,0,2.8,1.3,2.8,2.8v5.7c0,1.6-1.3,2.8-2.8,2.8h-5.7c-1.6,0-2.8-1.3-2.8-2.8v-5.7
	C540.4,118.3,541.7,117.1,543.2,117.1z"/>
<path class="st16" d="M543.2,132.4h5.7c1.6,0,2.8,1.3,2.8,2.8v5.7c0,1.6-1.3,2.8-2.8,2.8h-5.7c-1.6,0-2.8-1.3-2.8-2.8v-5.7
	C540.4,133.6,541.7,132.4,543.2,132.4z"/>
<path class="st16" d="M543.2,147.7h5.7c1.6,0,2.8,1.3,2.8,2.8v5.7c0,1.6-1.3,2.8-2.8,2.8h-5.7c-1.6,0-2.8-1.3-2.8-2.8v-5.7
	C540.4,149,541.7,147.7,543.2,147.7z"/>
<path class="st16" d="M558.5,55.8h5.7c1.6,0,2.8,1.3,2.8,2.8v5.7c0,1.6-1.3,2.8-2.8,2.8h-5.7c-1.6,0-2.8-1.3-2.8-2.8v-5.7
	C555.7,57.1,557,55.8,558.5,55.8z"/>
<path class="st16" d="M558.5,71.1h5.7c1.6,0,2.8,1.3,2.8,2.8v5.7c0,1.6-1.3,2.8-2.8,2.8h-5.7c-1.6,0-2.8-1.3-2.8-2.8V74
	C555.7,72.4,557,71.1,558.5,71.1z"/>
<path class="st16" d="M558.5,86.5h5.7c1.6,0,2.8,1.3,2.8,2.8V95c0,1.6-1.3,2.8-2.8,2.8h-5.7c-1.6,0-2.8-1.3-2.8-2.8v-5.7
	C555.7,87.7,557,86.5,558.5,86.5z"/>
<path class="st16" d="M558.5,101.8h5.7c1.6,0,2.8,1.3,2.8,2.8v5.7c0,1.6-1.3,2.8-2.8,2.8h-5.7c-1.6,0-2.8-1.3-2.8-2.8v-5.7
	C555.7,103,557,101.8,558.5,101.8z"/>
<path class="st16" d="M558.5,117.1h5.7c1.6,0,2.8,1.3,2.8,2.8v5.7c0,1.6-1.3,2.8-2.8,2.8h-5.7c-1.6,0-2.8-1.3-2.8-2.8v-5.7
	C555.7,118.3,557,117.1,558.5,117.1z"/>
<path class="st16" d="M558.5,132.4h5.7c1.6,0,2.8,1.3,2.8,2.8v5.7c0,1.6-1.3,2.8-2.8,2.8h-5.7c-1.6,0-2.8-1.3-2.8-2.8v-5.7
	C555.7,133.6,557,132.4,558.5,132.4z"/>
<path class="st16" d="M558.5,147.7h5.7c1.6,0,2.8,1.3,2.8,2.8v5.7c0,1.6-1.3,2.8-2.8,2.8h-5.7c-1.6,0-2.8-1.3-2.8-2.8v-5.7
	C555.7,149,557,147.7,558.5,147.7z"/>
<path class="st16" d="M573.8,55.8h5.7c1.6,0,2.8,1.3,2.8,2.8v5.7c0,1.6-1.3,2.8-2.8,2.8h-5.7c-1.6,0-2.8-1.3-2.8-2.8v-5.7
	C571,57.1,572.3,55.8,573.8,55.8z"/>
<path class="st16" d="M573.8,71.1h5.7c1.6,0,2.8,1.3,2.8,2.8v5.7c0,1.6-1.3,2.8-2.8,2.8h-5.7c-1.6,0-2.8-1.3-2.8-2.8V74
	C571,72.4,572.3,71.1,573.8,71.1z"/>
<path class="st16" d="M573.8,86.5h5.7c1.6,0,2.8,1.3,2.8,2.8V95c0,1.6-1.3,2.8-2.8,2.8h-5.7c-1.6,0-2.8-1.3-2.8-2.8v-5.7
	C571,87.7,572.3,86.5,573.8,86.5z"/>
<path class="st16" d="M573.8,101.8h5.7c1.6,0,2.8,1.3,2.8,2.8v5.7c0,1.6-1.3,2.8-2.8,2.8h-5.7c-1.6,0-2.8-1.3-2.8-2.8v-5.7
	C571,103,572.3,101.8,573.8,101.8z"/>
<path class="st16" d="M573.8,117.1h5.7c1.6,0,2.8,1.3,2.8,2.8v5.7c0,1.6-1.3,2.8-2.8,2.8h-5.7c-1.6,0-2.8-1.3-2.8-2.8v-5.7
	C571,118.3,572.3,117.1,573.8,117.1z"/>
<path class="st16" d="M573.8,132.4h5.7c1.6,0,2.8,1.3,2.8,2.8v5.7c0,1.6-1.3,2.8-2.8,2.8h-5.7c-1.6,0-2.8-1.3-2.8-2.8v-5.7
	C571,133.6,572.3,132.4,573.8,132.4z"/>
<path class="st16" d="M573.8,147.7h5.7c1.6,0,2.8,1.3,2.8,2.8v5.7c0,1.6-1.3,2.8-2.8,2.8h-5.7c-1.6,0-2.8-1.3-2.8-2.8v-5.7
	C571,149,572.3,147.7,573.8,147.7z"/>
<path class="st16" d="M589.2,55.8h5.7c1.6,0,2.8,1.3,2.8,2.8v5.7c0,1.6-1.3,2.8-2.8,2.8h-5.7c-1.6,0-2.8-1.3-2.8-2.8v-5.7
	C586.3,57.1,587.6,55.8,589.2,55.8z"/>
<path class="st16" d="M589.2,71.1h5.7c1.6,0,2.8,1.3,2.8,2.8v5.7c0,1.6-1.3,2.8-2.8,2.8h-5.7c-1.6,0-2.8-1.3-2.8-2.8V74
	C586.3,72.4,587.6,71.1,589.2,71.1z"/>
<path class="st16" d="M589.2,86.5h5.7c1.6,0,2.8,1.3,2.8,2.8V95c0,1.6-1.3,2.8-2.8,2.8h-5.7c-1.6,0-2.8-1.3-2.8-2.8v-5.7
	C586.3,87.7,587.6,86.5,589.2,86.5z"/>
<path class="st16" d="M589.2,101.8h5.7c1.6,0,2.8,1.3,2.8,2.8v5.7c0,1.6-1.3,2.8-2.8,2.8h-5.7c-1.6,0-2.8-1.3-2.8-2.8v-5.7
	C586.3,103,587.6,101.8,589.2,101.8z"/>
<path class="st16" d="M589.2,117.1h5.7c1.6,0,2.8,1.3,2.8,2.8v5.7c0,1.6-1.3,2.8-2.8,2.8h-5.7c-1.6,0-2.8-1.3-2.8-2.8v-5.7
	C586.3,118.3,587.6,117.1,589.2,117.1z"/>
<path class="st16" d="M589.2,132.4h5.7c1.6,0,2.8,1.3,2.8,2.8v5.7c0,1.6-1.3,2.8-2.8,2.8h-5.7c-1.6,0-2.8-1.3-2.8-2.8v-5.7
	C586.3,133.6,587.6,132.4,589.2,132.4z"/>
<path class="st16" d="M589.2,147.7h5.7c1.6,0,2.8,1.3,2.8,2.8v5.7c0,1.6-1.3,2.8-2.8,2.8h-5.7c-1.6,0-2.8-1.3-2.8-2.8v-5.7
	C586.3,149,587.6,147.7,589.2,147.7z"/>
<path class="st16" d="M604.5,55.8h5.7c1.6,0,2.8,1.3,2.8,2.8v5.7c0,1.6-1.3,2.8-2.8,2.8h-5.7c-1.6,0-2.8-1.3-2.8-2.8v-5.7
	C601.6,57.1,602.9,55.8,604.5,55.8z"/>
<path class="st16" d="M604.5,71.1h5.7c1.6,0,2.8,1.3,2.8,2.8v5.7c0,1.6-1.3,2.8-2.8,2.8h-5.7c-1.6,0-2.8-1.3-2.8-2.8V74
	C601.6,72.4,602.9,71.1,604.5,71.1z"/>
<path class="st16" d="M604.5,86.5h5.7c1.6,0,2.8,1.3,2.8,2.8V95c0,1.6-1.3,2.8-2.8,2.8h-5.7c-1.6,0-2.8-1.3-2.8-2.8v-5.7
	C601.6,87.7,602.9,86.5,604.5,86.5z"/>
<path class="st16" d="M604.5,101.8h5.7c1.6,0,2.8,1.3,2.8,2.8v5.7c0,1.6-1.3,2.8-2.8,2.8h-5.7c-1.6,0-2.8-1.3-2.8-2.8v-5.7
	C601.6,103,602.9,101.8,604.5,101.8z"/>
<path class="st16" d="M604.5,117.1h5.7c1.6,0,2.8,1.3,2.8,2.8v5.7c0,1.6-1.3,2.8-2.8,2.8h-5.7c-1.6,0-2.8-1.3-2.8-2.8v-5.7
	C601.6,118.3,602.9,117.1,604.5,117.1z"/>
<path class="st16" d="M604.5,132.4h5.7c1.6,0,2.8,1.3,2.8,2.8v5.7c0,1.6-1.3,2.8-2.8,2.8h-5.7c-1.6,0-2.8-1.3-2.8-2.8v-5.7
	C601.6,133.6,602.9,132.4,604.5,132.4z"/>
<path class="st16" d="M604.5,147.7h5.7c1.6,0,2.8,1.3,2.8,2.8v5.7c0,1.6-1.3,2.8-2.8,2.8h-5.7c-1.6,0-2.8-1.3-2.8-2.8v-5.7
	C601.6,149,602.9,147.7,604.5,147.7z"/>
<text transform="matrix(1 0 0 1 616.9321 51.8744)" class="st3 st5">Oct</text>
<path class="st16" d="M619.8,55.8h5.7c1.6,0,2.8,1.3,2.8,2.8v5.7c0,1.6-1.3,2.8-2.8,2.8h-5.7c-1.6,0-2.8-1.3-2.8-2.8v-5.7
	C616.9,57.1,618.2,55.8,619.8,55.8z"/>
<path class="st16" d="M619.8,71.1h5.7c1.6,0,2.8,1.3,2.8,2.8v5.7c0,1.6-1.3,2.8-2.8,2.8h-5.7c-1.6,0-2.8-1.3-2.8-2.8V74
	C616.9,72.4,618.2,71.1,619.8,71.1z"/>
<path class="st16" d="M619.8,86.5h5.7c1.6,0,2.8,1.3,2.8,2.8V95c0,1.6-1.3,2.8-2.8,2.8h-5.7c-1.6,0-2.8-1.3-2.8-2.8v-5.7
	C616.9,87.7,618.2,86.5,619.8,86.5z"/>
<path class="st16" d="M619.8,101.8h5.7c1.6,0,2.8,1.3,2.8,2.8v5.7c0,1.6-1.3,2.8-2.8,2.8h-5.7c-1.6,0-2.8-1.3-2.8-2.8v-5.7
	C616.9,103,618.2,101.8,619.8,101.8z"/>
<path class="st16" d="M619.8,117.1h5.7c1.6,0,2.8,1.3,2.8,2.8v5.7c0,1.6-1.3,2.8-2.8,2.8h-5.7c-1.6,0-2.8-1.3-2.8-2.8v-5.7
	C616.9,118.3,618.2,117.1,619.8,117.1z"/>
<path class="st16" d="M619.8,132.4h5.7c1.6,0,2.8,1.3,2.8,2.8v5.7c0,1.6-1.3,2.8-2.8,2.8h-5.7c-1.6,0-2.8-1.3-2.8-2.8v-5.7
	C616.9,133.6,618.2,132.4,619.8,132.4z"/>
<path class="st16" d="M619.8,147.7h5.7c1.6,0,2.8,1.3,2.8,2.8v5.7c0,1.6-1.3,2.8-2.8,2.8h-5.7c-1.6,0-2.8-1.3-2.8-2.8v-5.7
	C616.9,149,618.2,147.7,619.8,147.7z"/>
<path class="st16" d="M635.1,55.8h5.7c1.6,0,2.8,1.3,2.8,2.8v5.7c0,1.6-1.3,2.8-2.8,2.8h-5.7c-1.6,0-2.8-1.3-2.8-2.8v-5.7
	C632.2,57.1,633.5,55.8,635.1,55.8z"/>
<path class="st16" d="M635.1,71.1h5.7c1.6,0,2.8,1.3,2.8,2.8v5.7c0,1.6-1.3,2.8-2.8,2.8h-5.7c-1.6,0-2.8-1.3-2.8-2.8V74
	C632.2,72.4,633.5,71.1,635.1,71.1z"/>
<path class="st16" d="M635.1,86.5h5.7c1.6,0,2.8,1.3,2.8,2.8V95c0,1.6-1.3,2.8-2.8,2.8h-5.7c-1.6,0-2.8-1.3-2.8-2.8v-5.7
	C632.2,87.7,633.5,86.5,635.1,86.5z"/>
<path class="st16" d="M635.1,101.8h5.7c1.6,0,2.8,1.3,2.8,2.8v5.7c0,1.6-1.3,2.8-2.8,2.8h-5.7c-1.6,0-2.8-1.3-2.8-2.8v-5.7
	C632.2,103,633.5,101.8,635.1,101.8z"/>
<path class="st16" d="M635.1,117.1h5.7c1.6,0,2.8,1.3,2.8,2.8v5.7c0,1.6-1.3,2.8-2.8,2.8h-5.7c-1.6,0-2.8-1.3-2.8-2.8v-5.7
	C632.2,118.3,633.5,117.1,635.1,117.1z"/>
<path class="st16" d="M635.1,132.4h5.7c1.6,0,2.8,1.3,2.8,2.8v5.7c0,1.6-1.3,2.8-2.8,2.8h-5.7c-1.6,0-2.8-1.3-2.8-2.8v-5.7
	C632.2,133.6,633.5,132.4,635.1,132.4z"/>
<path class="st16" d="M635.1,147.7h5.7c1.6,0,2.8,1.3,2.8,2.8v5.7c0,1.6-1.3,2.8-2.8,2.8h-5.7c-1.6,0-2.8-1.3-2.8-2.8v-5.7
	C632.2,149,633.5,147.7,635.1,147.7z"/>
<path class="st16" d="M650.4,55.8h5.7c1.6,0,2.8,1.3,2.8,2.8v5.7c0,1.6-1.3,2.8-2.8,2.8h-5.7c-1.6,0-2.8-1.3-2.8-2.8v-5.7
	C647.5,57.1,648.8,55.8,650.4,55.8z"/>
<path class="st16" d="M650.4,71.1h5.7c1.6,0,2.8,1.3,2.8,2.8v5.7c0,1.6-1.3,2.8-2.8,2.8h-5.7c-1.6,0-2.8-1.3-2.8-2.8V74
	C647.5,72.4,648.8,71.1,650.4,71.1z"/>
<path class="st16" d="M650.4,86.5h5.7c1.6,0,2.8,1.3,2.8,2.8V95c0,1.6-1.3,2.8-2.8,2.8h-5.7c-1.6,0-2.8-1.3-2.8-2.8v-5.7
	C647.5,87.7,648.8,86.5,650.4,86.5z"/>
<path class="st16" d="M650.4,101.8h5.7c1.6,0,2.8,1.3,2.8,2.8v5.7c0,1.6-1.3,2.8-2.8,2.8h-5.7c-1.6,0-2.8-1.3-2.8-2.8v-5.7
	C647.5,103,648.8,101.8,650.4,101.8z"/>
<path class="st16" d="M650.4,117.1h5.7c1.6,0,2.8,1.3,2.8,2.8v5.7c0,1.6-1.3,2.8-2.8,2.8h-5.7c-1.6,0-2.8-1.3-2.8-2.8v-5.7
	C647.5,118.3,648.8,117.1,650.4,117.1z"/>
<path class="st16" d="M650.4,132.4h5.7c1.6,0,2.8,1.3,2.8,2.8v5.7c0,1.6-1.3,2.8-2.8,2.8h-5.7c-1.6,0-2.8-1.3-2.8-2.8v-5.7
	C647.5,133.6,648.8,132.4,650.4,132.4z"/>
<path class="st16" d="M650.4,147.7h5.7c1.6,0,2.8,1.3,2.8,2.8v5.7c0,1.6-1.3,2.8-2.8,2.8h-5.7c-1.6,0-2.8-1.3-2.8-2.8v-5.7
	C647.5,149,648.8,147.7,650.4,147.7z"/>
<path class="st16" d="M665.7,55.8h5.7c1.6,0,2.8,1.3,2.8,2.8v5.7c0,1.6-1.3,2.8-2.8,2.8h-5.7c-1.6,0-2.8-1.3-2.8-2.8v-5.7
	C662.9,57.1,664.1,55.8,665.7,55.8z"/>
<path class="st16" d="M665.7,71.1h5.7c1.6,0,2.8,1.3,2.8,2.8v5.7c0,1.6-1.3,2.8-2.8,2.8h-5.7c-1.6,0-2.8-1.3-2.8-2.8V74
	C662.9,72.4,664.1,71.1,665.7,71.1z"/>
<path class="st16" d="M665.7,86.5h5.7c1.6,0,2.8,1.3,2.8,2.8V95c0,1.6-1.3,2.8-2.8,2.8h-5.7c-1.6,0-2.8-1.3-2.8-2.8v-5.7
	C662.9,87.7,664.1,86.5,665.7,86.5z"/>
<path class="st16" d="M665.7,101.8h5.7c1.6,0,2.8,1.3,2.8,2.8v5.7c0,1.6-1.3,2.8-2.8,2.8h-5.7c-1.6,0-2.8-1.3-2.8-2.8v-5.7
	C662.9,103,664.1,101.8,665.7,101.8z"/>
<path class="st16" d="M665.7,117.1h5.7c1.6,0,2.8,1.3,2.8,2.8v5.7c0,1.6-1.3,2.8-2.8,2.8h-5.7c-1.6,0-2.8-1.3-2.8-2.8v-5.7
	C662.9,118.3,664.1,117.1,665.7,117.1z"/>
<path class="st16" d="M665.7,132.4h5.7c1.6,0,2.8,1.3,2.8,2.8v5.7c0,1.6-1.3,2.8-2.8,2.8h-5.7c-1.6,0-2.8-1.3-2.8-2.8v-5.7
	C662.9,133.6,664.1,132.4,665.7,132.4z"/>
<path class="st16" d="M665.7,147.7h5.7c1.6,0,2.8,1.3,2.8,2.8v5.7c0,1.6-1.3,2.8-2.8,2.8h-5.7c-1.6,0-2.8-1.3-2.8-2.8v-5.7
	C662.9,149,664.1,147.7,665.7,147.7z"/>
<text transform="matrix(1 0 0 1 678.1606 51.8744)" class="st3 st5">Nov</text>
<path class="st16" d="M681,55.8h5.7c1.6,0,2.8,1.3,2.8,2.8v5.7c0,1.6-1.3,2.8-2.8,2.8H681c-1.6,0-2.8-1.3-2.8-2.8v-5.7
	C678.2,57.1,679.4,55.8,681,55.8z"/>
<path class="st16" d="M681,71.1h5.7c1.6,0,2.8,1.3,2.8,2.8v5.7c0,1.6-1.3,2.8-2.8,2.8H681c-1.6,0-2.8-1.3-2.8-2.8V74
	C678.2,72.4,679.4,71.1,681,71.1z"/>
<path class="st16" d="M681,86.5h5.7c1.6,0,2.8,1.3,2.8,2.8V95c0,1.6-1.3,2.8-2.8,2.8H681c-1.6,0-2.8-1.3-2.8-2.8v-5.7
	C678.2,87.7,679.4,86.5,681,86.5z"/>
<path class="st16" d="M681,101.8h5.7c1.6,0,2.8,1.3,2.8,2.8v5.7c0,1.6-1.3,2.8-2.8,2.8H681c-1.6,0-2.8-1.3-2.8-2.8v-5.7
	C678.2,103,679.4,101.8,681,101.8z"/>
<path class="st16" d="M681,117.1h5.7c1.6,0,2.8,1.3,2.8,2.8v5.7c0,1.6-1.3,2.8-2.8,2.8H681c-1.6,0-2.8-1.3-2.8-2.8v-5.7
	C678.2,118.3,679.4,117.1,681,117.1z"/>
<path class="st16" d="M681,132.4h5.7c1.6,0,2.8,1.3,2.8,2.8v5.7c0,1.6-1.3,2.8-2.8,2.8H681c-1.6,0-2.8-1.3-2.8-2.8v-5.7
	C678.2,133.6,679.4,132.4,681,132.4z"/>
<path class="st16" d="M681,147.7h5.7c1.6,0,2.8,1.3,2.8,2.8v5.7c0,1.6-1.3,2.8-2.8,2.8H681c-1.6,0-2.8-1.3-2.8-2.8v-5.7
	C678.2,149,679.4,147.7,681,147.7z"/>
<path class="st16" d="M696.3,55.8h5.7c1.6,0,2.8,1.3,2.8,2.8v5.7c0,1.6-1.3,2.8-2.8,2.8h-5.7c-1.6,0-2.8-1.3-2.8-2.8v-5.7
	C693.5,57.1,694.7,55.8,696.3,55.8z"/>
<path class="st16" d="M696.3,71.1h5.7c1.6,0,2.8,1.3,2.8,2.8v5.7c0,1.6-1.3,2.8-2.8,2.8h-5.7c-1.6,0-2.8-1.3-2.8-2.8V74
	C693.5,72.4,694.7,71.1,696.3,71.1z"/>
<path class="st16" d="M696.3,86.5h5.7c1.6,0,2.8,1.3,2.8,2.8V95c0,1.6-1.3,2.8-2.8,2.8h-5.7c-1.6,0-2.8-1.3-2.8-2.8v-5.7
	C693.5,87.7,694.7,86.5,696.3,86.5z"/>
<path class="st16" d="M696.3,101.8h5.7c1.6,0,2.8,1.3,2.8,2.8v5.7c0,1.6-1.3,2.8-2.8,2.8h-5.7c-1.6,0-2.8-1.3-2.8-2.8v-5.7
	C693.5,103,694.7,101.8,696.3,101.8z"/>
<path class="st16" d="M696.3,117.1h5.7c1.6,0,2.8,1.3,2.8,2.8v5.7c0,1.6-1.3,2.8-2.8,2.8h-5.7c-1.6,0-2.8-1.3-2.8-2.8v-5.7
	C693.5,118.3,694.7,117.1,696.3,117.1z"/>
<path class="st16" d="M696.3,132.4h5.7c1.6,0,2.8,1.3,2.8,2.8v5.7c0,1.6-1.3,2.8-2.8,2.8h-5.7c-1.6,0-2.8-1.3-2.8-2.8v-5.7
	C693.5,133.6,694.7,132.4,696.3,132.4z"/>
<path class="st16" d="M696.3,147.7h5.7c1.6,0,2.8,1.3,2.8,2.8v5.7c0,1.6-1.3,2.8-2.8,2.8h-5.7c-1.6,0-2.8-1.3-2.8-2.8v-5.7
	C693.5,149,694.7,147.7,696.3,147.7z"/>
<path class="st16" d="M711.6,55.8h5.7c1.6,0,2.8,1.3,2.8,2.8v5.7c0,1.6-1.3,2.8-2.8,2.8h-5.7c-1.6,0-2.8-1.3-2.8-2.8v-5.7
	C708.8,57.1,710,55.8,711.6,55.8z"/>
<path class="st16" d="M711.6,71.1h5.7c1.6,0,2.8,1.3,2.8,2.8v5.7c0,1.6-1.3,2.8-2.8,2.8h-5.7c-1.6,0-2.8-1.3-2.8-2.8V74
	C708.8,72.4,710,71.1,711.6,71.1z"/>
<path class="st16" d="M711.6,86.5h5.7c1.6,0,2.8,1.3,2.8,2.8V95c0,1.6-1.3,2.8-2.8,2.8h-5.7c-1.6,0-2.8-1.3-2.8-2.8v-5.7
	C708.8,87.7,710,86.5,711.6,86.5z"/>
<path class="st16" d="M711.6,101.8h5.7c1.6,0,2.8,1.3,2.8,2.8v5.7c0,1.6-1.3,2.8-2.8,2.8h-5.7c-1.6,0-2.8-1.3-2.8-2.8v-5.7
	C708.8,103,710,101.8,711.6,101.8z"/>
<path class="st16" d="M711.6,117.1h5.7c1.6,0,2.8,1.3,2.8,2.8v5.7c0,1.6-1.3,2.8-2.8,2.8h-5.7c-1.6,0-2.8-1.3-2.8-2.8v-5.7
	C708.8,118.3,710,117.1,711.6,117.1z"/>
<path class="st16" d="M711.6,132.4h5.7c1.6,0,2.8,1.3,2.8,2.8v5.7c0,1.6-1.3,2.8-2.8,2.8h-5.7c-1.6,0-2.8-1.3-2.8-2.8v-5.7
	C708.8,133.6,710,132.4,711.6,132.4z"/>
<path class="st16" d="M711.6,147.7h5.7c1.6,0,2.8,1.3,2.8,2.8v5.7c0,1.6-1.3,2.8-2.8,2.8h-5.7c-1.6,0-2.8-1.3-2.8-2.8v-5.7
	C708.8,149,710,147.7,711.6,147.7z"/>
<path class="st16" d="M726.9,55.8h5.7c1.6,0,2.8,1.3,2.8,2.8v5.7c0,1.6-1.3,2.8-2.8,2.8h-5.7c-1.6,0-2.8-1.3-2.8-2.8v-5.7
	C724.1,57.1,725.4,55.8,726.9,55.8z"/>
<path class="st16" d="M726.9,71.1h5.7c1.6,0,2.8,1.3,2.8,2.8v5.7c0,1.6-1.3,2.8-2.8,2.8h-5.7c-1.6,0-2.8-1.3-2.8-2.8V74
	C724.1,72.4,725.4,71.1,726.9,71.1z"/>
<path class="st16" d="M726.9,86.5h5.7c1.6,0,2.8,1.3,2.8,2.8V95c0,1.6-1.3,2.8-2.8,2.8h-5.7c-1.6,0-2.8-1.3-2.8-2.8v-5.7
	C724.1,87.7,725.4,86.5,726.9,86.5z"/>
<path class="st16" d="M726.9,101.8h5.7c1.6,0,2.8,1.3,2.8,2.8v5.7c0,1.6-1.3,2.8-2.8,2.8h-5.7c-1.6,0-2.8-1.3-2.8-2.8v-5.7
	C724.1,103,725.4,101.8,726.9,101.8z"/>
<path class="st16" d="M726.9,117.1h5.7c1.6,0,2.8,1.3,2.8,2.8v5.7c0,1.6-1.3,2.8-2.8,2.8h-5.7c-1.6,0-2.8-1.3-2.8-2.8v-5.7
	C724.1,118.3,725.4,117.1,726.9,117.1z"/>
<path class="st16" d="M726.9,132.4h5.7c1.6,0,2.8,1.3,2.8,2.8v5.7c0,1.6-1.3,2.8-2.8,2.8h-5.7c-1.6,0-2.8-1.3-2.8-2.8v-5.7
	C724.1,133.6,725.4,132.4,726.9,132.4z"/>
<path class="st16" d="M726.9,147.7h5.7c1.6,0,2.8,1.3,2.8,2.8v5.7c0,1.6-1.3,2.8-2.8,2.8h-5.7c-1.6,0-2.8-1.3-2.8-2.8v-5.7
	C724.1,149,725.4,147.7,726.9,147.7z"/>
<text transform="matrix(1 0 0 1 739.3881 51.8744)" class="st3 st5">Dec</text>
<path class="st16" d="M742.2,55.8h5.7c1.6,0,2.8,1.3,2.8,2.8v5.7c0,1.6-1.3,2.8-2.8,2.8h-5.7c-1.6,0-2.8-1.3-2.8-2.8v-5.7
	C739.4,57.1,740.7,55.8,742.2,55.8z"/>
<path class="st16" d="M742.2,71.1h5.7c1.6,0,2.8,1.3,2.8,2.8v5.7c0,1.6-1.3,2.8-2.8,2.8h-5.7c-1.6,0-2.8-1.3-2.8-2.8V74
	C739.4,72.4,740.7,71.1,742.2,71.1z"/>
<path class="st16" d="M742.2,86.5h5.7c1.6,0,2.8,1.3,2.8,2.8V95c0,1.6-1.3,2.8-2.8,2.8h-5.7c-1.6,0-2.8-1.3-2.8-2.8v-5.7
	C739.4,87.7,740.7,86.5,742.2,86.5z"/>
<path class="st16" d="M742.2,101.8h5.7c1.6,0,2.8,1.3,2.8,2.8v5.7c0,1.6-1.3,2.8-2.8,2.8h-5.7c-1.6,0-2.8-1.3-2.8-2.8v-5.7
	C739.4,103,740.7,101.8,742.2,101.8z"/>
<path class="st16" d="M742.2,117.1h5.7c1.6,0,2.8,1.3,2.8,2.8v5.7c0,1.6-1.3,2.8-2.8,2.8h-5.7c-1.6,0-2.8-1.3-2.8-2.8v-5.7
	C739.4,118.3,740.7,117.1,742.2,117.1z"/>
<path class="st16" d="M742.2,132.4h5.7c1.6,0,2.8,1.3,2.8,2.8v5.7c0,1.6-1.3,2.8-2.8,2.8h-5.7c-1.6,0-2.8-1.3-2.8-2.8v-5.7
	C739.4,133.6,740.7,132.4,742.2,132.4z"/>
<path class="st16" d="M742.2,147.7h5.7c1.6,0,2.8,1.3,2.8,2.8v5.7c0,1.6-1.3,2.8-2.8,2.8h-5.7c-1.6,0-2.8-1.3-2.8-2.8v-5.7
	C739.4,149,740.7,147.7,742.2,147.7z"/>
<path class="st16" d="M757.5,55.8h5.7c1.6,0,2.8,1.3,2.8,2.8v5.7c0,1.6-1.3,2.8-2.8,2.8h-5.7c-1.6,0-2.8-1.3-2.8-2.8v-5.7
	C754.7,57.1,756,55.8,757.5,55.8z"/>
<path class="st16" d="M757.5,71.1h5.7c1.6,0,2.8,1.3,2.8,2.8v5.7c0,1.6-1.3,2.8-2.8,2.8h-5.7c-1.6,0-2.8-1.3-2.8-2.8V74
	C754.7,72.4,756,71.1,757.5,71.1z"/>
<path class="st16" d="M757.5,86.5h5.7c1.6,0,2.8,1.3,2.8,2.8V95c0,1.6-1.3,2.8-2.8,2.8h-5.7c-1.6,0-2.8-1.3-2.8-2.8v-5.7
	C754.7,87.7,756,86.5,757.5,86.5z"/>
<path class="st16" d="M757.5,101.8h5.7c1.6,0,2.8,1.3,2.8,2.8v5.7c0,1.6-1.3,2.8-2.8,2.8h-5.7c-1.6,0-2.8-1.3-2.8-2.8v-5.7
	C754.7,103,756,101.8,757.5,101.8z"/>
<path class="st16" d="M757.5,117.1h5.7c1.6,0,2.8,1.3,2.8,2.8v5.7c0,1.6-1.3,2.8-2.8,2.8h-5.7c-1.6,0-2.8-1.3-2.8-2.8v-5.7
	C754.7,118.3,756,117.1,757.5,117.1z"/>
<path class="st16" d="M757.5,132.4h5.7c1.6,0,2.8,1.3,2.8,2.8v5.7c0,1.6-1.3,2.8-2.8,2.8h-5.7c-1.6,0-2.8-1.3-2.8-2.8v-5.7
	C754.7,133.6,756,132.4,757.5,132.4z"/>
<path class="st16" d="M757.5,147.7h5.7c1.6,0,2.8,1.3,2.8,2.8v5.7c0,1.6-1.3,2.8-2.8,2.8h-5.7c-1.6,0-2.8-1.3-2.8-2.8v-5.7
	C754.7,149,756,147.7,757.5,147.7z"/>
<path class="st16" d="M772.8,55.8h5.7c1.6,0,2.8,1.3,2.8,2.8v5.7c0,1.6-1.3,2.8-2.8,2.8h-5.7c-1.6,0-2.8-1.3-2.8-2.8v-5.7
	C770,57.1,771.3,55.8,772.8,55.8z"/>
<path class="st16" d="M772.8,71.1h5.7c1.6,0,2.8,1.3,2.8,2.8v5.7c0,1.6-1.3,2.8-2.8,2.8h-5.7c-1.6,0-2.8-1.3-2.8-2.8V74
	C770,72.4,771.3,71.1,772.8,71.1z"/>
<path class="st16" d="M772.8,86.5h5.7c1.6,0,2.8,1.3,2.8,2.8V95c0,1.6-1.3,2.8-2.8,2.8h-5.7c-1.6,0-2.8-1.3-2.8-2.8v-5.7
	C770,87.7,771.3,86.5,772.8,86.5z"/>
<path class="st16" d="M772.8,101.8h5.7c1.6,0,2.8,1.3,2.8,2.8v5.7c0,1.6-1.3,2.8-2.8,2.8h-5.7c-1.6,0-2.8-1.3-2.8-2.8v-5.7
	C770,103,771.3,101.8,772.8,101.8z"/>
<path class="st16" d="M772.8,117.1h5.7c1.6,0,2.8,1.3,2.8,2.8v5.7c0,1.6-1.3,2.8-2.8,2.8h-5.7c-1.6,0-2.8-1.3-2.8-2.8v-5.7
	C770,118.3,771.3,117.1,772.8,117.1z"/>
<path class="st16" d="M772.8,132.4h5.7c1.6,0,2.8,1.3,2.8,2.8v5.7c0,1.6-1.3,2.8-2.8,2.8h-5.7c-1.6,0-2.8-1.3-2.8-2.8v-5.7
	C770,133.6,771.3,132.4,772.8,132.4z"/>
<path class="st16" d="M772.8,147.7h5.7c1.6,0,2.8,1.3,2.8,2.8v5.7c0,1.6-1.3,2.8-2.8,2.8h-5.7c-1.6,0-2.8-1.3-2.8-2.8v-5.7
	C770,149,771.3,147.7,772.8,147.7z"/>
<path class="st16" d="M788.1,55.8h5.7c1.6,0,2.8,1.3,2.8,2.8v5.7c0,1.6-1.3,2.8-2.8,2.8h-5.7c-1.6,0-2.8-1.3-2.8-2.8v-5.7
	C785.3,57.1,786.6,55.8,788.1,55.8z"/>
<path class="st16" d="M788.1,71.1h5.7c1.6,0,2.8,1.3,2.8,2.8v5.7c0,1.6-1.3,2.8-2.8,2.8h-5.7c-1.6,0-2.8-1.3-2.8-2.8V74
	C785.3,72.4,786.6,71.1,788.1,71.1z"/>
<path class="st16" d="M788.1,86.5h5.7c1.6,0,2.8,1.3,2.8,2.8V95c0,1.6-1.3,2.8-2.8,2.8h-5.7c-1.6,0-2.8-1.3-2.8-2.8v-5.7
	C785.3,87.7,786.6,86.5,788.1,86.5z"/>
<path class="st16" d="M788.1,101.8h5.7c1.6,0,2.8,1.3,2.8,2.8v5.7c0,1.6-1.3,2.8-2.8,2.8h-5.7c-1.6,0-2.8-1.3-2.8-2.8v-5.7
	C785.3,103,786.6,101.8,788.1,101.8z"/>
<path class="st16" d="M788.1,117.1h5.7c1.6,0,2.8,1.3,2.8,2.8v5.7c0,1.6-1.3,2.8-2.8,2.8h-5.7c-1.6,0-2.8-1.3-2.8-2.8v-5.7
	C785.3,118.3,786.6,117.1,788.1,117.1z"/>
<path class="st16" d="M788.1,132.4h5.7c1.6,0,2.8,1.3,2.8,2.8v5.7c0,1.6-1.3,2.8-2.8,2.8h-5.7c-1.6,0-2.8-1.3-2.8-2.8v-5.7
	C785.3,133.6,786.6,132.4,788.1,132.4z"/>
<path class="st16" d="M788.1,147.7h5.7c1.6,0,2.8,1.3,2.8,2.8v5.7c0,1.6-1.3,2.8-2.8,2.8h-5.7c-1.6,0-2.8-1.3-2.8-2.8v-5.7
	C785.3,149,786.6,147.7,788.1,147.7z"/>
<path class="st16" d="M803.5,55.8h5.7c1.6,0,2.8,1.3,2.8,2.8v5.7c0,1.6-1.3,2.8-2.8,2.8h-5.7c-1.6,0-2.8-1.3-2.8-2.8v-5.7
	C800.6,57.1,801.9,55.8,803.5,55.8z"/>
<path class="st16" d="M803.5,71.1h5.7c1.6,0,2.8,1.3,2.8,2.8v5.7c0,1.6-1.3,2.8-2.8,2.8h-5.7c-1.6,0-2.8-1.3-2.8-2.8V74
	C800.6,72.4,801.9,71.1,803.5,71.1z"/>
</svg>
